%TF.GenerationSoftware,KiCad,Pcbnew,7.0.11-7.0.11~ubuntu22.04.1*%
%TF.CreationDate,2024-08-19T10:25:13+10:00*%
%TF.ProjectId,controller,636f6e74-726f-46c6-9c65-722e6b696361,rev?*%
%TF.SameCoordinates,Original*%
%TF.FileFunction,Legend,Top*%
%TF.FilePolarity,Positive*%
%FSLAX46Y46*%
G04 Gerber Fmt 4.6, Leading zero omitted, Abs format (unit mm)*
G04 Created by KiCad (PCBNEW 7.0.11-7.0.11~ubuntu22.04.1) date 2024-08-19 10:25:13*
%MOMM*%
%LPD*%
G01*
G04 APERTURE LIST*
%ADD10C,0.300000*%
%ADD11C,0.100000*%
%ADD12C,0.120000*%
%ADD13C,0.152400*%
G04 APERTURE END LIST*
D10*
X102000000Y-52000000D02*
X194000000Y-52000000D01*
X194000000Y-144000000D01*
X102000000Y-144000000D01*
X102000000Y-52000000D01*
D11*
X111714646Y-85359419D02*
X112381312Y-85359419D01*
X112381312Y-85359419D02*
X111952741Y-86359419D01*
X150897255Y-109975152D02*
X150897255Y-110641819D01*
X150659160Y-109594200D02*
X150421065Y-110308485D01*
X150421065Y-110308485D02*
X151040112Y-110308485D01*
X182364674Y-109210019D02*
X181888484Y-109210019D01*
X181888484Y-109210019D02*
X181840865Y-109686209D01*
X181840865Y-109686209D02*
X181888484Y-109638590D01*
X181888484Y-109638590D02*
X181983722Y-109590971D01*
X181983722Y-109590971D02*
X182221817Y-109590971D01*
X182221817Y-109590971D02*
X182317055Y-109638590D01*
X182317055Y-109638590D02*
X182364674Y-109686209D01*
X182364674Y-109686209D02*
X182412293Y-109781447D01*
X182412293Y-109781447D02*
X182412293Y-110019542D01*
X182412293Y-110019542D02*
X182364674Y-110114780D01*
X182364674Y-110114780D02*
X182317055Y-110162400D01*
X182317055Y-110162400D02*
X182221817Y-110210019D01*
X182221817Y-110210019D02*
X181983722Y-110210019D01*
X181983722Y-110210019D02*
X181888484Y-110162400D01*
X181888484Y-110162400D02*
X181840865Y-110114780D01*
X150294065Y-84946657D02*
X150341684Y-84899038D01*
X150341684Y-84899038D02*
X150436922Y-84851419D01*
X150436922Y-84851419D02*
X150675017Y-84851419D01*
X150675017Y-84851419D02*
X150770255Y-84899038D01*
X150770255Y-84899038D02*
X150817874Y-84946657D01*
X150817874Y-84946657D02*
X150865493Y-85041895D01*
X150865493Y-85041895D02*
X150865493Y-85137133D01*
X150865493Y-85137133D02*
X150817874Y-85279990D01*
X150817874Y-85279990D02*
X150246446Y-85851419D01*
X150246446Y-85851419D02*
X150865493Y-85851419D01*
X181615446Y-85080019D02*
X182234493Y-85080019D01*
X182234493Y-85080019D02*
X181901160Y-85460971D01*
X181901160Y-85460971D02*
X182044017Y-85460971D01*
X182044017Y-85460971D02*
X182139255Y-85508590D01*
X182139255Y-85508590D02*
X182186874Y-85556209D01*
X182186874Y-85556209D02*
X182234493Y-85651447D01*
X182234493Y-85651447D02*
X182234493Y-85889542D01*
X182234493Y-85889542D02*
X182186874Y-85984780D01*
X182186874Y-85984780D02*
X182139255Y-86032400D01*
X182139255Y-86032400D02*
X182044017Y-86080019D01*
X182044017Y-86080019D02*
X181758303Y-86080019D01*
X181758303Y-86080019D02*
X181663065Y-86032400D01*
X181663065Y-86032400D02*
X181615446Y-85984780D01*
X112409893Y-133908219D02*
X111838465Y-133908219D01*
X112124179Y-133908219D02*
X112124179Y-132908219D01*
X112124179Y-132908219D02*
X112028941Y-133051076D01*
X112028941Y-133051076D02*
X111933703Y-133146314D01*
X111933703Y-133146314D02*
X111838465Y-133193933D01*
X181640846Y-133644819D02*
X182307512Y-133644819D01*
X182307512Y-133644819D02*
X181878941Y-134644819D01*
X150770255Y-133924219D02*
X150579779Y-133924219D01*
X150579779Y-133924219D02*
X150484541Y-133971838D01*
X150484541Y-133971838D02*
X150436922Y-134019457D01*
X150436922Y-134019457D02*
X150341684Y-134162314D01*
X150341684Y-134162314D02*
X150294065Y-134352790D01*
X150294065Y-134352790D02*
X150294065Y-134733742D01*
X150294065Y-134733742D02*
X150341684Y-134828980D01*
X150341684Y-134828980D02*
X150389303Y-134876600D01*
X150389303Y-134876600D02*
X150484541Y-134924219D01*
X150484541Y-134924219D02*
X150675017Y-134924219D01*
X150675017Y-134924219D02*
X150770255Y-134876600D01*
X150770255Y-134876600D02*
X150817874Y-134828980D01*
X150817874Y-134828980D02*
X150865493Y-134733742D01*
X150865493Y-134733742D02*
X150865493Y-134495647D01*
X150865493Y-134495647D02*
X150817874Y-134400409D01*
X150817874Y-134400409D02*
X150770255Y-134352790D01*
X150770255Y-134352790D02*
X150675017Y-134305171D01*
X150675017Y-134305171D02*
X150484541Y-134305171D01*
X150484541Y-134305171D02*
X150389303Y-134352790D01*
X150389303Y-134352790D02*
X150341684Y-134400409D01*
X150341684Y-134400409D02*
X150294065Y-134495647D01*
X111638446Y-109641819D02*
X112257493Y-109641819D01*
X112257493Y-109641819D02*
X111924160Y-110022771D01*
X111924160Y-110022771D02*
X112067017Y-110022771D01*
X112067017Y-110022771D02*
X112162255Y-110070390D01*
X112162255Y-110070390D02*
X112209874Y-110118009D01*
X112209874Y-110118009D02*
X112257493Y-110213247D01*
X112257493Y-110213247D02*
X112257493Y-110451342D01*
X112257493Y-110451342D02*
X112209874Y-110546580D01*
X112209874Y-110546580D02*
X112162255Y-110594200D01*
X112162255Y-110594200D02*
X112067017Y-110641819D01*
X112067017Y-110641819D02*
X111781303Y-110641819D01*
X111781303Y-110641819D02*
X111686065Y-110594200D01*
X111686065Y-110594200D02*
X111638446Y-110546580D01*
X112184474Y-60746819D02*
X111708284Y-60746819D01*
X111708284Y-60746819D02*
X111660665Y-61223009D01*
X111660665Y-61223009D02*
X111708284Y-61175390D01*
X111708284Y-61175390D02*
X111803522Y-61127771D01*
X111803522Y-61127771D02*
X112041617Y-61127771D01*
X112041617Y-61127771D02*
X112136855Y-61175390D01*
X112136855Y-61175390D02*
X112184474Y-61223009D01*
X112184474Y-61223009D02*
X112232093Y-61318247D01*
X112232093Y-61318247D02*
X112232093Y-61556342D01*
X112232093Y-61556342D02*
X112184474Y-61651580D01*
X112184474Y-61651580D02*
X112136855Y-61699200D01*
X112136855Y-61699200D02*
X112041617Y-61746819D01*
X112041617Y-61746819D02*
X111803522Y-61746819D01*
X111803522Y-61746819D02*
X111708284Y-61699200D01*
X111708284Y-61699200D02*
X111660665Y-61651580D01*
X182539293Y-61645219D02*
X181967865Y-61645219D01*
X182253579Y-61645219D02*
X182253579Y-60645219D01*
X182253579Y-60645219D02*
X182158341Y-60788076D01*
X182158341Y-60788076D02*
X182063103Y-60883314D01*
X182063103Y-60883314D02*
X181967865Y-60930933D01*
X150481360Y-60518219D02*
X150576598Y-60518219D01*
X150576598Y-60518219D02*
X150671836Y-60565838D01*
X150671836Y-60565838D02*
X150719455Y-60613457D01*
X150719455Y-60613457D02*
X150767074Y-60708695D01*
X150767074Y-60708695D02*
X150814693Y-60899171D01*
X150814693Y-60899171D02*
X150814693Y-61137266D01*
X150814693Y-61137266D02*
X150767074Y-61327742D01*
X150767074Y-61327742D02*
X150719455Y-61422980D01*
X150719455Y-61422980D02*
X150671836Y-61470600D01*
X150671836Y-61470600D02*
X150576598Y-61518219D01*
X150576598Y-61518219D02*
X150481360Y-61518219D01*
X150481360Y-61518219D02*
X150386122Y-61470600D01*
X150386122Y-61470600D02*
X150338503Y-61422980D01*
X150338503Y-61422980D02*
X150290884Y-61327742D01*
X150290884Y-61327742D02*
X150243265Y-61137266D01*
X150243265Y-61137266D02*
X150243265Y-60899171D01*
X150243265Y-60899171D02*
X150290884Y-60708695D01*
X150290884Y-60708695D02*
X150338503Y-60613457D01*
X150338503Y-60613457D02*
X150386122Y-60565838D01*
X150386122Y-60565838D02*
X150481360Y-60518219D01*
D12*
%TO.C,RV7*%
X175972600Y-129415600D02*
X175972600Y-131014600D01*
X175972600Y-129415600D02*
X179837600Y-129415600D01*
X175972600Y-132756600D02*
X175972600Y-133515600D01*
X175972600Y-135256600D02*
X175972600Y-136015600D01*
X175972600Y-137755600D02*
X175972600Y-139355600D01*
X175972600Y-139355600D02*
X179837600Y-139355600D01*
X184347600Y-129415600D02*
X188212600Y-129415600D01*
X184347600Y-139355600D02*
X188212600Y-139355600D01*
X188212600Y-129415600D02*
X188212600Y-139355600D01*
%TO.C,RV3*%
X175972600Y-80637866D02*
X175972600Y-82236866D01*
X175972600Y-80637866D02*
X179837600Y-80637866D01*
X175972600Y-83978866D02*
X175972600Y-84737866D01*
X175972600Y-86478866D02*
X175972600Y-87237866D01*
X175972600Y-88977866D02*
X175972600Y-90577866D01*
X175972600Y-90577866D02*
X179837600Y-90577866D01*
X184347600Y-80637866D02*
X188212600Y-80637866D01*
X184347600Y-90577866D02*
X188212600Y-90577866D01*
X188212600Y-80637866D02*
X188212600Y-90577866D01*
%TO.C,D3*%
X124877550Y-111537400D02*
X124877550Y-111381400D01*
X124877550Y-109221400D02*
X124877550Y-109065400D01*
X121645216Y-111380008D02*
G75*
G03*
X124877549Y-111536915I1672334J1078608D01*
G01*
X122276421Y-111381236D02*
G75*
G03*
X124358510Y-111381399I1041129J1079836D01*
G01*
X124358510Y-109221401D02*
G75*
G03*
X122276421Y-109221564I-1040960J-1079999D01*
G01*
X124877549Y-109065885D02*
G75*
G03*
X121645216Y-109222792I-1559999J-1235515D01*
G01*
%TO.C,D5*%
X124877550Y-62686432D02*
X124877550Y-62530432D01*
X124877550Y-60370432D02*
X124877550Y-60214432D01*
X121645216Y-62529040D02*
G75*
G03*
X124877549Y-62685947I1672334J1078608D01*
G01*
X122276421Y-62530268D02*
G75*
G03*
X124358510Y-62530431I1041129J1079836D01*
G01*
X124358510Y-60370433D02*
G75*
G03*
X122276421Y-60370596I-1040960J-1079999D01*
G01*
X124877549Y-60214917D02*
G75*
G03*
X121645216Y-60371824I-1559999J-1235515D01*
G01*
D13*
%TO.C,SW2*%
X105814800Y-55329032D02*
X105814800Y-57715992D01*
X105814800Y-60184872D02*
X105814800Y-62722709D01*
X105814800Y-65178155D02*
X105814800Y-67571832D01*
X105814800Y-67571832D02*
X118057600Y-67571832D01*
X118057600Y-55329032D02*
X105814800Y-55329032D01*
X118057600Y-57722709D02*
X118057600Y-55329032D01*
X118057600Y-62722709D02*
X118057600Y-60178155D01*
X118057600Y-67571832D02*
X118057600Y-65178155D01*
X104240000Y-58950432D02*
G75*
G03*
X103833600Y-58950432I-203200J0D01*
G01*
X103833600Y-58950432D02*
G75*
G03*
X104240000Y-58950432I203200J0D01*
G01*
D12*
%TO.C,RV0*%
X144654400Y-56356400D02*
X144654400Y-57955400D01*
X144654400Y-56356400D02*
X148519400Y-56356400D01*
X144654400Y-59697400D02*
X144654400Y-60456400D01*
X144654400Y-62197400D02*
X144654400Y-62956400D01*
X144654400Y-64696400D02*
X144654400Y-66296400D01*
X144654400Y-66296400D02*
X148519400Y-66296400D01*
X153029400Y-56356400D02*
X156894400Y-56356400D01*
X153029400Y-66296400D02*
X156894400Y-66296400D01*
X156894400Y-56356400D02*
X156894400Y-66296400D01*
D13*
%TO.C,SW1*%
X105814800Y-128030600D02*
X105814800Y-130417560D01*
X105814800Y-132886440D02*
X105814800Y-135424277D01*
X105814800Y-137879723D02*
X105814800Y-140273400D01*
X105814800Y-140273400D02*
X118057600Y-140273400D01*
X118057600Y-128030600D02*
X105814800Y-128030600D01*
X118057600Y-130424277D02*
X118057600Y-128030600D01*
X118057600Y-135424277D02*
X118057600Y-132879723D01*
X118057600Y-140273400D02*
X118057600Y-137879723D01*
X104240000Y-131652000D02*
G75*
G03*
X103833600Y-131652000I-203200J0D01*
G01*
X103833600Y-131652000D02*
G75*
G03*
X104240000Y-131652000I203200J0D01*
G01*
D12*
%TO.C,RV2*%
X144654400Y-80745266D02*
X144654400Y-82344266D01*
X144654400Y-80745266D02*
X148519400Y-80745266D01*
X144654400Y-84086266D02*
X144654400Y-84845266D01*
X144654400Y-86586266D02*
X144654400Y-87345266D01*
X144654400Y-89085266D02*
X144654400Y-90685266D01*
X144654400Y-90685266D02*
X148519400Y-90685266D01*
X153029400Y-80745266D02*
X156894400Y-80745266D01*
X153029400Y-90685266D02*
X156894400Y-90685266D01*
X156894400Y-80745266D02*
X156894400Y-90685266D01*
%TO.C,RV5*%
X175972600Y-105026732D02*
X175972600Y-106625732D01*
X175972600Y-105026732D02*
X179837600Y-105026732D01*
X175972600Y-108367732D02*
X175972600Y-109126732D01*
X175972600Y-110867732D02*
X175972600Y-111626732D01*
X175972600Y-113366732D02*
X175972600Y-114966732D01*
X175972600Y-114966732D02*
X179837600Y-114966732D01*
X184347600Y-105026732D02*
X188212600Y-105026732D01*
X184347600Y-114966732D02*
X188212600Y-114966732D01*
X188212600Y-105026732D02*
X188212600Y-114966732D01*
%TO.C,D1*%
X124877550Y-135388000D02*
X124877550Y-135232000D01*
X124877550Y-133072000D02*
X124877550Y-132916000D01*
X121645216Y-135230608D02*
G75*
G03*
X124877549Y-135387515I1672334J1078608D01*
G01*
X122276421Y-135231836D02*
G75*
G03*
X124358510Y-135231999I1041129J1079836D01*
G01*
X124358510Y-133072001D02*
G75*
G03*
X122276421Y-133072164I-1040960J-1079999D01*
G01*
X124877549Y-132916485D02*
G75*
G03*
X121645216Y-133073392I-1559999J-1235515D01*
G01*
D13*
%TO.C,SW4*%
X105814800Y-80214150D02*
X105814800Y-82601110D01*
X105814800Y-85069990D02*
X105814800Y-87607827D01*
X105814800Y-90063273D02*
X105814800Y-92456950D01*
X105814800Y-92456950D02*
X118057600Y-92456950D01*
X118057600Y-80214150D02*
X105814800Y-80214150D01*
X118057600Y-82607827D02*
X118057600Y-80214150D01*
X118057600Y-87607827D02*
X118057600Y-85063273D01*
X118057600Y-92456950D02*
X118057600Y-90063273D01*
X104240000Y-83835550D02*
G75*
G03*
X103833600Y-83835550I-203200J0D01*
G01*
X103833600Y-83835550D02*
G75*
G03*
X104240000Y-83835550I203200J0D01*
G01*
%TO.C,SW5*%
X105814800Y-104180000D02*
X105814800Y-106566960D01*
X105814800Y-109035840D02*
X105814800Y-111573677D01*
X105814800Y-114029123D02*
X105814800Y-116422800D01*
X105814800Y-116422800D02*
X118057600Y-116422800D01*
X118057600Y-104180000D02*
X105814800Y-104180000D01*
X118057600Y-106573677D02*
X118057600Y-104180000D01*
X118057600Y-111573677D02*
X118057600Y-109029123D01*
X118057600Y-116422800D02*
X118057600Y-114029123D01*
X104240000Y-107801400D02*
G75*
G03*
X103833600Y-107801400I-203200J0D01*
G01*
X103833600Y-107801400D02*
G75*
G03*
X104240000Y-107801400I203200J0D01*
G01*
D12*
%TO.C,RV1*%
X175972600Y-56249000D02*
X175972600Y-57848000D01*
X175972600Y-56249000D02*
X179837600Y-56249000D01*
X175972600Y-59590000D02*
X175972600Y-60349000D01*
X175972600Y-62090000D02*
X175972600Y-62849000D01*
X175972600Y-64589000D02*
X175972600Y-66189000D01*
X175972600Y-66189000D02*
X179837600Y-66189000D01*
X184347600Y-56249000D02*
X188212600Y-56249000D01*
X184347600Y-66189000D02*
X188212600Y-66189000D01*
X188212600Y-56249000D02*
X188212600Y-66189000D01*
%TO.C,D7*%
X124877550Y-87571550D02*
X124877550Y-87415550D01*
X124877550Y-85255550D02*
X124877550Y-85099550D01*
X121645216Y-87414158D02*
G75*
G03*
X124877549Y-87571065I1672334J1078608D01*
G01*
X122276421Y-87415386D02*
G75*
G03*
X124358510Y-87415549I1041129J1079836D01*
G01*
X124358510Y-85255551D02*
G75*
G03*
X122276421Y-85255714I-1040960J-1079999D01*
G01*
X124877549Y-85100035D02*
G75*
G03*
X121645216Y-85256942I-1559999J-1235515D01*
G01*
%TO.C,RV6*%
X144654400Y-129523000D02*
X144654400Y-131122000D01*
X144654400Y-129523000D02*
X148519400Y-129523000D01*
X144654400Y-132864000D02*
X144654400Y-133623000D01*
X144654400Y-135364000D02*
X144654400Y-136123000D01*
X144654400Y-137863000D02*
X144654400Y-139463000D01*
X144654400Y-139463000D02*
X148519400Y-139463000D01*
X153029400Y-129523000D02*
X156894400Y-129523000D01*
X153029400Y-139463000D02*
X156894400Y-139463000D01*
X156894400Y-129523000D02*
X156894400Y-139463000D01*
%TO.C,RV4*%
X144654400Y-105134132D02*
X144654400Y-106733132D01*
X144654400Y-105134132D02*
X148519400Y-105134132D01*
X144654400Y-108475132D02*
X144654400Y-109234132D01*
X144654400Y-110975132D02*
X144654400Y-111734132D01*
X144654400Y-113474132D02*
X144654400Y-115074132D01*
X144654400Y-115074132D02*
X148519400Y-115074132D01*
X153029400Y-105134132D02*
X156894400Y-105134132D01*
X153029400Y-115074132D02*
X156894400Y-115074132D01*
X156894400Y-105134132D02*
X156894400Y-115074132D01*
%TD*%
M02*
