M48
; DRILL file {KiCad 7.0.11-7.0.11~ubuntu22.04.1} date Mon 19 Aug 2024 10:25:09
; FORMAT={-:-/ absolute / inch / decimal}
; #@! TF.CreationDate,2024-08-19T10:25:09+10:00
; #@! TF.GenerationSoftware,Kicad,Pcbnew,7.0.11-7.0.11~ubuntu22.04.1
; #@! TF.FileFunction,MixedPlating,1,2
FMAT,2
INCH
; #@! TA.AperFunction,Plated,PTH,ViaDrill
T1C0.0118
; #@! TA.AperFunction,Plated,PTH,ComponentDrill
T2C0.0354
; #@! TA.AperFunction,Plated,PTH,ComponentDrill
T3C0.0394
; #@! TA.AperFunction,Plated,PTH,ComponentDrill
T4C0.0510
; #@! TA.AperFunction,NonPlated,NPTH,ComponentDrill
T5C0.0866
; #@! TA.AperFunction,NonPlated,NPTH,ComponentDrill
T6C0.1063
%
G90
G05
T1
X4.776Y-4.721
X4.795Y-4.155
X4.843Y-3.146
X4.963Y-4.671
X5.197Y-4.858
X5.587Y-4.8
X5.804Y-4.86
X5.86Y-4.713
X5.864Y-4.66
X5.87Y-4.61
X5.918Y-4.938
X6.056Y-4.762
X6.07Y-4.839
X6.084Y-4.709
X6.195Y-4.684
X6.322Y-4.241
X6.402Y-2.71
X6.402Y-4.556
X6.444Y-2.718
X6.488Y-2.72
X6.529Y-2.72
X6.736Y-2.901
X6.745Y-2.802
X6.7984Y-2.654
X6.874Y-4.77
T2
X4.805Y-2.4193
X4.805Y-3.399
X4.805Y-4.3426
X4.805Y-5.2816
X4.905Y-2.4193
X4.905Y-3.399
X4.905Y-4.3426
X4.905Y-5.2816
T3
X5.6604Y-2.316
X5.6604Y-2.4144
X5.6604Y-2.5129
X5.6604Y-3.2762
X5.6604Y-3.3746
X5.6604Y-3.473
X5.6604Y-4.2364
X5.6604Y-4.3348
X5.6604Y-4.4332
X5.6604Y-5.1966
X5.6604Y-5.295
X5.6604Y-5.3934
X6.8934Y-2.3118
X6.8934Y-2.4102
X6.8934Y-2.5086
X6.8934Y-3.272
X6.8934Y-3.3704
X6.8934Y-3.4688
X6.8934Y-4.2322
X6.8934Y-4.3306
X6.8934Y-4.429
X6.8934Y-5.1923
X6.8934Y-5.2908
X6.8934Y-5.3892
T4
X4.1609Y-2.3209
X4.1609Y-2.5177
X4.1609Y-3.3006
X4.1609Y-3.4975
X4.1609Y-4.2441
X4.1609Y-4.441
X4.1609Y-5.1831
X4.1609Y-5.38
X4.653Y-2.3209
X4.653Y-2.5177
X4.653Y-3.3006
X4.653Y-3.4975
X4.653Y-4.2441
X4.653Y-4.441
X4.653Y-5.1831
X4.653Y-5.38
T5
X5.936Y-2.2412
X5.936Y-2.5877
X5.936Y-3.2014
X5.936Y-3.5478
X5.936Y-4.1616
X5.936Y-4.508
X5.936Y-5.1218
X5.936Y-5.4682
X7.169Y-2.237
X7.169Y-2.5834
X7.169Y-3.1972
X7.169Y-3.5436
X7.169Y-4.1574
X7.169Y-4.5038
X7.169Y-5.1175
X7.169Y-5.464
T6
X4.075Y-2.107
X4.075Y-5.61
X7.578Y-2.107
X7.578Y-5.61
M30
