%TF.GenerationSoftware,KiCad,Pcbnew,7.0.11-7.0.11~ubuntu22.04.1*%
%TF.CreationDate,2024-08-19T10:25:13+10:00*%
%TF.ProjectId,controller,636f6e74-726f-46c6-9c65-722e6b696361,rev?*%
%TF.SameCoordinates,Original*%
%TF.FileFunction,Copper,L1,Top*%
%TF.FilePolarity,Positive*%
%FSLAX46Y46*%
G04 Gerber Fmt 4.6, Leading zero omitted, Abs format (unit mm)*
G04 Created by KiCad (PCBNEW 7.0.11-7.0.11~ubuntu22.04.1) date 2024-08-19 10:25:13*
%MOMM*%
%LPD*%
G01*
G04 APERTURE LIST*
%TA.AperFunction,WasherPad*%
%ADD10C,4.000000*%
%TD*%
%TA.AperFunction,ComponentPad*%
%ADD11C,1.800000*%
%TD*%
%TA.AperFunction,ComponentPad*%
%ADD12R,1.800000X1.800000*%
%TD*%
%TA.AperFunction,ComponentPad*%
%ADD13R,1.803400X1.803400*%
%TD*%
%TA.AperFunction,ComponentPad*%
%ADD14C,1.803400*%
%TD*%
%TA.AperFunction,ViaPad*%
%ADD15C,0.600000*%
%TD*%
%TA.AperFunction,Conductor*%
%ADD16C,0.500000*%
%TD*%
%TA.AperFunction,Conductor*%
%ADD17C,0.200000*%
%TD*%
G04 APERTURE END LIST*
D10*
%TO.P,RV7,*%
%TO.N,*%
X182092600Y-129985600D03*
X182092600Y-138785600D03*
D11*
%TO.P,RV7,1,1*%
%TO.N,GND*%
X175092600Y-136885600D03*
%TO.P,RV7,2,2*%
%TO.N,/CH7*%
X175092600Y-134385600D03*
%TO.P,RV7,3,3*%
%TO.N,+3V3*%
X175092600Y-131885600D03*
%TD*%
D10*
%TO.P,RV3,*%
%TO.N,*%
X182092600Y-81207866D03*
X182092600Y-90007866D03*
D11*
%TO.P,RV3,1,1*%
%TO.N,GND*%
X175092600Y-88107866D03*
%TO.P,RV3,2,2*%
%TO.N,/CH3*%
X175092600Y-85607866D03*
%TO.P,RV3,3,3*%
%TO.N,+3V3*%
X175092600Y-83107866D03*
%TD*%
D12*
%TO.P,D3,1,K*%
%TO.N,Net-(D3-K)*%
X124587550Y-110301400D03*
D11*
%TO.P,D3,2,A*%
%TO.N,/GP2*%
X122047550Y-110301400D03*
%TD*%
D12*
%TO.P,D5,1,K*%
%TO.N,Net-(D5-K)*%
X124587550Y-61450432D03*
D11*
%TO.P,D5,2,A*%
%TO.N,/GP4*%
X122047550Y-61450432D03*
%TD*%
D13*
%TO.P,SW2,1,A*%
%TO.N,GND*%
X105686200Y-58950432D03*
D14*
%TO.P,SW2,2,B*%
%TO.N,Net-(D8-A)*%
X118186200Y-58950432D03*
%TO.P,SW2,3*%
%TO.N,N/C*%
X105686200Y-63950432D03*
%TO.P,SW2,4*%
X118186200Y-63950432D03*
%TD*%
D10*
%TO.P,RV0,*%
%TO.N,*%
X150774400Y-56926400D03*
X150774400Y-65726400D03*
D11*
%TO.P,RV0,1,1*%
%TO.N,GND*%
X143774400Y-63826400D03*
%TO.P,RV0,2,2*%
%TO.N,/CH0*%
X143774400Y-61326400D03*
%TO.P,RV0,3,3*%
%TO.N,+3V3*%
X143774400Y-58826400D03*
%TD*%
D13*
%TO.P,SW1,1,A*%
%TO.N,GND*%
X105686200Y-131652000D03*
D14*
%TO.P,SW1,2,B*%
%TO.N,Net-(D4-A)*%
X118186200Y-131652000D03*
%TO.P,SW1,3*%
%TO.N,N/C*%
X105686200Y-136652000D03*
%TO.P,SW1,4*%
X118186200Y-136652000D03*
%TD*%
D10*
%TO.P,RV2,*%
%TO.N,*%
X150774400Y-81315266D03*
X150774400Y-90115266D03*
D11*
%TO.P,RV2,1,1*%
%TO.N,GND*%
X143774400Y-88215266D03*
%TO.P,RV2,2,2*%
%TO.N,/CH2*%
X143774400Y-85715266D03*
%TO.P,RV2,3,3*%
%TO.N,+3V3*%
X143774400Y-83215266D03*
%TD*%
D10*
%TO.P,RV5,*%
%TO.N,*%
X182092600Y-105596732D03*
X182092600Y-114396732D03*
D11*
%TO.P,RV5,1,1*%
%TO.N,GND*%
X175092600Y-112496732D03*
%TO.P,RV5,2,2*%
%TO.N,/CH5*%
X175092600Y-109996732D03*
%TO.P,RV5,3,3*%
%TO.N,+3V3*%
X175092600Y-107496732D03*
%TD*%
D12*
%TO.P,D1,1,K*%
%TO.N,Net-(D1-K)*%
X124587550Y-134152000D03*
D11*
%TO.P,D1,2,A*%
%TO.N,/GP0*%
X122047550Y-134152000D03*
%TD*%
D13*
%TO.P,SW4,1,A*%
%TO.N,GND*%
X105686200Y-83835550D03*
D14*
%TO.P,SW4,2,B*%
%TO.N,Net-(D9-A)*%
X118186200Y-83835550D03*
%TO.P,SW4,3*%
%TO.N,N/C*%
X105686200Y-88835550D03*
%TO.P,SW4,4*%
X118186200Y-88835550D03*
%TD*%
D13*
%TO.P,SW5,1,A*%
%TO.N,GND*%
X105686200Y-107801400D03*
D14*
%TO.P,SW5,2,B*%
%TO.N,Net-(D6-A)*%
X118186200Y-107801400D03*
%TO.P,SW5,3*%
%TO.N,N/C*%
X105686200Y-112801400D03*
%TO.P,SW5,4*%
X118186200Y-112801400D03*
%TD*%
D10*
%TO.P,RV1,*%
%TO.N,*%
X182092600Y-56819000D03*
X182092600Y-65619000D03*
D11*
%TO.P,RV1,1,1*%
%TO.N,GND*%
X175092600Y-63719000D03*
%TO.P,RV1,2,2*%
%TO.N,/CH1*%
X175092600Y-61219000D03*
%TO.P,RV1,3,3*%
%TO.N,+3V3*%
X175092600Y-58719000D03*
%TD*%
D12*
%TO.P,D7,1,K*%
%TO.N,Net-(D7-K)*%
X124587550Y-86335550D03*
D11*
%TO.P,D7,2,A*%
%TO.N,/GP6*%
X122047550Y-86335550D03*
%TD*%
D10*
%TO.P,RV6,*%
%TO.N,*%
X150774400Y-130093000D03*
X150774400Y-138893000D03*
D11*
%TO.P,RV6,1,1*%
%TO.N,GND*%
X143774400Y-136993000D03*
%TO.P,RV6,2,2*%
%TO.N,/CH6*%
X143774400Y-134493000D03*
%TO.P,RV6,3,3*%
%TO.N,+3V3*%
X143774400Y-131993000D03*
%TD*%
D10*
%TO.P,RV4,*%
%TO.N,*%
X150774400Y-105704132D03*
X150774400Y-114504132D03*
D11*
%TO.P,RV4,1,1*%
%TO.N,GND*%
X143774400Y-112604132D03*
%TO.P,RV4,2,2*%
%TO.N,/CH4*%
X143774400Y-110104132D03*
%TO.P,RV4,3,3*%
%TO.N,+3V3*%
X143774400Y-107604132D03*
%TD*%
D15*
%TO.N,GND*%
X162610800Y-115722400D03*
X171094400Y-73685400D03*
%TO.N,+3V3*%
X171323000Y-71170800D03*
X141909800Y-121920000D03*
X121793000Y-105537000D03*
X174599600Y-121158000D03*
X123012200Y-79908400D03*
X172678800Y-67411600D03*
X126060200Y-118643400D03*
%TO.N,/GP3*%
X121310400Y-119913400D03*
X132003800Y-123393200D03*
%TO.N,/CLK*%
X165836600Y-69088000D03*
X154533600Y-119608600D03*
X149098000Y-117094000D03*
X157353000Y-118973600D03*
%TO.N,/SI*%
X148844000Y-119710200D03*
X154178000Y-122910600D03*
X164795200Y-69088000D03*
%TO.N,/CS1*%
X147421600Y-123444000D03*
X150317200Y-125425200D03*
%TO.N,/SO*%
X148945600Y-118364000D03*
X163677600Y-69037200D03*
X153822400Y-120954800D03*
%TO.N,/CS0*%
X160578800Y-107721400D03*
X162610800Y-68834000D03*
%TD*%
D16*
%TO.N,+3V3*%
X123012200Y-79908400D02*
X126319066Y-83215266D01*
X177266600Y-87680800D02*
X177266600Y-87020400D01*
X177266600Y-74701400D02*
X177266600Y-87680800D01*
X172034200Y-70459600D02*
X172034200Y-68056200D01*
X146659600Y-132543000D02*
X174435200Y-132543000D01*
X177266600Y-111429800D02*
X177266600Y-109670732D01*
X139344400Y-105537000D02*
X145973800Y-98907600D01*
X145973800Y-98907600D02*
X145973800Y-86918800D01*
X175092600Y-131885600D02*
X175092600Y-122656600D01*
X177266600Y-120482600D02*
X177266600Y-111074200D01*
X145973800Y-131857200D02*
X145973800Y-121335800D01*
X175092600Y-121651000D02*
X174599600Y-121158000D01*
X121793000Y-105537000D02*
X139344400Y-105537000D01*
X175092600Y-122656600D02*
X175092600Y-121651000D01*
X177266600Y-87020400D02*
X177266600Y-85281866D01*
X177266600Y-85281866D02*
X175092600Y-83107866D01*
X177266600Y-71450200D02*
X177266600Y-74701400D01*
X145973800Y-61025800D02*
X143774400Y-58826400D01*
X175092600Y-58719000D02*
X175787600Y-58719000D01*
X145973800Y-121335800D02*
X145973800Y-103403400D01*
X141909800Y-121920000D02*
X145389600Y-121920000D01*
X174435200Y-132543000D02*
X175092600Y-131885600D01*
X138633200Y-118643400D02*
X141909800Y-121920000D01*
X177266600Y-109670732D02*
X175092600Y-107496732D01*
X172678800Y-67411600D02*
X173228000Y-67411600D01*
X177266600Y-111074200D02*
X177266600Y-87020400D01*
X145973800Y-105404732D02*
X145973800Y-103403400D01*
X145973800Y-103403400D02*
X145973800Y-98907600D01*
X177266600Y-111429800D02*
X177266600Y-111074200D01*
X172034200Y-68056200D02*
X172678800Y-67411600D01*
X177266600Y-60198000D02*
X177266600Y-74701400D01*
X175787600Y-58719000D02*
X177266600Y-60198000D01*
X144324400Y-132543000D02*
X146659600Y-132543000D01*
X173228000Y-67411600D02*
X177266600Y-71450200D01*
X145389600Y-121920000D02*
X145973800Y-121335800D01*
X146659600Y-132543000D02*
X145973800Y-131857200D01*
X126060200Y-118643400D02*
X138633200Y-118643400D01*
X143774400Y-131993000D02*
X144324400Y-132543000D01*
X145973800Y-86918800D02*
X145973800Y-85414666D01*
X145973800Y-86918800D02*
X145973800Y-61025800D01*
X171323000Y-71170800D02*
X172034200Y-70459600D01*
X143774400Y-107604132D02*
X145973800Y-105404732D01*
X175092600Y-122656600D02*
X177266600Y-120482600D01*
X145973800Y-85414666D02*
X143774400Y-83215266D01*
X126319066Y-83215266D02*
X143774400Y-83215266D01*
D17*
%TO.N,/GP3*%
X132003800Y-123393200D02*
X132003800Y-122377200D01*
X132003800Y-122377200D02*
X130149600Y-120523000D01*
X130149600Y-120523000D02*
X121920000Y-120523000D01*
X121920000Y-120523000D02*
X121310400Y-119913400D01*
%TO.N,/CLK*%
X166192200Y-69443600D02*
X166192200Y-109220000D01*
X149098000Y-117094000D02*
X152019000Y-117094000D01*
X152019000Y-117094000D02*
X154533600Y-119608600D01*
X157353000Y-118059200D02*
X157353000Y-118973600D01*
X166192200Y-109220000D02*
X157353000Y-118059200D01*
X165836600Y-69088000D02*
X166192200Y-69443600D01*
%TO.N,/SI*%
X156210000Y-115874800D02*
X164922200Y-107162600D01*
X153212800Y-122910600D02*
X150012400Y-119710200D01*
X154178000Y-122910600D02*
X156210000Y-120878600D01*
X164922200Y-69215000D02*
X164795200Y-69088000D01*
X156210000Y-120878600D02*
X156210000Y-115874800D01*
X164922200Y-107162600D02*
X164922200Y-69215000D01*
X154178000Y-122910600D02*
X153212800Y-122910600D01*
X150012400Y-119710200D02*
X148844000Y-119710200D01*
%TO.N,/CS1*%
X147421600Y-123444000D02*
X148336000Y-123444000D01*
X148336000Y-123444000D02*
X150317200Y-125425200D01*
%TO.N,/SO*%
X163677600Y-106324400D02*
X163677600Y-69037200D01*
X155422600Y-114579400D02*
X163677600Y-106324400D01*
X153822400Y-120954800D02*
X153314400Y-120954800D01*
X153314400Y-120954800D02*
X150723600Y-118364000D01*
X150723600Y-118364000D02*
X148945600Y-118364000D01*
X154035929Y-120954800D02*
X155422600Y-119568129D01*
X155422600Y-119568129D02*
X155422600Y-114579400D01*
X153822400Y-120954800D02*
X154035929Y-120954800D01*
%TO.N,/CS0*%
X160578800Y-107721400D02*
X162356800Y-105943400D01*
X162356800Y-105943400D02*
X162356800Y-69088000D01*
X162356800Y-69088000D02*
X162610800Y-68834000D01*
%TD*%
%TA.AperFunction,Conductor*%
%TO.N,GND*%
G36*
X145181205Y-110770406D02*
G01*
X145218536Y-110829466D01*
X145223300Y-110863506D01*
X145223300Y-111845672D01*
X145203615Y-111912711D01*
X145150811Y-111958466D01*
X145081653Y-111968410D01*
X145018097Y-111939385D01*
X144995491Y-111913494D01*
X144925586Y-111806497D01*
X144257476Y-112474607D01*
X144233893Y-112394288D01*
X144156161Y-112273334D01*
X144047500Y-112179180D01*
X143916715Y-112119452D01*
X143906932Y-112118045D01*
X144573197Y-111451779D01*
X144573169Y-111451329D01*
X144533056Y-111395591D01*
X144529382Y-111325818D01*
X144564014Y-111265135D01*
X144573855Y-111256606D01*
X144726184Y-111138045D01*
X144883379Y-110967285D01*
X144995491Y-110795685D01*
X145048638Y-110750328D01*
X145117869Y-110740904D01*
X145181205Y-110770406D01*
G37*
%TD.AperFunction*%
%TA.AperFunction,Conductor*%
G36*
X176474004Y-110701883D02*
G01*
X176511336Y-110760943D01*
X176516100Y-110794983D01*
X176516100Y-111699394D01*
X176496415Y-111766433D01*
X176443611Y-111812188D01*
X176374453Y-111822132D01*
X176310897Y-111793107D01*
X176288292Y-111767216D01*
X176243787Y-111699097D01*
X176243786Y-111699097D01*
X175575676Y-112367207D01*
X175552093Y-112286888D01*
X175474361Y-112165934D01*
X175365700Y-112071780D01*
X175234915Y-112012052D01*
X175225132Y-112010645D01*
X175891397Y-111344379D01*
X175891369Y-111343929D01*
X175851256Y-111288191D01*
X175847582Y-111218418D01*
X175882214Y-111157735D01*
X175892055Y-111149206D01*
X176044384Y-111030645D01*
X176201579Y-110859885D01*
X176288291Y-110727161D01*
X176341437Y-110681805D01*
X176410669Y-110672381D01*
X176474004Y-110701883D01*
G37*
%TD.AperFunction*%
%TA.AperFunction,Conductor*%
G36*
X145181205Y-86381540D02*
G01*
X145218536Y-86440600D01*
X145223300Y-86474640D01*
X145223300Y-87456806D01*
X145203615Y-87523845D01*
X145150811Y-87569600D01*
X145081653Y-87579544D01*
X145018097Y-87550519D01*
X144995491Y-87524628D01*
X144925586Y-87417631D01*
X144257476Y-88085741D01*
X144233893Y-88005422D01*
X144156161Y-87884468D01*
X144047500Y-87790314D01*
X143916715Y-87730586D01*
X143906932Y-87729179D01*
X144573197Y-87062913D01*
X144573169Y-87062463D01*
X144533056Y-87006725D01*
X144529382Y-86936952D01*
X144564014Y-86876269D01*
X144573855Y-86867740D01*
X144726184Y-86749179D01*
X144883379Y-86578419D01*
X144995491Y-86406819D01*
X145048638Y-86361462D01*
X145117869Y-86352038D01*
X145181205Y-86381540D01*
G37*
%TD.AperFunction*%
%TA.AperFunction,Conductor*%
G36*
X176474004Y-86313017D02*
G01*
X176511336Y-86372077D01*
X176516100Y-86406117D01*
X176516100Y-87310528D01*
X176496415Y-87377567D01*
X176443611Y-87423322D01*
X176374453Y-87433266D01*
X176310897Y-87404241D01*
X176288292Y-87378350D01*
X176243787Y-87310231D01*
X176243786Y-87310231D01*
X175575676Y-87978341D01*
X175552093Y-87898022D01*
X175474361Y-87777068D01*
X175365700Y-87682914D01*
X175234915Y-87623186D01*
X175225132Y-87621779D01*
X175891397Y-86955513D01*
X175891369Y-86955063D01*
X175851256Y-86899325D01*
X175847582Y-86829552D01*
X175882214Y-86768869D01*
X175892055Y-86760340D01*
X176044384Y-86641779D01*
X176201579Y-86471019D01*
X176288291Y-86338295D01*
X176341437Y-86292939D01*
X176410669Y-86283515D01*
X176474004Y-86313017D01*
G37*
%TD.AperFunction*%
%TA.AperFunction,Conductor*%
G36*
X145181205Y-61992674D02*
G01*
X145218536Y-62051734D01*
X145223300Y-62085774D01*
X145223300Y-63067940D01*
X145203615Y-63134979D01*
X145150811Y-63180734D01*
X145081653Y-63190678D01*
X145018097Y-63161653D01*
X144995491Y-63135762D01*
X144925586Y-63028765D01*
X144257476Y-63696875D01*
X144233893Y-63616556D01*
X144156161Y-63495602D01*
X144047500Y-63401448D01*
X143916715Y-63341720D01*
X143906932Y-63340313D01*
X144573197Y-62674047D01*
X144573169Y-62673597D01*
X144533056Y-62617859D01*
X144529382Y-62548086D01*
X144564014Y-62487403D01*
X144573855Y-62478874D01*
X144726184Y-62360313D01*
X144883379Y-62189553D01*
X144995491Y-62017953D01*
X145048638Y-61972596D01*
X145117869Y-61963172D01*
X145181205Y-61992674D01*
G37*
%TD.AperFunction*%
%TA.AperFunction,Conductor*%
G36*
X176474004Y-61924151D02*
G01*
X176511336Y-61983211D01*
X176516100Y-62017251D01*
X176516100Y-62921662D01*
X176496415Y-62988701D01*
X176443611Y-63034456D01*
X176374453Y-63044400D01*
X176310897Y-63015375D01*
X176288292Y-62989484D01*
X176243787Y-62921365D01*
X176243786Y-62921365D01*
X175575676Y-63589475D01*
X175552093Y-63509156D01*
X175474361Y-63388202D01*
X175365700Y-63294048D01*
X175234915Y-63234320D01*
X175225132Y-63232913D01*
X175891397Y-62566647D01*
X175891369Y-62566197D01*
X175851256Y-62510459D01*
X175847582Y-62440686D01*
X175882214Y-62380003D01*
X175892055Y-62371474D01*
X176044384Y-62252913D01*
X176201579Y-62082153D01*
X176288291Y-61949429D01*
X176341437Y-61904073D01*
X176410669Y-61894649D01*
X176474004Y-61924151D01*
G37*
%TD.AperFunction*%
%TA.AperFunction,Conductor*%
G36*
X193916982Y-50483993D02*
G01*
X193978449Y-50483992D01*
X193987292Y-50484307D01*
X194188468Y-50498693D01*
X194205953Y-50501206D01*
X194398728Y-50543139D01*
X194415673Y-50548115D01*
X194576050Y-50607930D01*
X194600487Y-50617045D01*
X194616578Y-50624392D01*
X194789711Y-50718929D01*
X194804570Y-50728479D01*
X194962489Y-50846695D01*
X194975853Y-50858276D01*
X195115323Y-50997746D01*
X195126905Y-51011111D01*
X195245118Y-51169026D01*
X195254672Y-51183892D01*
X195329817Y-51321512D01*
X195349205Y-51357018D01*
X195356554Y-51373112D01*
X195425481Y-51557918D01*
X195430462Y-51574880D01*
X195472391Y-51767634D01*
X195474907Y-51785138D01*
X195489291Y-51986305D01*
X195489607Y-51995149D01*
X195489607Y-52066605D01*
X195489608Y-52066618D01*
X195489608Y-143922171D01*
X195489607Y-143922189D01*
X195489607Y-143991250D01*
X195489291Y-144000094D01*
X195474907Y-144201261D01*
X195472391Y-144218767D01*
X195430463Y-144411515D01*
X195425481Y-144428481D01*
X195356554Y-144613287D01*
X195349205Y-144629381D01*
X195254677Y-144802499D01*
X195245111Y-144817384D01*
X195126909Y-144975283D01*
X195115323Y-144988653D01*
X194975853Y-145128123D01*
X194962483Y-145139709D01*
X194804579Y-145257913D01*
X194789699Y-145267477D01*
X194616581Y-145362005D01*
X194600487Y-145369354D01*
X194415681Y-145438281D01*
X194398715Y-145443263D01*
X194205967Y-145485191D01*
X194188461Y-145487707D01*
X193987294Y-145502091D01*
X193978450Y-145502407D01*
X193909388Y-145502407D01*
X193909372Y-145502408D01*
X102076828Y-145502408D01*
X102076812Y-145502407D01*
X102007749Y-145502407D01*
X101998905Y-145502091D01*
X101797738Y-145487707D01*
X101780234Y-145485191D01*
X101587480Y-145443262D01*
X101570518Y-145438281D01*
X101385712Y-145369354D01*
X101369618Y-145362005D01*
X101334112Y-145342617D01*
X101196492Y-145267472D01*
X101181626Y-145257918D01*
X101023711Y-145139705D01*
X101010346Y-145128123D01*
X100870876Y-144988653D01*
X100859295Y-144975289D01*
X100741079Y-144817370D01*
X100731529Y-144802511D01*
X100636992Y-144629378D01*
X100629645Y-144613287D01*
X100620530Y-144588850D01*
X100560715Y-144428473D01*
X100555739Y-144411528D01*
X100513806Y-144218753D01*
X100511293Y-144201268D01*
X100496907Y-144000092D01*
X100496592Y-143991248D01*
X100496593Y-143929782D01*
X100496592Y-143929778D01*
X100496592Y-142494000D01*
X101899551Y-142494000D01*
X101919317Y-142745151D01*
X101978126Y-142990110D01*
X102074533Y-143222859D01*
X102206160Y-143437653D01*
X102206161Y-143437656D01*
X102206164Y-143437659D01*
X102369776Y-143629224D01*
X102518066Y-143755875D01*
X102561343Y-143792838D01*
X102561346Y-143792839D01*
X102776140Y-143924466D01*
X102937372Y-143991250D01*
X103008889Y-144020873D01*
X103253852Y-144079683D01*
X103442118Y-144094500D01*
X103442126Y-144094500D01*
X103567874Y-144094500D01*
X103567882Y-144094500D01*
X103756148Y-144079683D01*
X104001111Y-144020873D01*
X104233859Y-143924466D01*
X104448659Y-143792836D01*
X104640224Y-143629224D01*
X104803836Y-143437659D01*
X104935466Y-143222859D01*
X105031873Y-142990111D01*
X105090683Y-142745148D01*
X105110449Y-142494000D01*
X190875751Y-142494000D01*
X190895517Y-142745151D01*
X190954326Y-142990110D01*
X191050733Y-143222859D01*
X191182360Y-143437653D01*
X191182361Y-143437656D01*
X191182364Y-143437659D01*
X191345976Y-143629224D01*
X191494266Y-143755875D01*
X191537543Y-143792838D01*
X191537546Y-143792839D01*
X191752340Y-143924466D01*
X191913572Y-143991250D01*
X191985089Y-144020873D01*
X192230052Y-144079683D01*
X192418318Y-144094500D01*
X192418326Y-144094500D01*
X192544074Y-144094500D01*
X192544082Y-144094500D01*
X192732348Y-144079683D01*
X192977311Y-144020873D01*
X193210059Y-143924466D01*
X193424859Y-143792836D01*
X193616424Y-143629224D01*
X193780036Y-143437659D01*
X193911666Y-143222859D01*
X194008073Y-142990111D01*
X194066883Y-142745148D01*
X194086649Y-142494000D01*
X194066883Y-142242852D01*
X194008073Y-141997889D01*
X193911666Y-141765141D01*
X193911666Y-141765140D01*
X193780039Y-141550346D01*
X193780038Y-141550343D01*
X193743075Y-141507066D01*
X193616424Y-141358776D01*
X193485159Y-141246665D01*
X193424856Y-141195161D01*
X193424853Y-141195160D01*
X193210059Y-141063533D01*
X192977310Y-140967126D01*
X192732351Y-140908317D01*
X192544087Y-140893500D01*
X192544082Y-140893500D01*
X192418318Y-140893500D01*
X192418312Y-140893500D01*
X192230048Y-140908317D01*
X191985089Y-140967126D01*
X191752340Y-141063533D01*
X191537546Y-141195160D01*
X191537543Y-141195161D01*
X191345976Y-141358776D01*
X191182361Y-141550343D01*
X191182360Y-141550346D01*
X191050733Y-141765140D01*
X190954326Y-141997889D01*
X190895517Y-142242848D01*
X190875751Y-142494000D01*
X105110449Y-142494000D01*
X105090683Y-142242852D01*
X105031873Y-141997889D01*
X104935466Y-141765141D01*
X104935466Y-141765140D01*
X104803839Y-141550346D01*
X104803838Y-141550343D01*
X104766875Y-141507066D01*
X104640224Y-141358776D01*
X104508959Y-141246665D01*
X104448656Y-141195161D01*
X104448653Y-141195160D01*
X104233859Y-141063533D01*
X104001110Y-140967126D01*
X103756151Y-140908317D01*
X103567887Y-140893500D01*
X103567882Y-140893500D01*
X103442118Y-140893500D01*
X103442112Y-140893500D01*
X103253848Y-140908317D01*
X103008889Y-140967126D01*
X102776140Y-141063533D01*
X102561346Y-141195160D01*
X102561343Y-141195161D01*
X102369776Y-141358776D01*
X102206161Y-141550343D01*
X102206160Y-141550346D01*
X102074533Y-141765140D01*
X101978126Y-141997889D01*
X101919317Y-142242848D01*
X101899551Y-142494000D01*
X100496592Y-142494000D01*
X100496592Y-138893005D01*
X148268956Y-138893005D01*
X148288710Y-139207004D01*
X148288711Y-139207011D01*
X148347670Y-139516083D01*
X148444897Y-139815316D01*
X148444899Y-139815321D01*
X148578861Y-140100003D01*
X148578864Y-140100009D01*
X148747451Y-140365661D01*
X148747454Y-140365665D01*
X148948006Y-140608090D01*
X148948008Y-140608092D01*
X149177368Y-140823476D01*
X149177378Y-140823484D01*
X149431904Y-141008408D01*
X149431909Y-141008410D01*
X149431916Y-141008416D01*
X149707634Y-141159994D01*
X149707639Y-141159996D01*
X149707641Y-141159997D01*
X149707642Y-141159998D01*
X150000171Y-141275818D01*
X150000174Y-141275819D01*
X150304923Y-141354065D01*
X150304927Y-141354066D01*
X150342211Y-141358776D01*
X150617070Y-141393499D01*
X150617079Y-141393499D01*
X150617082Y-141393500D01*
X150617084Y-141393500D01*
X150931716Y-141393500D01*
X150931718Y-141393500D01*
X150931721Y-141393499D01*
X150931729Y-141393499D01*
X151117993Y-141369968D01*
X151243873Y-141354066D01*
X151548625Y-141275819D01*
X151622255Y-141246667D01*
X151841157Y-141159998D01*
X151841158Y-141159997D01*
X151841156Y-141159997D01*
X151841166Y-141159994D01*
X152116884Y-141008416D01*
X152371430Y-140823478D01*
X152600790Y-140608094D01*
X152801347Y-140365663D01*
X152969937Y-140100007D01*
X153103903Y-139815315D01*
X153201131Y-139516079D01*
X153260088Y-139207015D01*
X153266845Y-139099615D01*
X153279844Y-138893005D01*
X153279844Y-138892994D01*
X153273088Y-138785605D01*
X179587156Y-138785605D01*
X179606910Y-139099604D01*
X179606911Y-139099611D01*
X179665870Y-139408683D01*
X179763097Y-139707916D01*
X179763099Y-139707921D01*
X179897061Y-139992603D01*
X179897064Y-139992609D01*
X180065651Y-140258261D01*
X180065654Y-140258265D01*
X180266206Y-140500690D01*
X180266208Y-140500692D01*
X180495568Y-140716076D01*
X180495578Y-140716084D01*
X180750104Y-140901008D01*
X180750109Y-140901010D01*
X180750116Y-140901016D01*
X181025834Y-141052594D01*
X181025839Y-141052596D01*
X181025841Y-141052597D01*
X181025842Y-141052598D01*
X181318371Y-141168418D01*
X181318374Y-141168419D01*
X181623123Y-141246665D01*
X181623127Y-141246666D01*
X181688610Y-141254938D01*
X181935270Y-141286099D01*
X181935279Y-141286099D01*
X181935282Y-141286100D01*
X181935284Y-141286100D01*
X182249916Y-141286100D01*
X182249918Y-141286100D01*
X182249921Y-141286099D01*
X182249929Y-141286099D01*
X182436193Y-141262568D01*
X182562073Y-141246666D01*
X182866825Y-141168419D01*
X182866828Y-141168418D01*
X183159357Y-141052598D01*
X183159358Y-141052597D01*
X183159356Y-141052597D01*
X183159366Y-141052594D01*
X183435084Y-140901016D01*
X183689630Y-140716078D01*
X183918990Y-140500694D01*
X184119547Y-140258263D01*
X184288137Y-139992607D01*
X184422103Y-139707915D01*
X184519331Y-139408679D01*
X184578288Y-139099615D01*
X184591287Y-138893000D01*
X184598044Y-138785605D01*
X184598044Y-138785594D01*
X184578289Y-138471595D01*
X184578288Y-138471588D01*
X184578288Y-138471585D01*
X184519331Y-138162521D01*
X184422103Y-137863285D01*
X184406391Y-137829896D01*
X184339231Y-137687173D01*
X184288137Y-137578593D01*
X184187703Y-137420334D01*
X184119548Y-137312938D01*
X184119545Y-137312934D01*
X183918993Y-137070509D01*
X183918991Y-137070507D01*
X183913009Y-137064889D01*
X183689630Y-136855122D01*
X183689627Y-136855120D01*
X183689621Y-136855115D01*
X183435095Y-136670191D01*
X183435088Y-136670186D01*
X183435084Y-136670184D01*
X183159366Y-136518606D01*
X183159363Y-136518604D01*
X183159358Y-136518602D01*
X183159357Y-136518601D01*
X182866828Y-136402781D01*
X182866825Y-136402780D01*
X182562076Y-136324534D01*
X182562063Y-136324532D01*
X182249929Y-136285100D01*
X182249918Y-136285100D01*
X181935282Y-136285100D01*
X181935270Y-136285100D01*
X181623136Y-136324532D01*
X181623123Y-136324534D01*
X181318374Y-136402780D01*
X181318371Y-136402781D01*
X181025842Y-136518601D01*
X181025841Y-136518602D01*
X180750116Y-136670184D01*
X180750104Y-136670191D01*
X180495578Y-136855115D01*
X180495568Y-136855123D01*
X180266208Y-137070507D01*
X180266206Y-137070509D01*
X180065654Y-137312934D01*
X180065651Y-137312938D01*
X179897064Y-137578590D01*
X179897061Y-137578596D01*
X179763099Y-137863278D01*
X179763097Y-137863283D01*
X179665870Y-138162516D01*
X179606911Y-138471588D01*
X179606910Y-138471595D01*
X179587156Y-138785594D01*
X179587156Y-138785605D01*
X153273088Y-138785605D01*
X153260089Y-138578995D01*
X153260088Y-138578988D01*
X153260088Y-138578985D01*
X153201131Y-138269921D01*
X153103903Y-137970685D01*
X153089699Y-137940501D01*
X152970492Y-137687173D01*
X152969937Y-137685993D01*
X152801347Y-137420337D01*
X152772610Y-137385600D01*
X152600793Y-137177909D01*
X152600791Y-137177907D01*
X152371431Y-136962523D01*
X152371421Y-136962515D01*
X152116895Y-136777591D01*
X152116888Y-136777586D01*
X152116884Y-136777584D01*
X151841166Y-136626006D01*
X151841163Y-136626004D01*
X151841158Y-136626002D01*
X151841157Y-136626001D01*
X151548628Y-136510181D01*
X151548625Y-136510180D01*
X151243876Y-136431934D01*
X151243863Y-136431932D01*
X150931729Y-136392500D01*
X150931718Y-136392500D01*
X150617082Y-136392500D01*
X150617070Y-136392500D01*
X150304936Y-136431932D01*
X150304923Y-136431934D01*
X150000174Y-136510180D01*
X150000171Y-136510181D01*
X149707642Y-136626001D01*
X149707641Y-136626002D01*
X149431916Y-136777584D01*
X149431904Y-136777591D01*
X149177378Y-136962515D01*
X149177368Y-136962523D01*
X148948008Y-137177907D01*
X148948006Y-137177909D01*
X148747454Y-137420334D01*
X148747451Y-137420338D01*
X148578864Y-137685990D01*
X148578861Y-137685996D01*
X148444899Y-137970678D01*
X148444897Y-137970683D01*
X148347670Y-138269916D01*
X148288711Y-138578988D01*
X148288710Y-138578995D01*
X148268956Y-138892994D01*
X148268956Y-138893005D01*
X100496592Y-138893005D01*
X100496592Y-136652005D01*
X104279194Y-136652005D01*
X104298383Y-136883582D01*
X104298383Y-136883585D01*
X104298384Y-136883586D01*
X104298894Y-136885599D01*
X104355429Y-137108854D01*
X104448775Y-137321662D01*
X104513244Y-137420338D01*
X104575875Y-137516201D01*
X104733261Y-137687168D01*
X104733264Y-137687170D01*
X104733267Y-137687173D01*
X104916632Y-137829892D01*
X104916638Y-137829896D01*
X104916641Y-137829898D01*
X105121012Y-137940499D01*
X105340800Y-138015952D01*
X105570010Y-138054200D01*
X105802390Y-138054200D01*
X106031600Y-138015952D01*
X106251388Y-137940499D01*
X106455759Y-137829898D01*
X106639139Y-137687168D01*
X106796525Y-137516201D01*
X106923625Y-137321661D01*
X107016971Y-137108854D01*
X107074016Y-136883586D01*
X107084109Y-136761781D01*
X107093206Y-136652005D01*
X116779194Y-136652005D01*
X116798383Y-136883582D01*
X116798383Y-136883585D01*
X116798384Y-136883586D01*
X116798894Y-136885599D01*
X116855429Y-137108854D01*
X116948775Y-137321662D01*
X117013244Y-137420338D01*
X117075875Y-137516201D01*
X117233261Y-137687168D01*
X117233264Y-137687170D01*
X117233267Y-137687173D01*
X117416632Y-137829892D01*
X117416638Y-137829896D01*
X117416641Y-137829898D01*
X117621012Y-137940499D01*
X117840800Y-138015952D01*
X118070010Y-138054200D01*
X118302390Y-138054200D01*
X118531600Y-138015952D01*
X118751388Y-137940499D01*
X118955759Y-137829898D01*
X119139139Y-137687168D01*
X119296525Y-137516201D01*
X119423625Y-137321661D01*
X119516971Y-137108854D01*
X119574016Y-136883586D01*
X119584109Y-136761781D01*
X119593206Y-136652005D01*
X119593206Y-136651994D01*
X119577350Y-136460648D01*
X119574016Y-136420414D01*
X119516971Y-136195146D01*
X119423625Y-135982339D01*
X119296525Y-135787799D01*
X119139139Y-135616832D01*
X119139134Y-135616828D01*
X119139132Y-135616826D01*
X118955767Y-135474107D01*
X118955761Y-135474103D01*
X118751388Y-135363501D01*
X118751380Y-135363498D01*
X118531602Y-135288048D01*
X118302390Y-135249800D01*
X118070010Y-135249800D01*
X117840797Y-135288048D01*
X117621019Y-135363498D01*
X117621011Y-135363501D01*
X117416638Y-135474103D01*
X117416632Y-135474107D01*
X117233267Y-135616826D01*
X117233264Y-135616829D01*
X117075876Y-135787797D01*
X117075873Y-135787801D01*
X116948775Y-135982337D01*
X116855429Y-136195145D01*
X116798383Y-136420417D01*
X116779194Y-136651994D01*
X116779194Y-136652005D01*
X107093206Y-136652005D01*
X107093206Y-136651994D01*
X107077350Y-136460648D01*
X107074016Y-136420414D01*
X107016971Y-136195146D01*
X106923625Y-135982339D01*
X106796525Y-135787799D01*
X106639139Y-135616832D01*
X106639134Y-135616828D01*
X106639132Y-135616826D01*
X106455767Y-135474107D01*
X106455761Y-135474103D01*
X106251388Y-135363501D01*
X106251380Y-135363498D01*
X106031602Y-135288048D01*
X105802390Y-135249800D01*
X105570010Y-135249800D01*
X105340797Y-135288048D01*
X105121019Y-135363498D01*
X105121011Y-135363501D01*
X104916638Y-135474103D01*
X104916632Y-135474107D01*
X104733267Y-135616826D01*
X104733264Y-135616829D01*
X104575876Y-135787797D01*
X104575873Y-135787801D01*
X104448775Y-135982337D01*
X104355429Y-136195145D01*
X104298383Y-136420417D01*
X104279194Y-136651994D01*
X104279194Y-136652005D01*
X100496592Y-136652005D01*
X100496592Y-134152006D01*
X120642250Y-134152006D01*
X120661414Y-134383297D01*
X120661416Y-134383308D01*
X120718392Y-134608300D01*
X120811625Y-134820848D01*
X120938566Y-135015147D01*
X120938569Y-135015151D01*
X120938571Y-135015153D01*
X121095766Y-135185913D01*
X121095769Y-135185915D01*
X121095772Y-135185918D01*
X121278915Y-135328464D01*
X121278921Y-135328468D01*
X121278924Y-135328470D01*
X121483047Y-135438936D01*
X121585482Y-135474102D01*
X121702565Y-135514297D01*
X121702567Y-135514297D01*
X121702569Y-135514298D01*
X121931501Y-135552500D01*
X121931502Y-135552500D01*
X122163598Y-135552500D01*
X122163599Y-135552500D01*
X122392531Y-135514298D01*
X122612053Y-135438936D01*
X122816176Y-135328470D01*
X122999334Y-135185913D01*
X123007680Y-135176846D01*
X123067560Y-135140854D01*
X123137399Y-135142949D01*
X123195018Y-135182469D01*
X123215094Y-135217491D01*
X123243753Y-135294330D01*
X123243756Y-135294335D01*
X123330002Y-135409544D01*
X123330005Y-135409547D01*
X123445214Y-135495793D01*
X123445221Y-135495797D01*
X123580067Y-135546091D01*
X123580066Y-135546091D01*
X123584829Y-135546603D01*
X123639677Y-135552500D01*
X125535422Y-135552499D01*
X125595033Y-135546091D01*
X125729881Y-135495796D01*
X125845096Y-135409546D01*
X125931346Y-135294331D01*
X125981641Y-135159483D01*
X125988050Y-135099873D01*
X125988049Y-133204128D01*
X125981641Y-133144517D01*
X125978315Y-133135600D01*
X125931347Y-133009671D01*
X125931343Y-133009664D01*
X125845097Y-132894455D01*
X125845094Y-132894452D01*
X125729885Y-132808206D01*
X125729878Y-132808202D01*
X125595032Y-132757908D01*
X125595033Y-132757908D01*
X125535433Y-132751501D01*
X125535431Y-132751500D01*
X125535423Y-132751500D01*
X125535414Y-132751500D01*
X123639679Y-132751500D01*
X123639673Y-132751501D01*
X123580066Y-132757908D01*
X123445221Y-132808202D01*
X123445214Y-132808206D01*
X123330005Y-132894452D01*
X123330002Y-132894455D01*
X123243756Y-133009664D01*
X123243753Y-133009670D01*
X123215094Y-133086508D01*
X123173222Y-133142441D01*
X123107758Y-133166858D01*
X123039485Y-133152006D01*
X123007685Y-133127158D01*
X122999334Y-133118087D01*
X122999328Y-133118082D01*
X122999327Y-133118081D01*
X122816184Y-132975535D01*
X122816178Y-132975531D01*
X122612054Y-132865064D01*
X122612045Y-132865061D01*
X122392534Y-132789702D01*
X122202000Y-132757908D01*
X122163599Y-132751500D01*
X121931501Y-132751500D01*
X121893100Y-132757908D01*
X121702565Y-132789702D01*
X121483054Y-132865061D01*
X121483045Y-132865064D01*
X121278921Y-132975531D01*
X121278915Y-132975535D01*
X121095772Y-133118081D01*
X121095769Y-133118084D01*
X121095766Y-133118086D01*
X121095766Y-133118087D01*
X121050869Y-133166858D01*
X120938566Y-133288852D01*
X120811625Y-133483151D01*
X120718392Y-133695699D01*
X120661416Y-133920691D01*
X120661414Y-133920702D01*
X120642250Y-134151993D01*
X120642250Y-134152006D01*
X100496592Y-134152006D01*
X100496592Y-132601544D01*
X104284500Y-132601544D01*
X104290901Y-132661072D01*
X104290903Y-132661079D01*
X104341145Y-132795786D01*
X104341149Y-132795793D01*
X104427309Y-132910887D01*
X104427312Y-132910890D01*
X104542406Y-132997050D01*
X104542413Y-132997054D01*
X104677120Y-133047296D01*
X104677127Y-133047298D01*
X104736655Y-133053699D01*
X104736672Y-133053700D01*
X105436200Y-133053700D01*
X105436200Y-132253686D01*
X105445871Y-132259003D01*
X105604376Y-132299700D01*
X105726952Y-132299700D01*
X105848557Y-132284338D01*
X105936200Y-132249637D01*
X105936200Y-133053700D01*
X106635728Y-133053700D01*
X106635744Y-133053699D01*
X106695272Y-133047298D01*
X106695279Y-133047296D01*
X106829986Y-132997054D01*
X106829993Y-132997050D01*
X106945087Y-132910890D01*
X106945090Y-132910887D01*
X107031250Y-132795793D01*
X107031254Y-132795786D01*
X107081496Y-132661079D01*
X107081498Y-132661072D01*
X107087899Y-132601544D01*
X107087900Y-132601527D01*
X107087900Y-131902000D01*
X106284386Y-131902000D01*
X106307095Y-131853741D01*
X106337760Y-131692993D01*
X106335181Y-131652005D01*
X116779194Y-131652005D01*
X116798383Y-131883582D01*
X116798383Y-131883585D01*
X116798384Y-131883586D01*
X116806612Y-131916078D01*
X116855429Y-132108854D01*
X116948775Y-132321662D01*
X117030445Y-132446666D01*
X117075875Y-132516201D01*
X117233261Y-132687168D01*
X117233264Y-132687170D01*
X117233267Y-132687173D01*
X117416632Y-132829892D01*
X117416638Y-132829896D01*
X117416641Y-132829898D01*
X117621012Y-132940499D01*
X117840800Y-133015952D01*
X118070010Y-133054200D01*
X118302390Y-133054200D01*
X118531600Y-133015952D01*
X118751388Y-132940499D01*
X118955759Y-132829898D01*
X119139139Y-132687168D01*
X119296525Y-132516201D01*
X119423625Y-132321661D01*
X119516971Y-132108854D01*
X119574016Y-131883586D01*
X119587358Y-131722575D01*
X119593206Y-131652005D01*
X119593206Y-131651994D01*
X119574016Y-131420417D01*
X119574016Y-131420414D01*
X119516971Y-131195146D01*
X119423625Y-130982339D01*
X119296525Y-130787799D01*
X119139139Y-130616832D01*
X119139134Y-130616828D01*
X119139132Y-130616826D01*
X118955767Y-130474107D01*
X118955761Y-130474103D01*
X118751388Y-130363501D01*
X118751380Y-130363498D01*
X118531602Y-130288048D01*
X118302390Y-130249800D01*
X118070010Y-130249800D01*
X117840797Y-130288048D01*
X117621019Y-130363498D01*
X117621011Y-130363501D01*
X117416638Y-130474103D01*
X117416632Y-130474107D01*
X117233267Y-130616826D01*
X117233264Y-130616829D01*
X117075876Y-130787797D01*
X117075873Y-130787801D01*
X116948775Y-130982337D01*
X116855429Y-131195145D01*
X116798383Y-131420417D01*
X116779194Y-131651994D01*
X116779194Y-131652005D01*
X106335181Y-131652005D01*
X106327484Y-131529668D01*
X106286003Y-131402000D01*
X107087900Y-131402000D01*
X107087900Y-130702472D01*
X107087899Y-130702455D01*
X107081498Y-130642927D01*
X107081496Y-130642920D01*
X107031254Y-130508213D01*
X107031250Y-130508206D01*
X106945090Y-130393112D01*
X106945087Y-130393109D01*
X106829993Y-130306949D01*
X106829986Y-130306945D01*
X106695279Y-130256703D01*
X106695272Y-130256701D01*
X106635744Y-130250300D01*
X105936200Y-130250300D01*
X105936200Y-131050313D01*
X105926529Y-131044997D01*
X105768024Y-131004300D01*
X105645448Y-131004300D01*
X105523843Y-131019662D01*
X105436200Y-131054362D01*
X105436200Y-130250300D01*
X104736655Y-130250300D01*
X104677127Y-130256701D01*
X104677120Y-130256703D01*
X104542413Y-130306945D01*
X104542406Y-130306949D01*
X104427312Y-130393109D01*
X104427309Y-130393112D01*
X104341149Y-130508206D01*
X104341145Y-130508213D01*
X104290903Y-130642920D01*
X104290901Y-130642927D01*
X104284500Y-130702455D01*
X104284500Y-131402000D01*
X105088014Y-131402000D01*
X105065305Y-131450259D01*
X105034640Y-131611007D01*
X105044916Y-131774332D01*
X105086397Y-131902000D01*
X104284500Y-131902000D01*
X104284500Y-132601544D01*
X100496592Y-132601544D01*
X100496592Y-119913403D01*
X120504835Y-119913403D01*
X120525030Y-120092649D01*
X120525031Y-120092654D01*
X120584611Y-120262923D01*
X120640856Y-120352435D01*
X120680584Y-120415662D01*
X120808138Y-120543216D01*
X120960878Y-120639189D01*
X121131145Y-120698768D01*
X121218069Y-120708561D01*
X121282480Y-120735626D01*
X121291865Y-120744100D01*
X121461799Y-120914034D01*
X121472493Y-120926228D01*
X121491717Y-120951281D01*
X121491718Y-120951282D01*
X121613735Y-121044910D01*
X121613734Y-121044910D01*
X121617154Y-121047533D01*
X121617157Y-121047534D01*
X121617159Y-121047536D01*
X121763238Y-121108044D01*
X121919999Y-121128683D01*
X121920000Y-121128683D01*
X121920001Y-121128683D01*
X121951308Y-121124561D01*
X121967494Y-121123500D01*
X129849503Y-121123500D01*
X129916542Y-121143185D01*
X129937184Y-121159819D01*
X131366981Y-122589616D01*
X131400466Y-122650939D01*
X131403300Y-122677297D01*
X131403300Y-122810787D01*
X131383615Y-122877826D01*
X131376250Y-122888096D01*
X131373986Y-122890934D01*
X131278011Y-123043676D01*
X131218431Y-123213945D01*
X131218430Y-123213950D01*
X131198235Y-123393196D01*
X131198235Y-123393203D01*
X131218430Y-123572449D01*
X131218431Y-123572454D01*
X131278011Y-123742723D01*
X131338419Y-123838861D01*
X131373984Y-123895462D01*
X131501538Y-124023016D01*
X131654278Y-124118989D01*
X131799453Y-124169788D01*
X131824545Y-124178568D01*
X131824550Y-124178569D01*
X132003796Y-124198765D01*
X132003800Y-124198765D01*
X132003804Y-124198765D01*
X132183049Y-124178569D01*
X132183052Y-124178568D01*
X132183055Y-124178568D01*
X132353322Y-124118989D01*
X132506062Y-124023016D01*
X132633616Y-123895462D01*
X132729589Y-123742722D01*
X132789168Y-123572455D01*
X132795497Y-123516282D01*
X132809365Y-123393203D01*
X132809365Y-123393196D01*
X132789169Y-123213950D01*
X132789168Y-123213945D01*
X132732838Y-123052964D01*
X132729589Y-123043678D01*
X132633616Y-122890938D01*
X132633614Y-122890936D01*
X132633613Y-122890934D01*
X132631350Y-122888096D01*
X132630459Y-122885915D01*
X132629911Y-122885042D01*
X132630064Y-122884945D01*
X132604944Y-122823409D01*
X132604300Y-122810787D01*
X132604300Y-122424687D01*
X132605361Y-122408501D01*
X132609482Y-122377199D01*
X132609482Y-122377198D01*
X132588844Y-122220439D01*
X132588842Y-122220434D01*
X132528338Y-122074363D01*
X132528336Y-122074359D01*
X132510574Y-122051211D01*
X132510572Y-122051209D01*
X132432081Y-121948917D01*
X132407028Y-121929693D01*
X132394834Y-121918999D01*
X130607799Y-120131964D01*
X130597103Y-120119767D01*
X130577886Y-120094722D01*
X130577883Y-120094720D01*
X130577882Y-120094718D01*
X130452441Y-119998464D01*
X130355049Y-119958123D01*
X130306362Y-119937956D01*
X130306360Y-119937955D01*
X130188961Y-119922500D01*
X130149600Y-119917318D01*
X130118297Y-119921439D01*
X130102113Y-119922500D01*
X122227803Y-119922500D01*
X122160764Y-119902815D01*
X122115009Y-119850011D01*
X122104583Y-119812382D01*
X122095769Y-119734147D01*
X122036189Y-119563878D01*
X121951294Y-119428769D01*
X121940216Y-119411138D01*
X121812662Y-119283584D01*
X121810011Y-119281918D01*
X121659923Y-119187611D01*
X121489654Y-119128031D01*
X121489649Y-119128030D01*
X121310404Y-119107835D01*
X121310396Y-119107835D01*
X121131150Y-119128030D01*
X121131145Y-119128031D01*
X120960876Y-119187611D01*
X120808137Y-119283584D01*
X120680584Y-119411137D01*
X120584611Y-119563876D01*
X120525031Y-119734145D01*
X120525030Y-119734150D01*
X120504835Y-119913396D01*
X120504835Y-119913403D01*
X100496592Y-119913403D01*
X100496592Y-112801405D01*
X104279194Y-112801405D01*
X104298383Y-113032982D01*
X104355429Y-113258254D01*
X104448775Y-113471062D01*
X104565083Y-113649083D01*
X104575875Y-113665601D01*
X104733261Y-113836568D01*
X104733264Y-113836570D01*
X104733267Y-113836573D01*
X104916632Y-113979292D01*
X104916638Y-113979296D01*
X104916641Y-113979298D01*
X105121012Y-114089899D01*
X105340800Y-114165352D01*
X105570010Y-114203600D01*
X105802390Y-114203600D01*
X106031600Y-114165352D01*
X106251388Y-114089899D01*
X106455759Y-113979298D01*
X106639139Y-113836568D01*
X106796525Y-113665601D01*
X106923625Y-113471061D01*
X107016971Y-113258254D01*
X107074016Y-113032986D01*
X107093206Y-112801405D01*
X116779194Y-112801405D01*
X116798383Y-113032982D01*
X116855429Y-113258254D01*
X116948775Y-113471062D01*
X117065083Y-113649083D01*
X117075875Y-113665601D01*
X117233261Y-113836568D01*
X117233264Y-113836570D01*
X117233267Y-113836573D01*
X117416632Y-113979292D01*
X117416638Y-113979296D01*
X117416641Y-113979298D01*
X117621012Y-114089899D01*
X117840800Y-114165352D01*
X118070010Y-114203600D01*
X118302390Y-114203600D01*
X118531600Y-114165352D01*
X118751388Y-114089899D01*
X118955759Y-113979298D01*
X119139139Y-113836568D01*
X119296525Y-113665601D01*
X119423625Y-113471061D01*
X119516971Y-113258254D01*
X119574016Y-113032986D01*
X119593206Y-112801400D01*
X119574016Y-112569814D01*
X119516971Y-112344546D01*
X119423625Y-112131739D01*
X119422314Y-112129733D01*
X119296526Y-111937201D01*
X119296525Y-111937199D01*
X119139139Y-111766232D01*
X119139134Y-111766228D01*
X119139132Y-111766226D01*
X118955767Y-111623507D01*
X118955761Y-111623503D01*
X118751388Y-111512901D01*
X118751380Y-111512898D01*
X118531602Y-111437448D01*
X118302390Y-111399200D01*
X118070010Y-111399200D01*
X117840797Y-111437448D01*
X117621019Y-111512898D01*
X117621011Y-111512901D01*
X117416638Y-111623503D01*
X117416632Y-111623507D01*
X117233267Y-111766226D01*
X117233264Y-111766229D01*
X117075876Y-111937197D01*
X117075873Y-111937201D01*
X116948775Y-112131737D01*
X116855429Y-112344545D01*
X116798383Y-112569817D01*
X116779194Y-112801394D01*
X116779194Y-112801405D01*
X107093206Y-112801405D01*
X107093206Y-112801400D01*
X107074016Y-112569814D01*
X107016971Y-112344546D01*
X106923625Y-112131739D01*
X106922314Y-112129733D01*
X106796526Y-111937201D01*
X106796525Y-111937199D01*
X106639139Y-111766232D01*
X106639134Y-111766228D01*
X106639132Y-111766226D01*
X106455767Y-111623507D01*
X106455761Y-111623503D01*
X106251388Y-111512901D01*
X106251380Y-111512898D01*
X106031602Y-111437448D01*
X105802390Y-111399200D01*
X105570010Y-111399200D01*
X105340797Y-111437448D01*
X105121019Y-111512898D01*
X105121011Y-111512901D01*
X104916638Y-111623503D01*
X104916632Y-111623507D01*
X104733267Y-111766226D01*
X104733264Y-111766229D01*
X104575876Y-111937197D01*
X104575873Y-111937201D01*
X104448775Y-112131737D01*
X104355429Y-112344545D01*
X104298383Y-112569817D01*
X104279194Y-112801394D01*
X104279194Y-112801405D01*
X100496592Y-112801405D01*
X100496592Y-110301406D01*
X120642250Y-110301406D01*
X120661414Y-110532697D01*
X120661416Y-110532708D01*
X120718392Y-110757700D01*
X120811625Y-110970248D01*
X120938566Y-111164547D01*
X120938569Y-111164551D01*
X120938571Y-111164553D01*
X121095766Y-111335313D01*
X121095769Y-111335315D01*
X121095772Y-111335318D01*
X121278915Y-111477864D01*
X121278921Y-111477868D01*
X121278924Y-111477870D01*
X121483047Y-111588336D01*
X121585482Y-111623502D01*
X121702565Y-111663697D01*
X121702567Y-111663697D01*
X121702569Y-111663698D01*
X121931501Y-111701900D01*
X121931502Y-111701900D01*
X122163598Y-111701900D01*
X122163599Y-111701900D01*
X122392531Y-111663698D01*
X122612053Y-111588336D01*
X122816176Y-111477870D01*
X122849782Y-111451714D01*
X122877679Y-111430000D01*
X122999334Y-111335313D01*
X123007680Y-111326246D01*
X123067560Y-111290254D01*
X123137399Y-111292349D01*
X123195018Y-111331869D01*
X123215094Y-111366891D01*
X123243753Y-111443730D01*
X123243756Y-111443735D01*
X123330002Y-111558944D01*
X123330005Y-111558947D01*
X123445214Y-111645193D01*
X123445221Y-111645197D01*
X123580067Y-111695491D01*
X123580066Y-111695491D01*
X123586994Y-111696235D01*
X123639677Y-111701900D01*
X125535422Y-111701899D01*
X125595033Y-111695491D01*
X125729881Y-111645196D01*
X125845096Y-111558946D01*
X125931346Y-111443731D01*
X125981641Y-111308883D01*
X125988050Y-111249273D01*
X125988049Y-109353528D01*
X125981641Y-109293917D01*
X125971783Y-109267487D01*
X125931347Y-109159071D01*
X125931343Y-109159064D01*
X125845097Y-109043855D01*
X125845094Y-109043852D01*
X125729885Y-108957606D01*
X125729878Y-108957602D01*
X125595032Y-108907308D01*
X125595033Y-108907308D01*
X125535433Y-108900901D01*
X125535431Y-108900900D01*
X125535423Y-108900900D01*
X125535414Y-108900900D01*
X123639679Y-108900900D01*
X123639673Y-108900901D01*
X123580066Y-108907308D01*
X123445221Y-108957602D01*
X123445214Y-108957606D01*
X123330005Y-109043852D01*
X123330002Y-109043855D01*
X123243756Y-109159064D01*
X123243753Y-109159070D01*
X123215094Y-109235908D01*
X123173222Y-109291841D01*
X123107758Y-109316258D01*
X123039485Y-109301406D01*
X123007685Y-109276558D01*
X122999334Y-109267487D01*
X122999328Y-109267482D01*
X122999327Y-109267481D01*
X122816184Y-109124935D01*
X122816178Y-109124931D01*
X122612054Y-109014464D01*
X122612045Y-109014461D01*
X122392534Y-108939102D01*
X122202000Y-108907308D01*
X122163599Y-108900900D01*
X121931501Y-108900900D01*
X121893100Y-108907308D01*
X121702565Y-108939102D01*
X121483054Y-109014461D01*
X121483045Y-109014464D01*
X121278921Y-109124931D01*
X121278915Y-109124935D01*
X121095772Y-109267481D01*
X121095769Y-109267484D01*
X121095766Y-109267486D01*
X121095766Y-109267487D01*
X121050869Y-109316258D01*
X120938566Y-109438252D01*
X120811625Y-109632551D01*
X120718392Y-109845099D01*
X120661416Y-110070091D01*
X120661414Y-110070102D01*
X120642250Y-110301393D01*
X120642250Y-110301406D01*
X100496592Y-110301406D01*
X100496592Y-108750944D01*
X104284500Y-108750944D01*
X104290901Y-108810472D01*
X104290903Y-108810479D01*
X104341145Y-108945186D01*
X104341149Y-108945193D01*
X104427309Y-109060287D01*
X104427312Y-109060290D01*
X104542406Y-109146450D01*
X104542413Y-109146454D01*
X104677120Y-109196696D01*
X104677127Y-109196698D01*
X104736655Y-109203099D01*
X104736672Y-109203100D01*
X105436200Y-109203100D01*
X105436200Y-108403086D01*
X105445871Y-108408403D01*
X105604376Y-108449100D01*
X105726952Y-108449100D01*
X105848557Y-108433738D01*
X105936200Y-108399037D01*
X105936200Y-109203100D01*
X106635728Y-109203100D01*
X106635744Y-109203099D01*
X106695272Y-109196698D01*
X106695279Y-109196696D01*
X106829986Y-109146454D01*
X106829993Y-109146450D01*
X106945087Y-109060290D01*
X106945090Y-109060287D01*
X107031250Y-108945193D01*
X107031254Y-108945186D01*
X107081496Y-108810479D01*
X107081498Y-108810472D01*
X107087899Y-108750944D01*
X107087900Y-108750927D01*
X107087900Y-108051400D01*
X106284386Y-108051400D01*
X106307095Y-108003141D01*
X106337760Y-107842393D01*
X106335181Y-107801405D01*
X116779194Y-107801405D01*
X116798383Y-108032982D01*
X116855429Y-108258254D01*
X116948775Y-108471062D01*
X116997862Y-108546194D01*
X117075875Y-108665601D01*
X117233261Y-108836568D01*
X117233264Y-108836570D01*
X117233267Y-108836573D01*
X117416632Y-108979292D01*
X117416638Y-108979296D01*
X117416641Y-108979298D01*
X117621012Y-109089899D01*
X117840800Y-109165352D01*
X118070010Y-109203600D01*
X118302390Y-109203600D01*
X118531600Y-109165352D01*
X118751388Y-109089899D01*
X118955759Y-108979298D01*
X119139139Y-108836568D01*
X119296525Y-108665601D01*
X119423625Y-108471061D01*
X119516971Y-108258254D01*
X119574016Y-108032986D01*
X119584981Y-107900655D01*
X119593206Y-107801405D01*
X119593206Y-107801394D01*
X119578241Y-107620797D01*
X119574016Y-107569814D01*
X119516971Y-107344546D01*
X119423625Y-107131739D01*
X119382893Y-107069395D01*
X119334687Y-106995610D01*
X119296525Y-106937199D01*
X119139139Y-106766232D01*
X119139134Y-106766228D01*
X119139132Y-106766226D01*
X118955767Y-106623507D01*
X118955761Y-106623503D01*
X118751388Y-106512901D01*
X118751380Y-106512898D01*
X118531602Y-106437448D01*
X118302390Y-106399200D01*
X118070010Y-106399200D01*
X117840797Y-106437448D01*
X117621019Y-106512898D01*
X117621011Y-106512901D01*
X117416638Y-106623503D01*
X117416632Y-106623507D01*
X117233267Y-106766226D01*
X117233264Y-106766229D01*
X117075876Y-106937197D01*
X117075873Y-106937201D01*
X116948775Y-107131737D01*
X116855429Y-107344545D01*
X116798383Y-107569817D01*
X116779194Y-107801394D01*
X116779194Y-107801405D01*
X106335181Y-107801405D01*
X106327484Y-107679068D01*
X106286003Y-107551400D01*
X107087900Y-107551400D01*
X107087900Y-106851872D01*
X107087899Y-106851855D01*
X107081498Y-106792327D01*
X107081496Y-106792320D01*
X107031254Y-106657613D01*
X107031250Y-106657606D01*
X106945090Y-106542512D01*
X106945087Y-106542509D01*
X106829993Y-106456349D01*
X106829986Y-106456345D01*
X106695279Y-106406103D01*
X106695272Y-106406101D01*
X106635744Y-106399700D01*
X105936200Y-106399700D01*
X105936200Y-107199713D01*
X105926529Y-107194397D01*
X105768024Y-107153700D01*
X105645448Y-107153700D01*
X105523843Y-107169062D01*
X105436200Y-107203762D01*
X105436200Y-106399700D01*
X104736655Y-106399700D01*
X104677127Y-106406101D01*
X104677120Y-106406103D01*
X104542413Y-106456345D01*
X104542406Y-106456349D01*
X104427312Y-106542509D01*
X104427309Y-106542512D01*
X104341149Y-106657606D01*
X104341145Y-106657613D01*
X104290903Y-106792320D01*
X104290901Y-106792327D01*
X104284500Y-106851855D01*
X104284500Y-107551400D01*
X105088014Y-107551400D01*
X105065305Y-107599659D01*
X105034640Y-107760407D01*
X105044916Y-107923732D01*
X105086397Y-108051400D01*
X104284500Y-108051400D01*
X104284500Y-108750944D01*
X100496592Y-108750944D01*
X100496592Y-105537003D01*
X120987435Y-105537003D01*
X121007630Y-105716249D01*
X121007631Y-105716254D01*
X121067211Y-105886523D01*
X121163184Y-106039262D01*
X121290738Y-106166816D01*
X121443478Y-106262789D01*
X121533983Y-106294458D01*
X121613745Y-106322368D01*
X121613750Y-106322369D01*
X121792996Y-106342565D01*
X121793000Y-106342565D01*
X121793004Y-106342565D01*
X121972249Y-106322369D01*
X121972252Y-106322368D01*
X121972255Y-106322368D01*
X122052017Y-106294457D01*
X122092972Y-106287500D01*
X139280695Y-106287500D01*
X139298665Y-106288809D01*
X139322423Y-106292289D01*
X139371769Y-106287971D01*
X139382576Y-106287500D01*
X139388104Y-106287500D01*
X139388109Y-106287500D01*
X139418956Y-106283893D01*
X139422430Y-106283539D01*
X139497197Y-106276999D01*
X139497205Y-106276996D01*
X139504266Y-106275539D01*
X139504278Y-106275598D01*
X139511643Y-106273965D01*
X139511629Y-106273906D01*
X139518649Y-106272241D01*
X139518655Y-106272241D01*
X139589179Y-106246572D01*
X139592517Y-106245412D01*
X139663734Y-106221814D01*
X139663742Y-106221808D01*
X139670282Y-106218760D01*
X139670308Y-106218816D01*
X139677090Y-106215532D01*
X139677063Y-106215478D01*
X139683513Y-106212238D01*
X139683517Y-106212237D01*
X139746237Y-106170984D01*
X139749132Y-106169140D01*
X139813056Y-106129712D01*
X139813062Y-106129705D01*
X139818725Y-106125229D01*
X139818762Y-106125277D01*
X139824604Y-106120518D01*
X139824564Y-106120471D01*
X139830086Y-106115835D01*
X139830096Y-106115830D01*
X139881585Y-106061253D01*
X139884032Y-106058734D01*
X145011619Y-100931148D01*
X145072942Y-100897663D01*
X145142634Y-100902647D01*
X145198567Y-100944519D01*
X145222984Y-101009983D01*
X145223300Y-101018829D01*
X145223300Y-105042501D01*
X145203615Y-105109540D01*
X145186981Y-105130182D01*
X144126762Y-106190400D01*
X144065439Y-106223885D01*
X144018672Y-106225028D01*
X143890449Y-106203632D01*
X143658351Y-106203632D01*
X143621430Y-106209793D01*
X143429415Y-106241834D01*
X143209904Y-106317193D01*
X143209895Y-106317196D01*
X143005771Y-106427663D01*
X143005765Y-106427667D01*
X142822622Y-106570213D01*
X142822619Y-106570216D01*
X142665416Y-106740984D01*
X142538475Y-106935283D01*
X142445242Y-107147831D01*
X142388266Y-107372823D01*
X142388264Y-107372834D01*
X142369100Y-107604125D01*
X142369100Y-107604138D01*
X142388264Y-107835429D01*
X142388266Y-107835440D01*
X142445242Y-108060432D01*
X142538475Y-108272980D01*
X142665416Y-108467279D01*
X142665419Y-108467283D01*
X142665421Y-108467285D01*
X142822616Y-108638045D01*
X142822619Y-108638047D01*
X142822622Y-108638050D01*
X142974522Y-108756279D01*
X143015335Y-108812989D01*
X143019010Y-108882762D01*
X142984378Y-108943445D01*
X142974522Y-108951985D01*
X142822622Y-109070213D01*
X142822619Y-109070216D01*
X142822616Y-109070218D01*
X142822616Y-109070219D01*
X142804498Y-109089901D01*
X142665416Y-109240984D01*
X142538475Y-109435283D01*
X142445242Y-109647831D01*
X142388266Y-109872823D01*
X142388264Y-109872834D01*
X142369100Y-110104125D01*
X142369100Y-110104138D01*
X142388264Y-110335429D01*
X142388266Y-110335440D01*
X142445242Y-110560432D01*
X142538475Y-110772980D01*
X142665416Y-110967279D01*
X142665419Y-110967283D01*
X142665421Y-110967285D01*
X142822616Y-111138045D01*
X142822619Y-111138047D01*
X142822622Y-111138050D01*
X142974928Y-111256595D01*
X143015741Y-111313305D01*
X143019416Y-111383078D01*
X142984784Y-111443761D01*
X142975605Y-111451714D01*
X142975600Y-111451779D01*
X143641867Y-112118045D01*
X143632085Y-112119452D01*
X143501300Y-112179180D01*
X143392639Y-112273334D01*
X143314907Y-112394288D01*
X143291322Y-112474608D01*
X142623211Y-111806497D01*
X142538916Y-111935522D01*
X142445717Y-112147996D01*
X142388761Y-112372913D01*
X142369602Y-112604126D01*
X142369602Y-112604137D01*
X142388761Y-112835350D01*
X142445717Y-113060267D01*
X142538915Y-113272738D01*
X142623212Y-113401765D01*
X143291322Y-112733655D01*
X143314907Y-112813976D01*
X143392639Y-112934930D01*
X143501300Y-113029084D01*
X143632085Y-113088812D01*
X143641866Y-113090218D01*
X142975601Y-113756483D01*
X143006049Y-113780182D01*
X143210097Y-113890608D01*
X143210106Y-113890611D01*
X143429539Y-113965943D01*
X143658393Y-114004132D01*
X143890407Y-114004132D01*
X144119260Y-113965943D01*
X144338693Y-113890611D01*
X144338701Y-113890608D01*
X144542755Y-113780179D01*
X144573197Y-113756483D01*
X144573198Y-113756482D01*
X143906934Y-113090218D01*
X143916715Y-113088812D01*
X144047500Y-113029084D01*
X144156161Y-112934930D01*
X144233893Y-112813976D01*
X144257476Y-112733655D01*
X144925586Y-113401765D01*
X144995492Y-113294769D01*
X145048638Y-113249412D01*
X145117870Y-113239989D01*
X145181205Y-113269492D01*
X145218537Y-113328552D01*
X145223300Y-113362591D01*
X145223300Y-120973570D01*
X145203615Y-121040609D01*
X145186981Y-121061251D01*
X145115051Y-121133181D01*
X145053728Y-121166666D01*
X145027370Y-121169500D01*
X142272030Y-121169500D01*
X142204991Y-121149815D01*
X142184349Y-121133181D01*
X139208929Y-118157761D01*
X139197149Y-118144130D01*
X139182810Y-118124870D01*
X139144851Y-118093019D01*
X139136886Y-118085718D01*
X139132980Y-118081811D01*
X139108643Y-118062568D01*
X139105847Y-118060290D01*
X139048414Y-118012098D01*
X139042380Y-118008129D01*
X139042412Y-118008080D01*
X139036053Y-118004028D01*
X139036022Y-118004079D01*
X139029880Y-118000291D01*
X139029878Y-118000290D01*
X139029877Y-118000289D01*
X138961888Y-117968584D01*
X138958647Y-117967015D01*
X138927730Y-117951488D01*
X138891633Y-117933360D01*
X138891631Y-117933359D01*
X138891630Y-117933359D01*
X138884845Y-117930889D01*
X138884865Y-117930833D01*
X138877749Y-117928359D01*
X138877731Y-117928415D01*
X138870874Y-117926143D01*
X138797410Y-117910973D01*
X138793893Y-117910193D01*
X138720918Y-117892899D01*
X138713747Y-117892061D01*
X138713753Y-117892001D01*
X138706255Y-117891235D01*
X138706250Y-117891295D01*
X138699060Y-117890665D01*
X138624070Y-117892848D01*
X138620463Y-117892900D01*
X126360172Y-117892900D01*
X126319217Y-117885942D01*
X126239454Y-117858031D01*
X126239449Y-117858030D01*
X126060204Y-117837835D01*
X126060196Y-117837835D01*
X125880950Y-117858030D01*
X125880945Y-117858031D01*
X125710676Y-117917611D01*
X125557937Y-118013584D01*
X125430384Y-118141137D01*
X125334411Y-118293876D01*
X125274831Y-118464145D01*
X125274830Y-118464150D01*
X125254635Y-118643396D01*
X125254635Y-118643403D01*
X125274830Y-118822649D01*
X125274831Y-118822654D01*
X125334411Y-118992923D01*
X125417499Y-119125156D01*
X125430384Y-119145662D01*
X125557938Y-119273216D01*
X125648280Y-119329982D01*
X125697129Y-119360676D01*
X125710678Y-119369189D01*
X125880945Y-119428768D01*
X125880950Y-119428769D01*
X126060196Y-119448965D01*
X126060200Y-119448965D01*
X126060204Y-119448965D01*
X126239449Y-119428769D01*
X126239452Y-119428768D01*
X126239455Y-119428768D01*
X126319217Y-119400857D01*
X126360172Y-119393900D01*
X138270970Y-119393900D01*
X138338009Y-119413585D01*
X138358651Y-119430219D01*
X141156492Y-122228059D01*
X141179158Y-122264125D01*
X141180988Y-122263244D01*
X141184009Y-122269518D01*
X141184011Y-122269522D01*
X141279984Y-122422262D01*
X141407538Y-122549816D01*
X141497880Y-122606582D01*
X141528680Y-122625935D01*
X141560278Y-122645789D01*
X141730545Y-122705368D01*
X141730550Y-122705369D01*
X141909796Y-122725565D01*
X141909800Y-122725565D01*
X141909804Y-122725565D01*
X142089049Y-122705369D01*
X142089052Y-122705368D01*
X142089055Y-122705368D01*
X142168817Y-122677457D01*
X142209772Y-122670500D01*
X145099300Y-122670500D01*
X145166339Y-122690185D01*
X145212094Y-122742989D01*
X145223300Y-122794500D01*
X145223300Y-131233625D01*
X145203615Y-131300664D01*
X145150811Y-131346419D01*
X145081653Y-131356363D01*
X145018097Y-131327338D01*
X144995491Y-131301447D01*
X144883381Y-131129850D01*
X144883380Y-131129849D01*
X144883379Y-131129847D01*
X144726184Y-130959087D01*
X144726179Y-130959083D01*
X144726177Y-130959081D01*
X144543034Y-130816535D01*
X144543028Y-130816531D01*
X144338904Y-130706064D01*
X144338895Y-130706061D01*
X144119384Y-130630702D01*
X143947682Y-130602050D01*
X143890449Y-130592500D01*
X143658351Y-130592500D01*
X143612564Y-130600140D01*
X143429415Y-130630702D01*
X143209904Y-130706061D01*
X143209895Y-130706064D01*
X143005771Y-130816531D01*
X143005765Y-130816535D01*
X142822622Y-130959081D01*
X142822619Y-130959084D01*
X142665416Y-131129852D01*
X142538475Y-131324151D01*
X142445242Y-131536699D01*
X142388266Y-131761691D01*
X142388264Y-131761702D01*
X142369100Y-131992993D01*
X142369100Y-131993006D01*
X142388264Y-132224297D01*
X142388266Y-132224308D01*
X142445242Y-132449300D01*
X142538475Y-132661848D01*
X142665416Y-132856147D01*
X142665419Y-132856151D01*
X142665421Y-132856153D01*
X142822616Y-133026913D01*
X142822619Y-133026915D01*
X142822622Y-133026918D01*
X142974522Y-133145147D01*
X143015335Y-133201857D01*
X143019010Y-133271630D01*
X142984378Y-133332313D01*
X142974522Y-133340853D01*
X142822622Y-133459081D01*
X142822619Y-133459084D01*
X142665416Y-133629852D01*
X142538475Y-133824151D01*
X142445242Y-134036699D01*
X142388266Y-134261691D01*
X142388264Y-134261702D01*
X142369100Y-134492993D01*
X142369100Y-134493006D01*
X142388264Y-134724297D01*
X142388266Y-134724308D01*
X142445242Y-134949300D01*
X142538475Y-135161848D01*
X142665416Y-135356147D01*
X142665419Y-135356151D01*
X142665421Y-135356153D01*
X142822616Y-135526913D01*
X142822619Y-135526915D01*
X142822622Y-135526918D01*
X142974928Y-135645463D01*
X143015741Y-135702173D01*
X143019416Y-135771946D01*
X142984784Y-135832629D01*
X142975605Y-135840582D01*
X142975600Y-135840647D01*
X143641867Y-136506913D01*
X143632085Y-136508320D01*
X143501300Y-136568048D01*
X143392639Y-136662202D01*
X143314907Y-136783156D01*
X143291322Y-136863476D01*
X142623211Y-136195365D01*
X142538916Y-136324390D01*
X142445717Y-136536864D01*
X142388761Y-136761781D01*
X142369602Y-136992994D01*
X142369602Y-136993005D01*
X142388761Y-137224218D01*
X142445717Y-137449135D01*
X142538915Y-137661606D01*
X142623212Y-137790633D01*
X143291322Y-137122523D01*
X143314907Y-137202844D01*
X143392639Y-137323798D01*
X143501300Y-137417952D01*
X143632085Y-137477680D01*
X143641866Y-137479086D01*
X142975601Y-138145351D01*
X143006049Y-138169050D01*
X143210097Y-138279476D01*
X143210106Y-138279479D01*
X143429539Y-138354811D01*
X143658393Y-138393000D01*
X143890407Y-138393000D01*
X144119260Y-138354811D01*
X144338693Y-138279479D01*
X144338701Y-138279476D01*
X144542755Y-138169047D01*
X144573197Y-138145351D01*
X144573198Y-138145350D01*
X143906934Y-137479086D01*
X143916715Y-137477680D01*
X144047500Y-137417952D01*
X144156161Y-137323798D01*
X144233893Y-137202844D01*
X144257476Y-137122523D01*
X144925586Y-137790633D01*
X145009882Y-137661611D01*
X145103082Y-137449135D01*
X145160038Y-137224218D01*
X145179198Y-136993005D01*
X145179198Y-136992994D01*
X145160038Y-136761781D01*
X145103082Y-136536864D01*
X145009884Y-136324393D01*
X144925586Y-136195365D01*
X144257476Y-136863475D01*
X144233893Y-136783156D01*
X144156161Y-136662202D01*
X144047500Y-136568048D01*
X143916715Y-136508320D01*
X143906932Y-136506913D01*
X144573197Y-135840647D01*
X144573169Y-135840197D01*
X144533056Y-135784459D01*
X144529382Y-135714686D01*
X144564014Y-135654003D01*
X144573855Y-135645474D01*
X144726184Y-135526913D01*
X144883379Y-135356153D01*
X145010324Y-135161849D01*
X145103557Y-134949300D01*
X145160534Y-134724305D01*
X145169433Y-134616908D01*
X145179700Y-134493006D01*
X145179700Y-134492993D01*
X145160535Y-134261702D01*
X145160533Y-134261691D01*
X145103557Y-134036699D01*
X145010324Y-133824151D01*
X144883383Y-133629852D01*
X144883380Y-133629849D01*
X144883379Y-133629847D01*
X144765209Y-133501480D01*
X144734289Y-133438828D01*
X144742149Y-133369402D01*
X144786297Y-133315247D01*
X144852714Y-133293556D01*
X144856441Y-133293500D01*
X146570256Y-133293500D01*
X146586545Y-133295164D01*
X146586551Y-133295105D01*
X146593740Y-133295734D01*
X146593744Y-133295733D01*
X146593745Y-133295734D01*
X146668731Y-133293552D01*
X146672338Y-133293500D01*
X173911691Y-133293500D01*
X173978730Y-133313185D01*
X174024485Y-133365989D01*
X174034429Y-133435147D01*
X174005404Y-133498703D01*
X174002965Y-133501433D01*
X173983621Y-133522447D01*
X173983619Y-133522448D01*
X173983616Y-133522453D01*
X173856675Y-133716751D01*
X173763442Y-133929299D01*
X173706466Y-134154291D01*
X173706464Y-134154302D01*
X173687300Y-134385593D01*
X173687300Y-134385606D01*
X173706464Y-134616897D01*
X173706466Y-134616908D01*
X173763442Y-134841900D01*
X173856675Y-135054448D01*
X173983616Y-135248747D01*
X173983619Y-135248751D01*
X173983621Y-135248753D01*
X174140816Y-135419513D01*
X174140819Y-135419515D01*
X174140822Y-135419518D01*
X174293128Y-135538063D01*
X174333941Y-135594773D01*
X174337616Y-135664546D01*
X174302984Y-135725229D01*
X174293805Y-135733182D01*
X174293800Y-135733247D01*
X174960067Y-136399513D01*
X174950285Y-136400920D01*
X174819500Y-136460648D01*
X174710839Y-136554802D01*
X174633107Y-136675756D01*
X174609522Y-136756076D01*
X173941411Y-136087965D01*
X173857116Y-136216990D01*
X173763917Y-136429464D01*
X173706961Y-136654381D01*
X173687802Y-136885594D01*
X173687802Y-136885605D01*
X173706961Y-137116818D01*
X173763917Y-137341735D01*
X173857115Y-137554206D01*
X173941412Y-137683233D01*
X174609522Y-137015123D01*
X174633107Y-137095444D01*
X174710839Y-137216398D01*
X174819500Y-137310552D01*
X174950285Y-137370280D01*
X174960066Y-137371686D01*
X174293801Y-138037951D01*
X174324249Y-138061650D01*
X174528297Y-138172076D01*
X174528306Y-138172079D01*
X174747739Y-138247411D01*
X174976593Y-138285600D01*
X175208607Y-138285600D01*
X175437460Y-138247411D01*
X175656893Y-138172079D01*
X175656901Y-138172076D01*
X175860955Y-138061647D01*
X175891397Y-138037951D01*
X175891398Y-138037950D01*
X175225134Y-137371686D01*
X175234915Y-137370280D01*
X175365700Y-137310552D01*
X175474361Y-137216398D01*
X175552093Y-137095444D01*
X175575676Y-137015123D01*
X176243786Y-137683233D01*
X176328082Y-137554211D01*
X176421282Y-137341735D01*
X176478238Y-137116818D01*
X176497398Y-136885605D01*
X176497398Y-136885594D01*
X176478238Y-136654381D01*
X176421282Y-136429464D01*
X176328084Y-136216993D01*
X176243786Y-136087965D01*
X175575676Y-136756075D01*
X175552093Y-136675756D01*
X175474361Y-136554802D01*
X175365700Y-136460648D01*
X175234915Y-136400920D01*
X175225132Y-136399513D01*
X175891397Y-135733247D01*
X175891369Y-135732797D01*
X175851256Y-135677059D01*
X175847582Y-135607286D01*
X175882214Y-135546603D01*
X175892055Y-135538074D01*
X176044384Y-135419513D01*
X176201579Y-135248753D01*
X176328524Y-135054449D01*
X176421757Y-134841900D01*
X176478734Y-134616905D01*
X176479447Y-134608300D01*
X176497900Y-134385606D01*
X176497900Y-134385593D01*
X176478735Y-134154302D01*
X176478733Y-134154291D01*
X176421757Y-133929299D01*
X176328524Y-133716751D01*
X176201583Y-133522452D01*
X176201580Y-133522449D01*
X176201579Y-133522447D01*
X176044384Y-133351687D01*
X175892476Y-133233452D01*
X175851664Y-133176743D01*
X175847989Y-133106970D01*
X175882620Y-133046287D01*
X175892471Y-133037750D01*
X176044384Y-132919513D01*
X176201579Y-132748753D01*
X176328524Y-132554449D01*
X176421757Y-132341900D01*
X176478734Y-132116905D01*
X176480051Y-132101015D01*
X176497900Y-131885606D01*
X176497900Y-131885593D01*
X176478735Y-131654302D01*
X176478733Y-131654291D01*
X176421757Y-131429299D01*
X176328524Y-131216751D01*
X176201583Y-131022452D01*
X176201580Y-131022449D01*
X176201579Y-131022447D01*
X176044384Y-130851687D01*
X175962303Y-130787801D01*
X175890937Y-130732254D01*
X175850124Y-130675544D01*
X175843100Y-130634401D01*
X175843100Y-129985605D01*
X179587156Y-129985605D01*
X179606910Y-130299604D01*
X179606911Y-130299611D01*
X179665870Y-130608683D01*
X179763097Y-130907916D01*
X179763099Y-130907921D01*
X179897061Y-131192603D01*
X179897064Y-131192609D01*
X180065651Y-131458261D01*
X180065654Y-131458265D01*
X180266206Y-131700690D01*
X180266208Y-131700692D01*
X180266210Y-131700694D01*
X180480579Y-131902000D01*
X180495568Y-131916076D01*
X180495578Y-131916084D01*
X180750104Y-132101008D01*
X180750109Y-132101010D01*
X180750116Y-132101016D01*
X181025834Y-132252594D01*
X181025839Y-132252596D01*
X181025841Y-132252597D01*
X181025842Y-132252598D01*
X181318371Y-132368418D01*
X181318374Y-132368419D01*
X181623123Y-132446665D01*
X181623127Y-132446666D01*
X181688610Y-132454938D01*
X181935270Y-132486099D01*
X181935279Y-132486099D01*
X181935282Y-132486100D01*
X181935284Y-132486100D01*
X182249916Y-132486100D01*
X182249918Y-132486100D01*
X182249921Y-132486099D01*
X182249929Y-132486099D01*
X182436193Y-132462568D01*
X182562073Y-132446666D01*
X182866825Y-132368419D01*
X182866828Y-132368418D01*
X183159357Y-132252598D01*
X183159358Y-132252597D01*
X183159356Y-132252597D01*
X183159366Y-132252594D01*
X183435084Y-132101016D01*
X183689630Y-131916078D01*
X183918990Y-131700694D01*
X184119547Y-131458263D01*
X184288137Y-131192607D01*
X184422103Y-130907915D01*
X184519331Y-130608679D01*
X184578288Y-130299615D01*
X184591287Y-130093000D01*
X184598044Y-129985605D01*
X184598044Y-129985594D01*
X184578289Y-129671595D01*
X184578288Y-129671588D01*
X184578288Y-129671585D01*
X184519331Y-129362521D01*
X184422103Y-129063285D01*
X184288137Y-128778593D01*
X184119547Y-128512937D01*
X184007842Y-128377909D01*
X183918993Y-128270509D01*
X183918991Y-128270507D01*
X183689631Y-128055123D01*
X183689621Y-128055115D01*
X183435095Y-127870191D01*
X183435088Y-127870186D01*
X183435084Y-127870184D01*
X183159366Y-127718606D01*
X183159363Y-127718604D01*
X183159358Y-127718602D01*
X183159357Y-127718601D01*
X182866828Y-127602781D01*
X182866825Y-127602780D01*
X182562076Y-127524534D01*
X182562063Y-127524532D01*
X182249929Y-127485100D01*
X182249918Y-127485100D01*
X181935282Y-127485100D01*
X181935270Y-127485100D01*
X181623136Y-127524532D01*
X181623123Y-127524534D01*
X181318374Y-127602780D01*
X181318371Y-127602781D01*
X181025842Y-127718601D01*
X181025841Y-127718602D01*
X180750116Y-127870184D01*
X180750104Y-127870191D01*
X180495578Y-128055115D01*
X180495568Y-128055123D01*
X180266208Y-128270507D01*
X180266206Y-128270509D01*
X180065654Y-128512934D01*
X180065651Y-128512938D01*
X179897064Y-128778590D01*
X179897061Y-128778596D01*
X179763099Y-129063278D01*
X179763097Y-129063283D01*
X179665870Y-129362516D01*
X179606911Y-129671588D01*
X179606910Y-129671595D01*
X179587156Y-129985594D01*
X179587156Y-129985605D01*
X175843100Y-129985605D01*
X175843100Y-123018828D01*
X175862785Y-122951789D01*
X175879414Y-122931152D01*
X177752238Y-121058327D01*
X177765867Y-121046550D01*
X177768073Y-121044908D01*
X177785130Y-121032210D01*
X177795830Y-121019457D01*
X177816966Y-120994269D01*
X177824283Y-120986284D01*
X177825593Y-120984972D01*
X177828190Y-120982377D01*
X177831062Y-120978745D01*
X177847411Y-120958067D01*
X177849694Y-120955264D01*
X177853036Y-120951282D01*
X177897902Y-120897814D01*
X177897903Y-120897811D01*
X177901872Y-120891779D01*
X177901923Y-120891812D01*
X177905969Y-120885460D01*
X177905917Y-120885428D01*
X177909705Y-120879283D01*
X177909711Y-120879277D01*
X177941429Y-120811255D01*
X177942969Y-120808076D01*
X177976640Y-120741033D01*
X177976643Y-120741017D01*
X177979110Y-120734244D01*
X177979168Y-120734265D01*
X177981643Y-120727146D01*
X177981585Y-120727127D01*
X177983855Y-120720277D01*
X177988296Y-120698767D01*
X177999031Y-120646771D01*
X177999786Y-120643367D01*
X178017100Y-120570321D01*
X178017100Y-120570319D01*
X178017101Y-120570315D01*
X178017939Y-120563148D01*
X178017997Y-120563154D01*
X178018764Y-120555656D01*
X178018704Y-120555651D01*
X178019333Y-120548460D01*
X178019180Y-120543216D01*
X178017152Y-120473489D01*
X178017100Y-120469883D01*
X178017100Y-114396737D01*
X179587156Y-114396737D01*
X179606910Y-114710736D01*
X179606911Y-114710743D01*
X179627399Y-114818143D01*
X179662239Y-115000784D01*
X179665870Y-115019815D01*
X179763097Y-115319048D01*
X179763099Y-115319053D01*
X179897061Y-115603735D01*
X179897064Y-115603741D01*
X180065651Y-115869393D01*
X180065654Y-115869397D01*
X180266206Y-116111822D01*
X180266208Y-116111824D01*
X180266210Y-116111826D01*
X180475787Y-116308632D01*
X180495568Y-116327208D01*
X180495578Y-116327216D01*
X180750104Y-116512140D01*
X180750109Y-116512142D01*
X180750116Y-116512148D01*
X181025834Y-116663726D01*
X181025839Y-116663728D01*
X181025841Y-116663729D01*
X181025842Y-116663730D01*
X181318371Y-116779550D01*
X181318374Y-116779551D01*
X181623123Y-116857797D01*
X181623127Y-116857798D01*
X181688610Y-116866070D01*
X181935270Y-116897231D01*
X181935279Y-116897231D01*
X181935282Y-116897232D01*
X181935284Y-116897232D01*
X182249916Y-116897232D01*
X182249918Y-116897232D01*
X182249921Y-116897231D01*
X182249929Y-116897231D01*
X182436193Y-116873700D01*
X182562073Y-116857798D01*
X182866825Y-116779551D01*
X182866828Y-116779550D01*
X183159357Y-116663730D01*
X183159358Y-116663729D01*
X183159356Y-116663729D01*
X183159366Y-116663726D01*
X183435084Y-116512148D01*
X183689630Y-116327210D01*
X183918990Y-116111826D01*
X184119547Y-115869395D01*
X184288137Y-115603739D01*
X184422103Y-115319047D01*
X184519331Y-115019811D01*
X184578288Y-114710747D01*
X184583564Y-114626887D01*
X184598044Y-114396737D01*
X184598044Y-114396726D01*
X184578289Y-114082727D01*
X184578288Y-114082720D01*
X184578288Y-114082717D01*
X184519331Y-113773653D01*
X184422103Y-113474417D01*
X184420524Y-113471062D01*
X184327200Y-113272738D01*
X184288137Y-113189725D01*
X184187703Y-113031466D01*
X184119548Y-112924070D01*
X184119545Y-112924066D01*
X183918993Y-112681641D01*
X183918991Y-112681639D01*
X183913009Y-112676021D01*
X183689630Y-112466254D01*
X183689627Y-112466252D01*
X183689621Y-112466247D01*
X183435095Y-112281323D01*
X183435088Y-112281318D01*
X183435084Y-112281316D01*
X183159366Y-112129738D01*
X183159363Y-112129736D01*
X183159358Y-112129734D01*
X183159357Y-112129733D01*
X182866828Y-112013913D01*
X182866825Y-112013912D01*
X182562076Y-111935666D01*
X182562063Y-111935664D01*
X182249929Y-111896232D01*
X182249918Y-111896232D01*
X181935282Y-111896232D01*
X181935270Y-111896232D01*
X181623136Y-111935664D01*
X181623123Y-111935666D01*
X181318374Y-112013912D01*
X181318371Y-112013913D01*
X181025842Y-112129733D01*
X181025841Y-112129734D01*
X180750116Y-112281316D01*
X180750104Y-112281323D01*
X180495578Y-112466247D01*
X180495568Y-112466255D01*
X180266208Y-112681639D01*
X180266206Y-112681641D01*
X180065654Y-112924066D01*
X180065651Y-112924070D01*
X179897064Y-113189722D01*
X179897061Y-113189728D01*
X179763099Y-113474410D01*
X179763097Y-113474415D01*
X179665870Y-113773648D01*
X179606911Y-114082720D01*
X179606910Y-114082727D01*
X179587156Y-114396726D01*
X179587156Y-114396737D01*
X178017100Y-114396737D01*
X178017100Y-109734437D01*
X178018409Y-109716467D01*
X178021889Y-109692706D01*
X178017572Y-109643367D01*
X178017100Y-109632558D01*
X178017100Y-105596737D01*
X179587156Y-105596737D01*
X179606910Y-105910736D01*
X179606911Y-105910743D01*
X179635135Y-106058700D01*
X179665042Y-106215478D01*
X179665870Y-106219815D01*
X179763097Y-106519048D01*
X179763099Y-106519053D01*
X179897061Y-106803735D01*
X179897064Y-106803741D01*
X180065651Y-107069393D01*
X180065654Y-107069397D01*
X180266206Y-107311822D01*
X180266208Y-107311824D01*
X180495568Y-107527208D01*
X180495578Y-107527216D01*
X180750104Y-107712140D01*
X180750109Y-107712142D01*
X180750116Y-107712148D01*
X181025834Y-107863726D01*
X181025839Y-107863728D01*
X181025841Y-107863729D01*
X181025842Y-107863730D01*
X181318371Y-107979550D01*
X181318374Y-107979551D01*
X181598208Y-108051400D01*
X181623127Y-108057798D01*
X181688610Y-108066070D01*
X181935270Y-108097231D01*
X181935279Y-108097231D01*
X181935282Y-108097232D01*
X181935284Y-108097232D01*
X182249916Y-108097232D01*
X182249918Y-108097232D01*
X182249921Y-108097231D01*
X182249929Y-108097231D01*
X182458185Y-108070922D01*
X182562073Y-108057798D01*
X182866825Y-107979551D01*
X182866828Y-107979550D01*
X183159357Y-107863730D01*
X183159358Y-107863729D01*
X183159356Y-107863729D01*
X183159366Y-107863726D01*
X183435084Y-107712148D01*
X183689630Y-107527210D01*
X183918990Y-107311826D01*
X184119547Y-107069395D01*
X184288137Y-106803739D01*
X184422103Y-106519047D01*
X184519331Y-106219811D01*
X184578288Y-105910747D01*
X184589598Y-105730983D01*
X184598044Y-105596737D01*
X184598044Y-105596726D01*
X184578289Y-105282727D01*
X184578288Y-105282720D01*
X184578288Y-105282717D01*
X184519331Y-104973653D01*
X184422103Y-104674417D01*
X184288137Y-104389725D01*
X184119547Y-104124069D01*
X184007842Y-103989041D01*
X183918993Y-103881641D01*
X183918991Y-103881639D01*
X183689631Y-103666255D01*
X183689621Y-103666247D01*
X183435095Y-103481323D01*
X183435088Y-103481318D01*
X183435084Y-103481316D01*
X183159366Y-103329738D01*
X183159363Y-103329736D01*
X183159358Y-103329734D01*
X183159357Y-103329733D01*
X182866828Y-103213913D01*
X182866825Y-103213912D01*
X182562076Y-103135666D01*
X182562063Y-103135664D01*
X182249929Y-103096232D01*
X182249918Y-103096232D01*
X181935282Y-103096232D01*
X181935270Y-103096232D01*
X181623136Y-103135664D01*
X181623123Y-103135666D01*
X181318374Y-103213912D01*
X181318371Y-103213913D01*
X181025842Y-103329733D01*
X181025841Y-103329734D01*
X180750116Y-103481316D01*
X180750104Y-103481323D01*
X180495578Y-103666247D01*
X180495568Y-103666255D01*
X180266208Y-103881639D01*
X180266206Y-103881641D01*
X180065654Y-104124066D01*
X180065651Y-104124070D01*
X179897064Y-104389722D01*
X179897061Y-104389728D01*
X179763099Y-104674410D01*
X179763097Y-104674415D01*
X179665870Y-104973648D01*
X179606911Y-105282720D01*
X179606910Y-105282727D01*
X179587156Y-105596726D01*
X179587156Y-105596737D01*
X178017100Y-105596737D01*
X178017100Y-90007871D01*
X179587156Y-90007871D01*
X179606910Y-90321870D01*
X179606911Y-90321877D01*
X179665870Y-90630949D01*
X179763097Y-90930182D01*
X179763099Y-90930187D01*
X179897061Y-91214869D01*
X179897064Y-91214875D01*
X180065651Y-91480527D01*
X180065654Y-91480531D01*
X180266206Y-91722956D01*
X180266208Y-91722958D01*
X180495568Y-91938342D01*
X180495578Y-91938350D01*
X180750104Y-92123274D01*
X180750109Y-92123276D01*
X180750116Y-92123282D01*
X181025834Y-92274860D01*
X181025839Y-92274862D01*
X181025841Y-92274863D01*
X181025842Y-92274864D01*
X181318371Y-92390684D01*
X181318374Y-92390685D01*
X181623123Y-92468931D01*
X181623127Y-92468932D01*
X181688610Y-92477204D01*
X181935270Y-92508365D01*
X181935279Y-92508365D01*
X181935282Y-92508366D01*
X181935284Y-92508366D01*
X182249916Y-92508366D01*
X182249918Y-92508366D01*
X182249921Y-92508365D01*
X182249929Y-92508365D01*
X182436193Y-92484834D01*
X182562073Y-92468932D01*
X182866825Y-92390685D01*
X182866828Y-92390684D01*
X183159357Y-92274864D01*
X183159358Y-92274863D01*
X183159356Y-92274863D01*
X183159366Y-92274860D01*
X183435084Y-92123282D01*
X183689630Y-91938344D01*
X183918990Y-91722960D01*
X184119547Y-91480529D01*
X184288137Y-91214873D01*
X184422103Y-90930181D01*
X184519331Y-90630945D01*
X184578288Y-90321881D01*
X184583581Y-90237750D01*
X184598044Y-90007871D01*
X184598044Y-90007860D01*
X184578289Y-89693861D01*
X184578288Y-89693854D01*
X184578288Y-89693851D01*
X184519331Y-89384787D01*
X184422103Y-89085551D01*
X184288137Y-88800859D01*
X184187703Y-88642600D01*
X184119548Y-88535204D01*
X184119545Y-88535200D01*
X183918993Y-88292775D01*
X183918991Y-88292773D01*
X183913009Y-88287155D01*
X183689630Y-88077388D01*
X183689627Y-88077386D01*
X183689621Y-88077381D01*
X183435095Y-87892457D01*
X183435088Y-87892452D01*
X183435084Y-87892450D01*
X183159366Y-87740872D01*
X183159363Y-87740870D01*
X183159358Y-87740868D01*
X183159357Y-87740867D01*
X182866828Y-87625047D01*
X182866825Y-87625046D01*
X182562076Y-87546800D01*
X182562063Y-87546798D01*
X182249929Y-87507366D01*
X182249918Y-87507366D01*
X181935282Y-87507366D01*
X181935270Y-87507366D01*
X181623136Y-87546798D01*
X181623123Y-87546800D01*
X181318374Y-87625046D01*
X181318371Y-87625047D01*
X181025842Y-87740867D01*
X181025841Y-87740868D01*
X180750116Y-87892450D01*
X180750104Y-87892457D01*
X180495578Y-88077381D01*
X180495568Y-88077389D01*
X180266208Y-88292773D01*
X180266206Y-88292775D01*
X180065654Y-88535200D01*
X180065651Y-88535204D01*
X179897064Y-88800856D01*
X179897061Y-88800862D01*
X179763099Y-89085544D01*
X179763097Y-89085549D01*
X179665870Y-89384782D01*
X179606911Y-89693854D01*
X179606910Y-89693861D01*
X179587156Y-90007860D01*
X179587156Y-90007871D01*
X178017100Y-90007871D01*
X178017100Y-85345571D01*
X178018409Y-85327601D01*
X178021889Y-85303840D01*
X178017572Y-85254501D01*
X178017100Y-85243692D01*
X178017100Y-81207871D01*
X179587156Y-81207871D01*
X179606910Y-81521870D01*
X179606911Y-81521877D01*
X179627399Y-81629277D01*
X179649582Y-81745568D01*
X179665870Y-81830949D01*
X179763097Y-82130182D01*
X179763099Y-82130187D01*
X179897061Y-82414869D01*
X179897064Y-82414875D01*
X180065651Y-82680527D01*
X180065654Y-82680531D01*
X180266206Y-82922956D01*
X180266208Y-82922958D01*
X180495568Y-83138342D01*
X180495578Y-83138350D01*
X180750104Y-83323274D01*
X180750109Y-83323276D01*
X180750116Y-83323282D01*
X181025834Y-83474860D01*
X181025839Y-83474862D01*
X181025841Y-83474863D01*
X181025842Y-83474864D01*
X181318371Y-83590684D01*
X181318374Y-83590685D01*
X181623123Y-83668931D01*
X181623127Y-83668932D01*
X181688610Y-83677204D01*
X181935270Y-83708365D01*
X181935279Y-83708365D01*
X181935282Y-83708366D01*
X181935284Y-83708366D01*
X182249916Y-83708366D01*
X182249918Y-83708366D01*
X182249921Y-83708365D01*
X182249929Y-83708365D01*
X182436193Y-83684834D01*
X182562073Y-83668932D01*
X182866825Y-83590685D01*
X182879795Y-83585550D01*
X183159357Y-83474864D01*
X183159358Y-83474863D01*
X183159356Y-83474863D01*
X183159366Y-83474860D01*
X183435084Y-83323282D01*
X183689630Y-83138344D01*
X183918990Y-82922960D01*
X184119547Y-82680529D01*
X184288137Y-82414873D01*
X184422103Y-82130181D01*
X184519331Y-81830945D01*
X184578288Y-81521881D01*
X184591287Y-81315266D01*
X184598044Y-81207871D01*
X184598044Y-81207860D01*
X184578289Y-80893861D01*
X184578288Y-80893854D01*
X184578288Y-80893851D01*
X184519331Y-80584787D01*
X184422103Y-80285551D01*
X184288137Y-80000859D01*
X184119547Y-79735203D01*
X184114540Y-79729150D01*
X183918993Y-79492775D01*
X183918991Y-79492773D01*
X183689631Y-79277389D01*
X183689621Y-79277381D01*
X183435095Y-79092457D01*
X183435088Y-79092452D01*
X183435084Y-79092450D01*
X183159366Y-78940872D01*
X183159363Y-78940870D01*
X183159358Y-78940868D01*
X183159357Y-78940867D01*
X182866828Y-78825047D01*
X182866825Y-78825046D01*
X182562076Y-78746800D01*
X182562063Y-78746798D01*
X182249929Y-78707366D01*
X182249918Y-78707366D01*
X181935282Y-78707366D01*
X181935270Y-78707366D01*
X181623136Y-78746798D01*
X181623123Y-78746800D01*
X181318374Y-78825046D01*
X181318371Y-78825047D01*
X181025842Y-78940867D01*
X181025841Y-78940868D01*
X180750116Y-79092450D01*
X180750104Y-79092457D01*
X180495578Y-79277381D01*
X180495568Y-79277389D01*
X180266208Y-79492773D01*
X180266206Y-79492775D01*
X180065654Y-79735200D01*
X180065651Y-79735204D01*
X179897064Y-80000856D01*
X179897061Y-80000862D01*
X179763099Y-80285544D01*
X179763097Y-80285549D01*
X179665870Y-80584782D01*
X179606911Y-80893854D01*
X179606910Y-80893861D01*
X179587156Y-81207860D01*
X179587156Y-81207871D01*
X178017100Y-81207871D01*
X178017100Y-71513905D01*
X178018409Y-71495935D01*
X178020910Y-71478859D01*
X178021889Y-71472177D01*
X178017572Y-71422830D01*
X178017100Y-71412022D01*
X178017100Y-65619005D01*
X179587156Y-65619005D01*
X179606910Y-65933004D01*
X179606911Y-65933011D01*
X179665870Y-66242083D01*
X179763097Y-66541316D01*
X179763099Y-66541321D01*
X179897061Y-66826003D01*
X179897064Y-66826009D01*
X180065651Y-67091661D01*
X180065654Y-67091665D01*
X180266206Y-67334090D01*
X180266208Y-67334092D01*
X180495568Y-67549476D01*
X180495578Y-67549484D01*
X180750104Y-67734408D01*
X180750109Y-67734410D01*
X180750116Y-67734416D01*
X181025834Y-67885994D01*
X181025839Y-67885996D01*
X181025841Y-67885997D01*
X181025842Y-67885998D01*
X181318371Y-68001818D01*
X181318374Y-68001819D01*
X181623123Y-68080065D01*
X181623127Y-68080066D01*
X181688610Y-68088338D01*
X181935270Y-68119499D01*
X181935279Y-68119499D01*
X181935282Y-68119500D01*
X181935284Y-68119500D01*
X182249916Y-68119500D01*
X182249918Y-68119500D01*
X182249921Y-68119499D01*
X182249929Y-68119499D01*
X182436193Y-68095968D01*
X182562073Y-68080066D01*
X182866825Y-68001819D01*
X182866828Y-68001818D01*
X183159357Y-67885998D01*
X183159358Y-67885997D01*
X183159356Y-67885997D01*
X183159366Y-67885994D01*
X183435084Y-67734416D01*
X183689630Y-67549478D01*
X183918990Y-67334094D01*
X184119547Y-67091663D01*
X184288137Y-66826007D01*
X184422103Y-66541315D01*
X184519331Y-66242079D01*
X184578288Y-65933015D01*
X184591287Y-65726400D01*
X184598044Y-65619005D01*
X184598044Y-65618994D01*
X184578289Y-65304995D01*
X184578288Y-65304988D01*
X184578288Y-65304985D01*
X184519331Y-64995921D01*
X184422103Y-64696685D01*
X184288137Y-64411993D01*
X184187703Y-64253734D01*
X184119548Y-64146338D01*
X184119545Y-64146334D01*
X183918993Y-63903909D01*
X183918991Y-63903907D01*
X183913009Y-63898289D01*
X183689630Y-63688522D01*
X183689627Y-63688520D01*
X183689621Y-63688515D01*
X183435095Y-63503591D01*
X183435088Y-63503586D01*
X183435084Y-63503584D01*
X183159366Y-63352006D01*
X183159363Y-63352004D01*
X183159358Y-63352002D01*
X183159357Y-63352001D01*
X182866828Y-63236181D01*
X182866825Y-63236180D01*
X182562076Y-63157934D01*
X182562063Y-63157932D01*
X182249929Y-63118500D01*
X182249918Y-63118500D01*
X181935282Y-63118500D01*
X181935270Y-63118500D01*
X181623136Y-63157932D01*
X181623123Y-63157934D01*
X181318374Y-63236180D01*
X181318371Y-63236181D01*
X181025842Y-63352001D01*
X181025841Y-63352002D01*
X180750116Y-63503584D01*
X180750104Y-63503591D01*
X180495578Y-63688515D01*
X180495568Y-63688523D01*
X180266208Y-63903907D01*
X180266206Y-63903909D01*
X180065654Y-64146334D01*
X180065651Y-64146338D01*
X179897064Y-64411990D01*
X179897061Y-64411996D01*
X179763099Y-64696678D01*
X179763097Y-64696683D01*
X179665870Y-64995916D01*
X179606911Y-65304988D01*
X179606910Y-65304995D01*
X179587156Y-65618994D01*
X179587156Y-65619005D01*
X178017100Y-65619005D01*
X178017100Y-60261705D01*
X178018409Y-60243735D01*
X178019113Y-60238930D01*
X178021889Y-60219977D01*
X178018836Y-60185084D01*
X178017572Y-60170630D01*
X178017100Y-60159822D01*
X178017100Y-60154296D01*
X178017100Y-60154291D01*
X178013501Y-60123509D01*
X178013136Y-60119929D01*
X178006599Y-60045201D01*
X178005139Y-60038129D01*
X178005197Y-60038116D01*
X178003565Y-60030757D01*
X178003506Y-60030772D01*
X178001841Y-60023751D01*
X178001841Y-60023745D01*
X177976169Y-59953212D01*
X177975021Y-59949909D01*
X177951414Y-59878666D01*
X177951410Y-59878659D01*
X177948360Y-59872118D01*
X177948415Y-59872091D01*
X177945133Y-59865313D01*
X177945080Y-59865340D01*
X177941835Y-59858880D01*
X177900625Y-59796223D01*
X177898686Y-59793181D01*
X177859310Y-59729342D01*
X177854834Y-59723682D01*
X177854881Y-59723644D01*
X177850119Y-59717799D01*
X177850074Y-59717838D01*
X177845431Y-59712305D01*
X177790873Y-59660832D01*
X177788286Y-59658319D01*
X176455764Y-58325796D01*
X176423238Y-58268550D01*
X176421757Y-58262700D01*
X176328524Y-58050151D01*
X176201583Y-57855852D01*
X176201580Y-57855849D01*
X176201579Y-57855847D01*
X176044384Y-57685087D01*
X176044379Y-57685083D01*
X176044377Y-57685081D01*
X175861234Y-57542535D01*
X175861228Y-57542531D01*
X175657104Y-57432064D01*
X175657095Y-57432061D01*
X175437584Y-57356702D01*
X175265882Y-57328050D01*
X175208649Y-57318500D01*
X174976551Y-57318500D01*
X174930764Y-57326140D01*
X174747615Y-57356702D01*
X174528104Y-57432061D01*
X174528095Y-57432064D01*
X174323971Y-57542531D01*
X174323965Y-57542535D01*
X174140822Y-57685081D01*
X174140819Y-57685084D01*
X173983616Y-57855852D01*
X173856675Y-58050151D01*
X173763442Y-58262699D01*
X173706466Y-58487691D01*
X173706464Y-58487702D01*
X173687300Y-58718993D01*
X173687300Y-58719006D01*
X173706464Y-58950297D01*
X173706466Y-58950308D01*
X173763442Y-59175300D01*
X173856675Y-59387848D01*
X173983616Y-59582147D01*
X173983619Y-59582151D01*
X173983621Y-59582153D01*
X174140816Y-59752913D01*
X174140819Y-59752915D01*
X174140822Y-59752918D01*
X174292722Y-59871147D01*
X174333535Y-59927857D01*
X174337210Y-59997630D01*
X174302578Y-60058313D01*
X174292722Y-60066853D01*
X174140822Y-60185081D01*
X174140819Y-60185084D01*
X174140816Y-60185086D01*
X174140816Y-60185087D01*
X174086827Y-60243735D01*
X173983616Y-60355852D01*
X173856675Y-60550151D01*
X173763442Y-60762699D01*
X173706466Y-60987691D01*
X173706464Y-60987702D01*
X173687300Y-61218993D01*
X173687300Y-61219006D01*
X173706464Y-61450297D01*
X173706466Y-61450308D01*
X173763442Y-61675300D01*
X173856675Y-61887848D01*
X173983616Y-62082147D01*
X173983619Y-62082151D01*
X173983621Y-62082153D01*
X174140816Y-62252913D01*
X174140819Y-62252915D01*
X174140822Y-62252918D01*
X174293128Y-62371463D01*
X174333941Y-62428173D01*
X174337616Y-62497946D01*
X174302984Y-62558629D01*
X174293805Y-62566582D01*
X174293800Y-62566647D01*
X174960067Y-63232913D01*
X174950285Y-63234320D01*
X174819500Y-63294048D01*
X174710839Y-63388202D01*
X174633107Y-63509156D01*
X174609522Y-63589476D01*
X173941411Y-62921365D01*
X173857116Y-63050390D01*
X173763917Y-63262864D01*
X173706961Y-63487781D01*
X173687802Y-63718994D01*
X173687802Y-63719005D01*
X173706961Y-63950218D01*
X173763917Y-64175135D01*
X173857115Y-64387606D01*
X173941412Y-64516633D01*
X174609522Y-63848523D01*
X174633107Y-63928844D01*
X174710839Y-64049798D01*
X174819500Y-64143952D01*
X174950285Y-64203680D01*
X174960066Y-64205086D01*
X174293801Y-64871351D01*
X174324249Y-64895050D01*
X174528297Y-65005476D01*
X174528306Y-65005479D01*
X174747739Y-65080811D01*
X174976593Y-65119000D01*
X175208607Y-65119000D01*
X175437460Y-65080811D01*
X175656893Y-65005479D01*
X175656901Y-65005476D01*
X175860955Y-64895047D01*
X175891397Y-64871351D01*
X175891398Y-64871350D01*
X175225134Y-64205086D01*
X175234915Y-64203680D01*
X175365700Y-64143952D01*
X175474361Y-64049798D01*
X175552093Y-63928844D01*
X175575676Y-63848523D01*
X176243786Y-64516633D01*
X176288292Y-64448514D01*
X176341438Y-64403157D01*
X176410670Y-64393734D01*
X176474005Y-64423236D01*
X176511337Y-64482297D01*
X176516100Y-64516336D01*
X176516100Y-69338970D01*
X176496415Y-69406009D01*
X176443611Y-69451764D01*
X176374453Y-69461708D01*
X176310897Y-69432683D01*
X176304419Y-69426651D01*
X173803729Y-66925961D01*
X173791949Y-66912330D01*
X173777610Y-66893070D01*
X173739651Y-66861219D01*
X173731686Y-66853918D01*
X173727780Y-66850011D01*
X173703443Y-66830768D01*
X173700647Y-66828490D01*
X173643214Y-66780298D01*
X173637180Y-66776329D01*
X173637212Y-66776280D01*
X173630853Y-66772228D01*
X173630822Y-66772279D01*
X173624680Y-66768491D01*
X173624678Y-66768490D01*
X173624677Y-66768489D01*
X173556688Y-66736784D01*
X173553447Y-66735215D01*
X173522530Y-66719688D01*
X173486433Y-66701560D01*
X173486431Y-66701559D01*
X173486430Y-66701559D01*
X173479645Y-66699089D01*
X173479665Y-66699033D01*
X173472549Y-66696559D01*
X173472531Y-66696615D01*
X173465674Y-66694343D01*
X173392210Y-66679173D01*
X173388693Y-66678393D01*
X173315718Y-66661099D01*
X173308547Y-66660261D01*
X173308553Y-66660201D01*
X173301055Y-66659435D01*
X173301050Y-66659495D01*
X173293860Y-66658865D01*
X173218870Y-66661048D01*
X173215263Y-66661100D01*
X172978772Y-66661100D01*
X172937817Y-66654142D01*
X172858054Y-66626231D01*
X172858049Y-66626230D01*
X172678804Y-66606035D01*
X172678796Y-66606035D01*
X172499550Y-66626230D01*
X172499545Y-66626231D01*
X172329276Y-66685811D01*
X172176537Y-66781784D01*
X172048984Y-66909337D01*
X171953011Y-67062078D01*
X171949988Y-67068356D01*
X171948162Y-67067476D01*
X171925493Y-67103537D01*
X171548558Y-67480472D01*
X171534929Y-67492251D01*
X171515669Y-67506590D01*
X171483832Y-67544531D01*
X171476546Y-67552484D01*
X171472607Y-67556424D01*
X171453376Y-67580745D01*
X171451102Y-67583537D01*
X171402894Y-67640990D01*
X171398929Y-67647019D01*
X171398882Y-67646988D01*
X171394830Y-67653347D01*
X171394879Y-67653377D01*
X171391089Y-67659521D01*
X171359392Y-67727494D01*
X171357823Y-67730736D01*
X171324157Y-67797772D01*
X171321688Y-67804557D01*
X171321632Y-67804536D01*
X171319160Y-67811650D01*
X171319215Y-67811669D01*
X171316943Y-67818525D01*
X171301773Y-67891988D01*
X171300993Y-67895504D01*
X171283699Y-67968479D01*
X171282861Y-67975654D01*
X171282801Y-67975647D01*
X171282035Y-67983145D01*
X171282095Y-67983151D01*
X171281465Y-67990340D01*
X171283648Y-68065328D01*
X171283700Y-68068935D01*
X171283700Y-70097369D01*
X171264015Y-70164408D01*
X171247381Y-70185050D01*
X171014937Y-70417493D01*
X170978873Y-70440170D01*
X170979750Y-70441991D01*
X170973475Y-70445012D01*
X170820737Y-70540984D01*
X170693184Y-70668537D01*
X170597211Y-70821276D01*
X170537631Y-70991545D01*
X170537630Y-70991550D01*
X170517435Y-71170796D01*
X170517435Y-71170803D01*
X170537630Y-71350049D01*
X170537631Y-71350054D01*
X170597211Y-71520323D01*
X170693184Y-71673062D01*
X170820738Y-71800616D01*
X170973478Y-71896589D01*
X171143745Y-71956168D01*
X171143750Y-71956169D01*
X171322996Y-71976365D01*
X171323000Y-71976365D01*
X171323004Y-71976365D01*
X171502249Y-71956169D01*
X171502252Y-71956168D01*
X171502255Y-71956168D01*
X171672522Y-71896589D01*
X171825262Y-71800616D01*
X171952816Y-71673062D01*
X172048789Y-71520322D01*
X172048792Y-71520310D01*
X172051810Y-71514048D01*
X172053650Y-71514934D01*
X172076305Y-71478861D01*
X172519841Y-71035324D01*
X172533460Y-71023554D01*
X172552730Y-71009210D01*
X172584572Y-70971261D01*
X172591871Y-70963294D01*
X172595791Y-70959376D01*
X172615053Y-70935013D01*
X172617276Y-70932286D01*
X172665500Y-70874816D01*
X172665502Y-70874814D01*
X172665504Y-70874809D01*
X172669474Y-70868775D01*
X172669525Y-70868808D01*
X172673572Y-70862456D01*
X172673520Y-70862424D01*
X172677308Y-70856280D01*
X172677311Y-70856277D01*
X172709021Y-70788273D01*
X172710562Y-70785088D01*
X172744240Y-70718033D01*
X172744243Y-70718017D01*
X172746709Y-70711246D01*
X172746767Y-70711267D01*
X172749243Y-70704146D01*
X172749186Y-70704127D01*
X172751455Y-70697278D01*
X172751455Y-70697276D01*
X172751457Y-70697273D01*
X172766635Y-70623757D01*
X172767400Y-70620308D01*
X172784700Y-70547321D01*
X172784700Y-70547319D01*
X172784701Y-70547315D01*
X172785539Y-70540148D01*
X172785598Y-70540154D01*
X172786364Y-70532654D01*
X172786305Y-70532649D01*
X172786934Y-70525459D01*
X172784752Y-70450469D01*
X172784700Y-70446862D01*
X172784700Y-68418430D01*
X172804385Y-68351391D01*
X172821019Y-68330749D01*
X172865719Y-68286049D01*
X172927042Y-68252564D01*
X172996734Y-68257548D01*
X173041081Y-68286049D01*
X176479781Y-71724749D01*
X176513266Y-71786072D01*
X176516100Y-71812430D01*
X176516100Y-82309614D01*
X176496415Y-82376653D01*
X176443611Y-82422408D01*
X176374453Y-82432352D01*
X176310897Y-82403327D01*
X176288291Y-82377436D01*
X176287779Y-82376653D01*
X176201579Y-82244713D01*
X176044384Y-82073953D01*
X176044379Y-82073949D01*
X176044377Y-82073947D01*
X175861234Y-81931401D01*
X175861228Y-81931397D01*
X175657104Y-81820930D01*
X175657095Y-81820927D01*
X175437584Y-81745568D01*
X175265882Y-81716916D01*
X175208649Y-81707366D01*
X174976551Y-81707366D01*
X174930764Y-81715006D01*
X174747615Y-81745568D01*
X174528104Y-81820927D01*
X174528095Y-81820930D01*
X174323971Y-81931397D01*
X174323965Y-81931401D01*
X174140822Y-82073947D01*
X174140819Y-82073950D01*
X173983616Y-82244718D01*
X173856675Y-82439017D01*
X173763442Y-82651565D01*
X173706466Y-82876557D01*
X173706464Y-82876568D01*
X173687300Y-83107859D01*
X173687300Y-83107872D01*
X173706464Y-83339163D01*
X173706466Y-83339174D01*
X173763442Y-83564166D01*
X173856675Y-83776714D01*
X173983616Y-83971013D01*
X173983619Y-83971017D01*
X173983621Y-83971019D01*
X174140816Y-84141779D01*
X174140819Y-84141781D01*
X174140822Y-84141784D01*
X174292722Y-84260013D01*
X174333535Y-84316723D01*
X174337210Y-84386496D01*
X174302578Y-84447179D01*
X174292722Y-84455719D01*
X174140822Y-84573947D01*
X174140819Y-84573950D01*
X173983616Y-84744718D01*
X173856675Y-84939017D01*
X173763442Y-85151565D01*
X173706466Y-85376557D01*
X173706464Y-85376568D01*
X173687300Y-85607859D01*
X173687300Y-85607872D01*
X173706464Y-85839163D01*
X173706466Y-85839174D01*
X173763442Y-86064166D01*
X173856675Y-86276714D01*
X173983616Y-86471013D01*
X173983619Y-86471017D01*
X173983621Y-86471019D01*
X174140816Y-86641779D01*
X174140819Y-86641781D01*
X174140822Y-86641784D01*
X174293128Y-86760329D01*
X174333941Y-86817039D01*
X174337616Y-86886812D01*
X174302984Y-86947495D01*
X174293805Y-86955448D01*
X174293800Y-86955513D01*
X174960067Y-87621779D01*
X174950285Y-87623186D01*
X174819500Y-87682914D01*
X174710839Y-87777068D01*
X174633107Y-87898022D01*
X174609522Y-87978342D01*
X173941411Y-87310231D01*
X173857116Y-87439256D01*
X173763917Y-87651730D01*
X173706961Y-87876647D01*
X173687802Y-88107860D01*
X173687802Y-88107871D01*
X173706961Y-88339084D01*
X173763917Y-88564001D01*
X173857115Y-88776472D01*
X173941412Y-88905499D01*
X174609522Y-88237389D01*
X174633107Y-88317710D01*
X174710839Y-88438664D01*
X174819500Y-88532818D01*
X174950285Y-88592546D01*
X174960066Y-88593952D01*
X174293801Y-89260217D01*
X174324249Y-89283916D01*
X174528297Y-89394342D01*
X174528306Y-89394345D01*
X174747739Y-89469677D01*
X174976593Y-89507866D01*
X175208607Y-89507866D01*
X175437460Y-89469677D01*
X175656893Y-89394345D01*
X175656901Y-89394342D01*
X175860955Y-89283913D01*
X175891397Y-89260217D01*
X175891398Y-89260216D01*
X175225134Y-88593952D01*
X175234915Y-88592546D01*
X175365700Y-88532818D01*
X175474361Y-88438664D01*
X175552093Y-88317710D01*
X175575676Y-88237389D01*
X176243786Y-88905499D01*
X176288292Y-88837380D01*
X176341438Y-88792023D01*
X176410670Y-88782600D01*
X176474005Y-88812102D01*
X176511337Y-88871163D01*
X176516100Y-88905202D01*
X176516100Y-106698480D01*
X176496415Y-106765519D01*
X176443611Y-106811274D01*
X176374453Y-106821218D01*
X176310897Y-106792193D01*
X176288291Y-106766302D01*
X176288241Y-106766226D01*
X176201579Y-106633579D01*
X176044384Y-106462819D01*
X176044379Y-106462815D01*
X176044377Y-106462813D01*
X175861234Y-106320267D01*
X175861228Y-106320263D01*
X175657104Y-106209796D01*
X175657095Y-106209793D01*
X175437584Y-106134434D01*
X175232200Y-106100162D01*
X175208649Y-106096232D01*
X174976551Y-106096232D01*
X174953000Y-106100162D01*
X174747615Y-106134434D01*
X174528104Y-106209793D01*
X174528095Y-106209796D01*
X174323971Y-106320263D01*
X174323965Y-106320267D01*
X174140822Y-106462813D01*
X174140819Y-106462816D01*
X174140816Y-106462818D01*
X174140816Y-106462819D01*
X174089055Y-106519047D01*
X173983616Y-106633584D01*
X173856675Y-106827883D01*
X173763442Y-107040431D01*
X173706466Y-107265423D01*
X173706464Y-107265434D01*
X173687300Y-107496725D01*
X173687300Y-107496738D01*
X173706464Y-107728029D01*
X173706466Y-107728040D01*
X173763442Y-107953032D01*
X173856675Y-108165580D01*
X173983616Y-108359879D01*
X173983619Y-108359883D01*
X173983621Y-108359885D01*
X174140816Y-108530645D01*
X174140819Y-108530647D01*
X174140822Y-108530650D01*
X174292722Y-108648879D01*
X174333535Y-108705589D01*
X174337210Y-108775362D01*
X174302578Y-108836045D01*
X174292722Y-108844585D01*
X174140822Y-108962813D01*
X174140819Y-108962816D01*
X173983616Y-109133584D01*
X173856675Y-109327883D01*
X173763442Y-109540431D01*
X173706466Y-109765423D01*
X173706464Y-109765434D01*
X173687300Y-109996725D01*
X173687300Y-109996738D01*
X173706464Y-110228029D01*
X173706466Y-110228040D01*
X173763442Y-110453032D01*
X173856675Y-110665580D01*
X173983616Y-110859879D01*
X173983619Y-110859883D01*
X173983621Y-110859885D01*
X174140816Y-111030645D01*
X174140819Y-111030647D01*
X174140822Y-111030650D01*
X174293128Y-111149195D01*
X174333941Y-111205905D01*
X174337616Y-111275678D01*
X174302984Y-111336361D01*
X174293805Y-111344314D01*
X174293800Y-111344379D01*
X174960067Y-112010645D01*
X174950285Y-112012052D01*
X174819500Y-112071780D01*
X174710839Y-112165934D01*
X174633107Y-112286888D01*
X174609522Y-112367208D01*
X173941411Y-111699097D01*
X173857116Y-111828122D01*
X173763917Y-112040596D01*
X173706961Y-112265513D01*
X173687802Y-112496726D01*
X173687802Y-112496737D01*
X173706961Y-112727950D01*
X173763917Y-112952867D01*
X173857115Y-113165338D01*
X173941412Y-113294365D01*
X174609522Y-112626255D01*
X174633107Y-112706576D01*
X174710839Y-112827530D01*
X174819500Y-112921684D01*
X174950285Y-112981412D01*
X174960066Y-112982818D01*
X174293801Y-113649083D01*
X174324249Y-113672782D01*
X174528297Y-113783208D01*
X174528306Y-113783211D01*
X174747739Y-113858543D01*
X174976593Y-113896732D01*
X175208607Y-113896732D01*
X175437460Y-113858543D01*
X175656893Y-113783211D01*
X175656901Y-113783208D01*
X175860955Y-113672779D01*
X175891397Y-113649083D01*
X175891398Y-113649082D01*
X175225134Y-112982818D01*
X175234915Y-112981412D01*
X175365700Y-112921684D01*
X175474361Y-112827530D01*
X175552093Y-112706576D01*
X175575676Y-112626255D01*
X176243786Y-113294365D01*
X176288292Y-113226246D01*
X176341438Y-113180889D01*
X176410670Y-113171466D01*
X176474005Y-113200968D01*
X176511337Y-113260029D01*
X176516100Y-113294068D01*
X176516100Y-120120370D01*
X176496415Y-120187409D01*
X176479781Y-120208051D01*
X175683081Y-121004751D01*
X175621758Y-121038236D01*
X175552066Y-121033252D01*
X175507719Y-121004751D01*
X175352907Y-120849939D01*
X175330253Y-120813869D01*
X175328413Y-120814756D01*
X175325392Y-120808484D01*
X175325389Y-120808480D01*
X175325389Y-120808478D01*
X175229416Y-120655738D01*
X175101862Y-120528184D01*
X175049954Y-120495568D01*
X174949123Y-120432211D01*
X174778854Y-120372631D01*
X174778849Y-120372630D01*
X174599604Y-120352435D01*
X174599596Y-120352435D01*
X174420350Y-120372630D01*
X174420345Y-120372631D01*
X174250076Y-120432211D01*
X174097337Y-120528184D01*
X173969784Y-120655737D01*
X173873811Y-120808476D01*
X173814232Y-120978744D01*
X173814230Y-120978750D01*
X173794035Y-121157996D01*
X173794035Y-121158003D01*
X173814230Y-121337249D01*
X173814231Y-121337254D01*
X173873811Y-121507523D01*
X173922252Y-121584616D01*
X173969784Y-121660262D01*
X174097338Y-121787816D01*
X174115489Y-121799221D01*
X174250083Y-121883792D01*
X174256353Y-121886812D01*
X174255468Y-121888648D01*
X174291535Y-121911304D01*
X174305778Y-121925546D01*
X174339265Y-121986868D01*
X174342100Y-122013230D01*
X174342100Y-122567255D01*
X174340435Y-122583545D01*
X174340495Y-122583551D01*
X174339865Y-122590740D01*
X174342048Y-122665728D01*
X174342100Y-122669335D01*
X174342100Y-130634401D01*
X174322415Y-130701440D01*
X174294263Y-130732254D01*
X174140818Y-130851685D01*
X173983616Y-131022452D01*
X173856675Y-131216751D01*
X173763442Y-131429299D01*
X173706466Y-131654291D01*
X173706466Y-131654295D01*
X173704440Y-131678741D01*
X173679287Y-131743925D01*
X173622885Y-131785163D01*
X173580864Y-131792500D01*
X152877205Y-131792500D01*
X152810166Y-131772815D01*
X152764411Y-131720011D01*
X152754467Y-131650853D01*
X152781661Y-131589460D01*
X152801346Y-131565664D01*
X152801348Y-131565661D01*
X152969937Y-131300007D01*
X153103903Y-131015315D01*
X153201131Y-130716079D01*
X153260088Y-130407015D01*
X153266845Y-130299615D01*
X153279844Y-130093005D01*
X153279844Y-130092994D01*
X153260089Y-129778995D01*
X153260088Y-129778988D01*
X153260088Y-129778985D01*
X153201131Y-129469921D01*
X153103903Y-129170685D01*
X152969937Y-128885993D01*
X152801347Y-128620337D01*
X152712498Y-128512937D01*
X152600793Y-128377909D01*
X152600791Y-128377907D01*
X152371431Y-128162523D01*
X152371421Y-128162515D01*
X152116895Y-127977591D01*
X152116888Y-127977586D01*
X152116884Y-127977584D01*
X151841166Y-127826006D01*
X151841163Y-127826004D01*
X151841158Y-127826002D01*
X151841157Y-127826001D01*
X151548628Y-127710181D01*
X151548625Y-127710180D01*
X151243876Y-127631934D01*
X151243863Y-127631932D01*
X150931729Y-127592500D01*
X150931718Y-127592500D01*
X150617082Y-127592500D01*
X150617070Y-127592500D01*
X150304936Y-127631932D01*
X150304923Y-127631934D01*
X150000174Y-127710180D01*
X150000171Y-127710181D01*
X149707642Y-127826001D01*
X149707641Y-127826002D01*
X149431916Y-127977584D01*
X149431904Y-127977591D01*
X149177378Y-128162515D01*
X149177368Y-128162523D01*
X148948008Y-128377907D01*
X148948006Y-128377909D01*
X148747454Y-128620334D01*
X148747451Y-128620338D01*
X148578864Y-128885990D01*
X148578861Y-128885996D01*
X148444899Y-129170678D01*
X148444897Y-129170683D01*
X148347670Y-129469916D01*
X148288711Y-129778988D01*
X148288710Y-129778995D01*
X148268956Y-130092994D01*
X148268956Y-130093005D01*
X148288710Y-130407004D01*
X148288711Y-130407011D01*
X148318190Y-130561547D01*
X148346343Y-130709130D01*
X148347670Y-130716083D01*
X148444897Y-131015316D01*
X148444899Y-131015321D01*
X148578861Y-131300003D01*
X148578864Y-131300009D01*
X148747451Y-131565661D01*
X148747453Y-131565664D01*
X148767139Y-131589460D01*
X148794704Y-131653662D01*
X148783183Y-131722575D01*
X148736234Y-131774320D01*
X148671595Y-131792500D01*
X147021829Y-131792500D01*
X146954790Y-131772815D01*
X146934148Y-131756181D01*
X146760619Y-131582651D01*
X146727134Y-131521328D01*
X146724300Y-131494970D01*
X146724300Y-124175626D01*
X146743985Y-124108587D01*
X146796789Y-124062832D01*
X146865947Y-124052888D01*
X146914273Y-124070633D01*
X146919336Y-124073814D01*
X146919338Y-124073816D01*
X146967176Y-124103874D01*
X147072075Y-124169788D01*
X147242345Y-124229368D01*
X147242350Y-124229369D01*
X147421596Y-124249565D01*
X147421600Y-124249565D01*
X147421604Y-124249565D01*
X147600849Y-124229369D01*
X147600852Y-124229368D01*
X147600855Y-124229368D01*
X147771122Y-124169789D01*
X147923862Y-124073816D01*
X147923867Y-124073810D01*
X147926697Y-124071555D01*
X147928875Y-124070665D01*
X147929758Y-124070111D01*
X147929855Y-124070265D01*
X147991383Y-124045145D01*
X148004012Y-124044500D01*
X148035903Y-124044500D01*
X148102942Y-124064185D01*
X148123584Y-124080819D01*
X149486498Y-125443733D01*
X149519983Y-125505056D01*
X149522037Y-125517530D01*
X149531830Y-125604449D01*
X149591410Y-125774721D01*
X149687384Y-125927462D01*
X149814938Y-126055016D01*
X149967678Y-126150989D01*
X150137945Y-126210568D01*
X150137950Y-126210569D01*
X150317196Y-126230765D01*
X150317200Y-126230765D01*
X150317204Y-126230765D01*
X150496449Y-126210569D01*
X150496452Y-126210568D01*
X150496455Y-126210568D01*
X150666722Y-126150989D01*
X150819462Y-126055016D01*
X150947016Y-125927462D01*
X151042989Y-125774722D01*
X151102568Y-125604455D01*
X151112362Y-125517530D01*
X151122765Y-125425203D01*
X151122765Y-125425196D01*
X151102569Y-125245950D01*
X151102568Y-125245945D01*
X151042988Y-125075676D01*
X150947015Y-124922937D01*
X150819462Y-124795384D01*
X150666721Y-124699410D01*
X150496449Y-124639830D01*
X150409530Y-124630037D01*
X150345116Y-124602970D01*
X150335733Y-124594498D01*
X148794199Y-123052964D01*
X148783504Y-123040769D01*
X148764283Y-123015719D01*
X148747620Y-123002933D01*
X148638841Y-122919464D01*
X148492762Y-122858956D01*
X148492760Y-122858955D01*
X148375361Y-122843500D01*
X148336000Y-122838318D01*
X148304697Y-122842439D01*
X148288513Y-122843500D01*
X148004012Y-122843500D01*
X147936973Y-122823815D01*
X147926697Y-122816445D01*
X147923863Y-122814185D01*
X147923862Y-122814184D01*
X147841975Y-122762731D01*
X147771123Y-122718211D01*
X147600854Y-122658631D01*
X147600849Y-122658630D01*
X147421604Y-122638435D01*
X147421596Y-122638435D01*
X147242350Y-122658630D01*
X147242345Y-122658631D01*
X147072076Y-122718211D01*
X146914272Y-122817367D01*
X146847035Y-122836367D01*
X146780200Y-122815999D01*
X146734986Y-122762731D01*
X146724300Y-122712373D01*
X146724300Y-121425143D01*
X146725964Y-121408854D01*
X146725905Y-121408849D01*
X146726534Y-121401659D01*
X146725993Y-121383082D01*
X146724352Y-121326669D01*
X146724300Y-121323062D01*
X146724300Y-119710203D01*
X148038435Y-119710203D01*
X148058630Y-119889449D01*
X148058631Y-119889454D01*
X148118211Y-120059723D01*
X148195670Y-120182997D01*
X148214184Y-120212462D01*
X148341738Y-120340016D01*
X148393646Y-120372632D01*
X148458914Y-120413643D01*
X148494478Y-120435989D01*
X148596540Y-120471702D01*
X148664745Y-120495568D01*
X148664750Y-120495569D01*
X148843996Y-120515765D01*
X148844000Y-120515765D01*
X148844004Y-120515765D01*
X149023249Y-120495569D01*
X149023252Y-120495568D01*
X149023255Y-120495568D01*
X149193522Y-120435989D01*
X149346262Y-120340016D01*
X149346267Y-120340010D01*
X149349097Y-120337755D01*
X149351275Y-120336865D01*
X149352158Y-120336311D01*
X149352255Y-120336465D01*
X149413783Y-120311345D01*
X149426412Y-120310700D01*
X149712303Y-120310700D01*
X149779342Y-120330385D01*
X149799984Y-120347019D01*
X152754599Y-123301634D01*
X152765293Y-123313828D01*
X152784517Y-123338881D01*
X152879662Y-123411888D01*
X152879663Y-123411889D01*
X152909959Y-123435136D01*
X152909963Y-123435138D01*
X152982998Y-123465390D01*
X153056038Y-123495644D01*
X153134419Y-123505963D01*
X153212799Y-123516282D01*
X153212800Y-123516282D01*
X153244102Y-123512160D01*
X153260287Y-123511100D01*
X153595588Y-123511100D01*
X153662627Y-123530785D01*
X153672903Y-123538155D01*
X153675736Y-123540414D01*
X153675738Y-123540416D01*
X153828478Y-123636389D01*
X153998745Y-123695968D01*
X153998750Y-123695969D01*
X154177996Y-123716165D01*
X154178000Y-123716165D01*
X154178004Y-123716165D01*
X154357249Y-123695969D01*
X154357252Y-123695968D01*
X154357255Y-123695968D01*
X154527522Y-123636389D01*
X154680262Y-123540416D01*
X154807816Y-123412862D01*
X154903789Y-123260122D01*
X154963368Y-123089855D01*
X154973161Y-123002929D01*
X155000226Y-122938518D01*
X155008690Y-122929143D01*
X156601043Y-121336790D01*
X156613223Y-121326109D01*
X156638282Y-121306882D01*
X156734536Y-121181441D01*
X156795044Y-121035362D01*
X156802498Y-120978745D01*
X156813152Y-120897815D01*
X156815682Y-120878601D01*
X156815682Y-120878598D01*
X156811561Y-120847297D01*
X156810500Y-120831112D01*
X156810500Y-119802494D01*
X156830185Y-119735455D01*
X156882989Y-119689700D01*
X156952147Y-119679756D01*
X157000477Y-119697503D01*
X157003478Y-119699389D01*
X157106549Y-119735455D01*
X157173745Y-119758968D01*
X157173750Y-119758969D01*
X157352996Y-119779165D01*
X157353000Y-119779165D01*
X157353004Y-119779165D01*
X157532249Y-119758969D01*
X157532252Y-119758968D01*
X157532255Y-119758968D01*
X157702522Y-119699389D01*
X157855262Y-119603416D01*
X157982816Y-119475862D01*
X158078789Y-119323122D01*
X158138368Y-119152855D01*
X158138369Y-119152849D01*
X158158565Y-118973603D01*
X158158565Y-118973596D01*
X158138369Y-118794350D01*
X158138368Y-118794345D01*
X158085550Y-118643400D01*
X158078789Y-118624078D01*
X157982816Y-118471338D01*
X157982814Y-118471336D01*
X157982813Y-118471334D01*
X157980550Y-118468496D01*
X157979659Y-118466315D01*
X157979111Y-118465442D01*
X157979264Y-118465345D01*
X157954144Y-118403809D01*
X157953500Y-118391187D01*
X157953500Y-118359296D01*
X157973185Y-118292257D01*
X157989814Y-118271620D01*
X166583244Y-109678189D01*
X166595422Y-109667510D01*
X166620482Y-109648282D01*
X166716736Y-109522841D01*
X166777244Y-109376762D01*
X166780303Y-109353527D01*
X166797883Y-109220000D01*
X166793761Y-109188689D01*
X166792700Y-109172504D01*
X166792700Y-69491087D01*
X166793761Y-69474901D01*
X166797882Y-69443599D01*
X166797882Y-69443598D01*
X166777244Y-69286839D01*
X166777242Y-69286834D01*
X166716737Y-69140760D01*
X166713733Y-69136845D01*
X166713732Y-69136844D01*
X166657282Y-69063276D01*
X166632438Y-69001672D01*
X166621969Y-68908750D01*
X166621968Y-68908745D01*
X166562389Y-68738478D01*
X166466416Y-68585738D01*
X166338862Y-68458184D01*
X166321566Y-68447316D01*
X166186123Y-68362211D01*
X166015854Y-68302631D01*
X166015849Y-68302630D01*
X165836604Y-68282435D01*
X165836596Y-68282435D01*
X165657350Y-68302630D01*
X165657345Y-68302631D01*
X165487076Y-68362211D01*
X165381872Y-68428316D01*
X165314635Y-68447316D01*
X165249928Y-68428316D01*
X165144723Y-68362211D01*
X164974454Y-68302631D01*
X164974449Y-68302630D01*
X164795204Y-68282435D01*
X164795196Y-68282435D01*
X164615950Y-68302630D01*
X164615945Y-68302631D01*
X164445676Y-68362211D01*
X164338422Y-68429604D01*
X164271185Y-68448604D01*
X164204350Y-68428236D01*
X164184769Y-68412291D01*
X164179862Y-68407384D01*
X164027123Y-68311411D01*
X163856854Y-68251831D01*
X163856849Y-68251830D01*
X163677604Y-68231635D01*
X163677596Y-68231635D01*
X163498350Y-68251830D01*
X163498345Y-68251831D01*
X163321771Y-68313618D01*
X163251992Y-68317179D01*
X163193135Y-68284257D01*
X163113062Y-68204184D01*
X162960323Y-68108211D01*
X162790054Y-68048631D01*
X162790049Y-68048630D01*
X162610804Y-68028435D01*
X162610796Y-68028435D01*
X162431550Y-68048630D01*
X162431545Y-68048631D01*
X162261276Y-68108211D01*
X162108537Y-68204184D01*
X161980984Y-68331737D01*
X161885011Y-68484476D01*
X161825431Y-68654745D01*
X161825430Y-68654749D01*
X161804654Y-68839146D01*
X161795996Y-68872712D01*
X161771756Y-68931235D01*
X161751118Y-69087998D01*
X161751118Y-69087999D01*
X161755239Y-69119301D01*
X161756300Y-69135487D01*
X161756300Y-105643302D01*
X161736615Y-105710341D01*
X161719981Y-105730983D01*
X160560265Y-106890698D01*
X160498942Y-106924183D01*
X160486468Y-106926237D01*
X160399550Y-106936030D01*
X160229278Y-106995610D01*
X160076537Y-107091584D01*
X159948984Y-107219137D01*
X159853011Y-107371876D01*
X159793431Y-107542145D01*
X159793430Y-107542150D01*
X159773235Y-107721396D01*
X159773235Y-107721403D01*
X159793430Y-107900649D01*
X159793431Y-107900654D01*
X159853011Y-108070923D01*
X159912489Y-108165581D01*
X159948984Y-108223662D01*
X160076538Y-108351216D01*
X160207871Y-108433738D01*
X160229278Y-108447189D01*
X160395841Y-108505472D01*
X160452618Y-108546194D01*
X160478365Y-108611147D01*
X160464909Y-108679708D01*
X160442568Y-108710195D01*
X155031565Y-114121198D01*
X155019375Y-114131889D01*
X154994316Y-114151118D01*
X154954047Y-114203600D01*
X154916154Y-114252984D01*
X154898064Y-114276559D01*
X154898062Y-114276562D01*
X154898061Y-114276563D01*
X154837557Y-114422634D01*
X154837555Y-114422639D01*
X154816918Y-114579398D01*
X154816918Y-114579399D01*
X154821039Y-114610701D01*
X154822100Y-114626887D01*
X154822100Y-118696784D01*
X154802415Y-118763823D01*
X154749611Y-118809578D01*
X154684217Y-118820004D01*
X154625931Y-118813437D01*
X154561517Y-118786371D01*
X154552133Y-118777898D01*
X152477199Y-116702964D01*
X152466504Y-116690769D01*
X152447281Y-116665717D01*
X152385897Y-116618615D01*
X152344695Y-116562187D01*
X152340540Y-116492441D01*
X152374753Y-116431521D01*
X152376449Y-116429896D01*
X152600790Y-116219226D01*
X152801347Y-115976795D01*
X152969937Y-115711139D01*
X153103903Y-115426447D01*
X153201131Y-115127211D01*
X153260088Y-114818147D01*
X153266845Y-114710747D01*
X153279844Y-114504137D01*
X153279844Y-114504126D01*
X153260089Y-114190127D01*
X153260088Y-114190120D01*
X153260088Y-114190117D01*
X153201131Y-113881053D01*
X153103903Y-113581817D01*
X152969937Y-113297125D01*
X152802310Y-113032986D01*
X152801348Y-113031470D01*
X152801345Y-113031466D01*
X152600793Y-112789041D01*
X152600791Y-112789039D01*
X152371431Y-112573655D01*
X152371421Y-112573647D01*
X152116895Y-112388723D01*
X152116888Y-112388718D01*
X152116884Y-112388716D01*
X151841166Y-112237138D01*
X151841163Y-112237136D01*
X151841158Y-112237134D01*
X151841157Y-112237133D01*
X151548628Y-112121313D01*
X151548625Y-112121312D01*
X151243876Y-112043066D01*
X151243863Y-112043064D01*
X150931729Y-112003632D01*
X150931718Y-112003632D01*
X150617082Y-112003632D01*
X150617070Y-112003632D01*
X150304936Y-112043064D01*
X150304923Y-112043066D01*
X150000174Y-112121312D01*
X150000171Y-112121313D01*
X149707642Y-112237133D01*
X149707641Y-112237134D01*
X149431916Y-112388716D01*
X149431904Y-112388723D01*
X149177378Y-112573647D01*
X149177368Y-112573655D01*
X148948008Y-112789039D01*
X148948006Y-112789041D01*
X148747454Y-113031466D01*
X148747451Y-113031470D01*
X148578864Y-113297122D01*
X148578861Y-113297128D01*
X148444899Y-113581810D01*
X148444897Y-113581815D01*
X148347670Y-113881048D01*
X148288711Y-114190120D01*
X148288710Y-114190127D01*
X148268956Y-114504126D01*
X148268956Y-114504137D01*
X148288710Y-114818136D01*
X148288711Y-114818143D01*
X148347670Y-115127215D01*
X148444897Y-115426448D01*
X148444899Y-115426453D01*
X148578861Y-115711135D01*
X148578864Y-115711141D01*
X148747451Y-115976793D01*
X148747454Y-115976797D01*
X148885255Y-116143369D01*
X148912821Y-116207571D01*
X148901300Y-116276485D01*
X148854351Y-116328230D01*
X148830666Y-116339452D01*
X148748478Y-116368210D01*
X148595737Y-116464184D01*
X148468184Y-116591737D01*
X148372211Y-116744476D01*
X148312631Y-116914745D01*
X148312630Y-116914750D01*
X148292435Y-117093996D01*
X148292435Y-117094003D01*
X148312630Y-117273249D01*
X148312631Y-117273254D01*
X148372211Y-117443524D01*
X148433324Y-117540783D01*
X148454364Y-117574268D01*
X148459206Y-117581973D01*
X148478207Y-117649210D01*
X148457840Y-117716045D01*
X148441895Y-117735627D01*
X148315783Y-117861739D01*
X148219811Y-118014476D01*
X148160231Y-118184745D01*
X148160230Y-118184750D01*
X148140035Y-118363996D01*
X148140035Y-118364003D01*
X148160230Y-118543249D01*
X148160231Y-118543254D01*
X148219811Y-118713523D01*
X148315784Y-118866262D01*
X148348307Y-118898785D01*
X148381792Y-118960108D01*
X148376808Y-119029800D01*
X148344955Y-119073753D01*
X148346662Y-119075460D01*
X148214184Y-119207937D01*
X148118211Y-119360676D01*
X148058631Y-119530945D01*
X148058630Y-119530950D01*
X148038435Y-119710196D01*
X148038435Y-119710203D01*
X146724300Y-119710203D01*
X146724300Y-105704137D01*
X148268956Y-105704137D01*
X148288710Y-106018136D01*
X148288711Y-106018143D01*
X148309994Y-106129712D01*
X148346745Y-106322369D01*
X148347670Y-106327215D01*
X148444897Y-106626448D01*
X148444899Y-106626453D01*
X148578861Y-106911135D01*
X148578864Y-106911141D01*
X148747451Y-107176793D01*
X148747454Y-107176797D01*
X148948006Y-107419222D01*
X148948008Y-107419224D01*
X148948010Y-107419226D01*
X149130803Y-107590880D01*
X149177368Y-107634608D01*
X149177378Y-107634616D01*
X149431904Y-107819540D01*
X149431909Y-107819542D01*
X149431916Y-107819548D01*
X149707634Y-107971126D01*
X149707639Y-107971128D01*
X149707641Y-107971129D01*
X149707642Y-107971130D01*
X150000171Y-108086950D01*
X150000174Y-108086951D01*
X150250459Y-108151213D01*
X150304927Y-108165198D01*
X150370410Y-108173470D01*
X150617070Y-108204631D01*
X150617079Y-108204631D01*
X150617082Y-108204632D01*
X150617084Y-108204632D01*
X150931716Y-108204632D01*
X150931718Y-108204632D01*
X150931721Y-108204631D01*
X150931729Y-108204631D01*
X151117993Y-108181100D01*
X151243873Y-108165198D01*
X151548625Y-108086951D01*
X151567775Y-108079369D01*
X151841157Y-107971130D01*
X151841158Y-107971129D01*
X151841156Y-107971129D01*
X151841166Y-107971126D01*
X152116884Y-107819548D01*
X152371430Y-107634610D01*
X152600790Y-107419226D01*
X152801347Y-107176795D01*
X152969937Y-106911139D01*
X153103903Y-106626447D01*
X153201131Y-106327211D01*
X153260088Y-106018147D01*
X153266845Y-105910747D01*
X153279844Y-105704137D01*
X153279844Y-105704126D01*
X153260089Y-105390127D01*
X153260088Y-105390120D01*
X153260088Y-105390117D01*
X153201131Y-105081053D01*
X153103903Y-104781817D01*
X153102832Y-104779542D01*
X152969938Y-104497128D01*
X152969937Y-104497125D01*
X152801347Y-104231469D01*
X152712498Y-104124069D01*
X152600793Y-103989041D01*
X152600791Y-103989039D01*
X152371431Y-103773655D01*
X152371421Y-103773647D01*
X152116895Y-103588723D01*
X152116888Y-103588718D01*
X152116884Y-103588716D01*
X151841166Y-103437138D01*
X151841163Y-103437136D01*
X151841158Y-103437134D01*
X151841157Y-103437133D01*
X151548628Y-103321313D01*
X151548625Y-103321312D01*
X151243876Y-103243066D01*
X151243863Y-103243064D01*
X150931729Y-103203632D01*
X150931718Y-103203632D01*
X150617082Y-103203632D01*
X150617070Y-103203632D01*
X150304936Y-103243064D01*
X150304923Y-103243066D01*
X150000174Y-103321312D01*
X150000171Y-103321313D01*
X149707642Y-103437133D01*
X149707641Y-103437134D01*
X149431916Y-103588716D01*
X149431904Y-103588723D01*
X149177378Y-103773647D01*
X149177368Y-103773655D01*
X148948008Y-103989039D01*
X148948006Y-103989041D01*
X148747454Y-104231466D01*
X148747451Y-104231470D01*
X148578864Y-104497122D01*
X148578861Y-104497128D01*
X148444899Y-104781810D01*
X148444897Y-104781815D01*
X148347670Y-105081048D01*
X148288711Y-105390120D01*
X148288710Y-105390127D01*
X148268956Y-105704126D01*
X148268956Y-105704137D01*
X146724300Y-105704137D01*
X146724300Y-105494072D01*
X146725964Y-105477788D01*
X146725904Y-105477783D01*
X146726533Y-105470592D01*
X146724352Y-105395621D01*
X146724300Y-105392015D01*
X146724300Y-98996940D01*
X146725964Y-98980656D01*
X146725904Y-98980651D01*
X146726533Y-98973460D01*
X146724352Y-98898489D01*
X146724300Y-98894883D01*
X146724300Y-90115271D01*
X148268956Y-90115271D01*
X148288710Y-90429270D01*
X148288711Y-90429277D01*
X148347670Y-90738349D01*
X148444897Y-91037582D01*
X148444899Y-91037587D01*
X148578861Y-91322269D01*
X148578864Y-91322275D01*
X148747451Y-91587927D01*
X148747454Y-91587931D01*
X148948006Y-91830356D01*
X148948008Y-91830358D01*
X149177368Y-92045742D01*
X149177378Y-92045750D01*
X149431904Y-92230674D01*
X149431909Y-92230676D01*
X149431916Y-92230682D01*
X149707634Y-92382260D01*
X149707639Y-92382262D01*
X149707641Y-92382263D01*
X149707642Y-92382264D01*
X150000171Y-92498084D01*
X150000174Y-92498085D01*
X150304923Y-92576331D01*
X150304927Y-92576332D01*
X150370410Y-92584604D01*
X150617070Y-92615765D01*
X150617079Y-92615765D01*
X150617082Y-92615766D01*
X150617084Y-92615766D01*
X150931716Y-92615766D01*
X150931718Y-92615766D01*
X150931721Y-92615765D01*
X150931729Y-92615765D01*
X151117993Y-92592234D01*
X151243873Y-92576332D01*
X151548625Y-92498085D01*
X151622255Y-92468933D01*
X151841157Y-92382264D01*
X151841158Y-92382263D01*
X151841156Y-92382263D01*
X151841166Y-92382260D01*
X152116884Y-92230682D01*
X152371430Y-92045744D01*
X152600790Y-91830360D01*
X152801347Y-91587929D01*
X152969937Y-91322273D01*
X153103903Y-91037581D01*
X153201131Y-90738345D01*
X153260088Y-90429281D01*
X153266845Y-90321881D01*
X153279844Y-90115271D01*
X153279844Y-90115260D01*
X153260089Y-89801261D01*
X153260088Y-89801254D01*
X153260088Y-89801251D01*
X153201131Y-89492187D01*
X153103903Y-89192951D01*
X152969937Y-88908259D01*
X152801347Y-88642603D01*
X152772610Y-88607866D01*
X152600793Y-88400175D01*
X152600791Y-88400173D01*
X152371431Y-88184789D01*
X152371421Y-88184781D01*
X152116895Y-87999857D01*
X152116888Y-87999852D01*
X152116884Y-87999850D01*
X151841166Y-87848272D01*
X151841163Y-87848270D01*
X151841158Y-87848268D01*
X151841157Y-87848267D01*
X151548628Y-87732447D01*
X151548625Y-87732446D01*
X151243876Y-87654200D01*
X151243863Y-87654198D01*
X150931729Y-87614766D01*
X150931718Y-87614766D01*
X150617082Y-87614766D01*
X150617070Y-87614766D01*
X150304936Y-87654198D01*
X150304923Y-87654200D01*
X150000174Y-87732446D01*
X150000171Y-87732447D01*
X149707642Y-87848267D01*
X149707641Y-87848268D01*
X149431916Y-87999850D01*
X149431904Y-87999857D01*
X149177378Y-88184781D01*
X149177368Y-88184789D01*
X148948008Y-88400173D01*
X148948006Y-88400175D01*
X148747454Y-88642600D01*
X148747451Y-88642604D01*
X148578864Y-88908256D01*
X148578861Y-88908262D01*
X148444899Y-89192944D01*
X148444897Y-89192949D01*
X148347670Y-89492182D01*
X148288711Y-89801254D01*
X148288710Y-89801261D01*
X148268956Y-90115260D01*
X148268956Y-90115271D01*
X146724300Y-90115271D01*
X146724300Y-85478371D01*
X146725609Y-85460401D01*
X146729089Y-85436640D01*
X146724772Y-85387301D01*
X146724300Y-85376492D01*
X146724300Y-81315271D01*
X148268956Y-81315271D01*
X148288710Y-81629270D01*
X148288711Y-81629277D01*
X148288712Y-81629281D01*
X148346344Y-81931401D01*
X148347670Y-81938349D01*
X148444897Y-82237582D01*
X148444899Y-82237587D01*
X148578861Y-82522269D01*
X148578864Y-82522275D01*
X148747451Y-82787927D01*
X148747454Y-82787931D01*
X148948006Y-83030356D01*
X148948008Y-83030358D01*
X149177368Y-83245742D01*
X149177378Y-83245750D01*
X149431904Y-83430674D01*
X149431909Y-83430676D01*
X149431916Y-83430682D01*
X149707634Y-83582260D01*
X149707639Y-83582262D01*
X149707641Y-83582263D01*
X149707642Y-83582264D01*
X150000171Y-83698084D01*
X150000174Y-83698085D01*
X150304923Y-83776331D01*
X150304927Y-83776332D01*
X150370410Y-83784604D01*
X150617070Y-83815765D01*
X150617079Y-83815765D01*
X150617082Y-83815766D01*
X150617084Y-83815766D01*
X150931716Y-83815766D01*
X150931718Y-83815766D01*
X150931721Y-83815765D01*
X150931729Y-83815765D01*
X151117993Y-83792234D01*
X151243873Y-83776332D01*
X151548625Y-83698085D01*
X151622255Y-83668933D01*
X151841157Y-83582264D01*
X151841158Y-83582263D01*
X151841156Y-83582263D01*
X151841166Y-83582260D01*
X152116884Y-83430682D01*
X152371430Y-83245744D01*
X152600790Y-83030360D01*
X152801347Y-82787929D01*
X152969937Y-82522273D01*
X153103903Y-82237581D01*
X153201131Y-81938345D01*
X153260088Y-81629281D01*
X153266845Y-81521881D01*
X153279844Y-81315271D01*
X153279844Y-81315260D01*
X153260089Y-81001261D01*
X153260088Y-81001254D01*
X153260088Y-81001251D01*
X153201131Y-80692187D01*
X153103903Y-80392951D01*
X152969937Y-80108259D01*
X152843103Y-79908400D01*
X152801348Y-79842604D01*
X152801345Y-79842600D01*
X152600793Y-79600175D01*
X152600791Y-79600173D01*
X152371431Y-79384789D01*
X152371421Y-79384781D01*
X152116895Y-79199857D01*
X152116888Y-79199852D01*
X152116884Y-79199850D01*
X151841166Y-79048272D01*
X151841163Y-79048270D01*
X151841158Y-79048268D01*
X151841157Y-79048267D01*
X151548628Y-78932447D01*
X151548625Y-78932446D01*
X151243876Y-78854200D01*
X151243863Y-78854198D01*
X150931729Y-78814766D01*
X150931718Y-78814766D01*
X150617082Y-78814766D01*
X150617070Y-78814766D01*
X150304936Y-78854198D01*
X150304923Y-78854200D01*
X150000174Y-78932446D01*
X150000171Y-78932447D01*
X149707642Y-79048267D01*
X149707641Y-79048268D01*
X149431916Y-79199850D01*
X149431904Y-79199857D01*
X149177378Y-79384781D01*
X149177368Y-79384789D01*
X148948008Y-79600173D01*
X148948006Y-79600175D01*
X148747454Y-79842600D01*
X148747451Y-79842604D01*
X148578864Y-80108256D01*
X148578861Y-80108262D01*
X148444899Y-80392944D01*
X148444897Y-80392949D01*
X148347670Y-80692182D01*
X148288711Y-81001254D01*
X148288710Y-81001261D01*
X148268956Y-81315260D01*
X148268956Y-81315271D01*
X146724300Y-81315271D01*
X146724300Y-65726405D01*
X148268956Y-65726405D01*
X148288710Y-66040404D01*
X148288711Y-66040411D01*
X148347670Y-66349483D01*
X148444897Y-66648716D01*
X148444899Y-66648721D01*
X148578861Y-66933403D01*
X148578864Y-66933409D01*
X148747451Y-67199061D01*
X148747454Y-67199065D01*
X148948006Y-67441490D01*
X148948008Y-67441492D01*
X149177368Y-67656876D01*
X149177378Y-67656884D01*
X149431904Y-67841808D01*
X149431909Y-67841810D01*
X149431916Y-67841816D01*
X149707634Y-67993394D01*
X149707639Y-67993396D01*
X149707641Y-67993397D01*
X149707642Y-67993398D01*
X150000171Y-68109218D01*
X150000174Y-68109219D01*
X150304923Y-68187465D01*
X150304927Y-68187466D01*
X150370410Y-68195738D01*
X150617070Y-68226899D01*
X150617079Y-68226899D01*
X150617082Y-68226900D01*
X150617084Y-68226900D01*
X150931716Y-68226900D01*
X150931718Y-68226900D01*
X150931721Y-68226899D01*
X150931729Y-68226899D01*
X151117993Y-68203368D01*
X151243873Y-68187466D01*
X151548625Y-68109219D01*
X151622255Y-68080067D01*
X151841157Y-67993398D01*
X151841158Y-67993397D01*
X151841156Y-67993397D01*
X151841166Y-67993394D01*
X152116884Y-67841816D01*
X152371430Y-67656878D01*
X152600790Y-67441494D01*
X152801347Y-67199063D01*
X152969937Y-66933407D01*
X153103903Y-66648715D01*
X153201131Y-66349479D01*
X153260088Y-66040415D01*
X153266845Y-65933015D01*
X153279844Y-65726405D01*
X153279844Y-65726394D01*
X153260089Y-65412395D01*
X153260088Y-65412388D01*
X153260088Y-65412385D01*
X153201131Y-65103321D01*
X153103903Y-64804085D01*
X152969937Y-64519393D01*
X152801347Y-64253737D01*
X152772610Y-64219000D01*
X152600793Y-64011309D01*
X152600791Y-64011307D01*
X152371431Y-63795923D01*
X152371421Y-63795915D01*
X152116895Y-63610991D01*
X152116888Y-63610986D01*
X152116884Y-63610984D01*
X151841166Y-63459406D01*
X151841163Y-63459404D01*
X151841158Y-63459402D01*
X151841157Y-63459401D01*
X151548628Y-63343581D01*
X151548625Y-63343580D01*
X151243876Y-63265334D01*
X151243863Y-63265332D01*
X150931729Y-63225900D01*
X150931718Y-63225900D01*
X150617082Y-63225900D01*
X150617070Y-63225900D01*
X150304936Y-63265332D01*
X150304923Y-63265334D01*
X150000174Y-63343580D01*
X150000171Y-63343581D01*
X149707642Y-63459401D01*
X149707641Y-63459402D01*
X149431916Y-63610984D01*
X149431904Y-63610991D01*
X149177378Y-63795915D01*
X149177368Y-63795923D01*
X148948008Y-64011307D01*
X148948006Y-64011309D01*
X148747454Y-64253734D01*
X148747451Y-64253738D01*
X148578864Y-64519390D01*
X148578861Y-64519396D01*
X148444899Y-64804078D01*
X148444897Y-64804083D01*
X148347670Y-65103316D01*
X148288711Y-65412388D01*
X148288710Y-65412395D01*
X148268956Y-65726394D01*
X148268956Y-65726405D01*
X146724300Y-65726405D01*
X146724300Y-61089505D01*
X146725609Y-61071535D01*
X146729089Y-61047774D01*
X146724772Y-60998435D01*
X146724300Y-60987626D01*
X146724300Y-60982096D01*
X146724300Y-60982091D01*
X146720698Y-60951278D01*
X146720334Y-60947715D01*
X146713798Y-60873006D01*
X146713798Y-60873002D01*
X146713795Y-60872995D01*
X146712338Y-60865933D01*
X146712397Y-60865920D01*
X146710767Y-60858564D01*
X146710708Y-60858579D01*
X146709041Y-60851547D01*
X146709041Y-60851545D01*
X146683363Y-60780996D01*
X146682224Y-60777718D01*
X146658614Y-60706465D01*
X146658613Y-60706463D01*
X146655563Y-60699921D01*
X146655617Y-60699895D01*
X146652333Y-60693112D01*
X146652280Y-60693140D01*
X146649038Y-60686685D01*
X146614383Y-60633995D01*
X146607826Y-60624025D01*
X146605907Y-60621012D01*
X146566514Y-60557147D01*
X146562034Y-60551481D01*
X146562080Y-60551443D01*
X146557319Y-60545599D01*
X146557274Y-60545638D01*
X146552631Y-60540105D01*
X146498090Y-60488648D01*
X146495503Y-60486135D01*
X145191469Y-59182101D01*
X145157984Y-59120778D01*
X145158944Y-59063979D01*
X145160534Y-59057705D01*
X145161851Y-59041815D01*
X145179700Y-58826406D01*
X145179700Y-58826393D01*
X145160535Y-58595102D01*
X145160533Y-58595091D01*
X145103557Y-58370099D01*
X145010324Y-58157551D01*
X144883383Y-57963252D01*
X144883380Y-57963249D01*
X144883379Y-57963247D01*
X144726184Y-57792487D01*
X144726179Y-57792483D01*
X144726177Y-57792481D01*
X144543034Y-57649935D01*
X144543028Y-57649931D01*
X144338904Y-57539464D01*
X144338895Y-57539461D01*
X144119384Y-57464102D01*
X143947682Y-57435450D01*
X143890449Y-57425900D01*
X143658351Y-57425900D01*
X143621430Y-57432061D01*
X143429415Y-57464102D01*
X143209904Y-57539461D01*
X143209895Y-57539464D01*
X143005771Y-57649931D01*
X143005765Y-57649935D01*
X142822622Y-57792481D01*
X142822619Y-57792484D01*
X142665416Y-57963252D01*
X142538475Y-58157551D01*
X142445242Y-58370099D01*
X142388266Y-58595091D01*
X142388264Y-58595102D01*
X142369100Y-58826393D01*
X142369100Y-58826406D01*
X142388264Y-59057697D01*
X142388266Y-59057708D01*
X142445242Y-59282700D01*
X142538475Y-59495248D01*
X142665416Y-59689547D01*
X142665419Y-59689551D01*
X142665421Y-59689553D01*
X142822616Y-59860313D01*
X142822619Y-59860315D01*
X142822622Y-59860318D01*
X142974522Y-59978547D01*
X143015335Y-60035257D01*
X143019010Y-60105030D01*
X142984378Y-60165713D01*
X142974522Y-60174253D01*
X142822622Y-60292481D01*
X142822619Y-60292484D01*
X142822616Y-60292486D01*
X142822616Y-60292487D01*
X142773604Y-60345728D01*
X142665416Y-60463252D01*
X142538475Y-60657551D01*
X142445242Y-60870099D01*
X142388266Y-61095091D01*
X142388264Y-61095102D01*
X142369100Y-61326393D01*
X142369100Y-61326406D01*
X142388264Y-61557697D01*
X142388266Y-61557708D01*
X142445242Y-61782700D01*
X142538475Y-61995248D01*
X142665416Y-62189547D01*
X142665419Y-62189551D01*
X142665421Y-62189553D01*
X142822616Y-62360313D01*
X142822619Y-62360315D01*
X142822622Y-62360318D01*
X142974928Y-62478863D01*
X143015741Y-62535573D01*
X143019416Y-62605346D01*
X142984784Y-62666029D01*
X142975605Y-62673982D01*
X142975600Y-62674047D01*
X143641867Y-63340313D01*
X143632085Y-63341720D01*
X143501300Y-63401448D01*
X143392639Y-63495602D01*
X143314907Y-63616556D01*
X143291322Y-63696876D01*
X142623211Y-63028765D01*
X142538916Y-63157790D01*
X142445717Y-63370264D01*
X142388761Y-63595181D01*
X142369602Y-63826394D01*
X142369602Y-63826405D01*
X142388761Y-64057618D01*
X142445717Y-64282535D01*
X142538915Y-64495006D01*
X142623212Y-64624033D01*
X143291322Y-63955923D01*
X143314907Y-64036244D01*
X143392639Y-64157198D01*
X143501300Y-64251352D01*
X143632085Y-64311080D01*
X143641866Y-64312486D01*
X142975601Y-64978751D01*
X143006049Y-65002450D01*
X143210097Y-65112876D01*
X143210106Y-65112879D01*
X143429539Y-65188211D01*
X143658393Y-65226400D01*
X143890407Y-65226400D01*
X144119260Y-65188211D01*
X144338693Y-65112879D01*
X144338701Y-65112876D01*
X144542755Y-65002447D01*
X144573197Y-64978751D01*
X144573198Y-64978750D01*
X143906934Y-64312486D01*
X143916715Y-64311080D01*
X144047500Y-64251352D01*
X144156161Y-64157198D01*
X144233893Y-64036244D01*
X144257476Y-63955923D01*
X144925586Y-64624033D01*
X144995492Y-64517037D01*
X145048638Y-64471680D01*
X145117870Y-64462257D01*
X145181205Y-64491760D01*
X145218537Y-64550820D01*
X145223300Y-64584859D01*
X145223300Y-82455891D01*
X145203615Y-82522930D01*
X145150811Y-82568685D01*
X145081653Y-82578629D01*
X145018097Y-82549604D01*
X144995491Y-82523713D01*
X144883381Y-82352116D01*
X144883380Y-82352115D01*
X144883379Y-82352113D01*
X144726184Y-82181353D01*
X144726179Y-82181349D01*
X144726177Y-82181347D01*
X144543034Y-82038801D01*
X144543028Y-82038797D01*
X144338904Y-81928330D01*
X144338895Y-81928327D01*
X144119384Y-81852968D01*
X143947682Y-81824316D01*
X143890449Y-81814766D01*
X143658351Y-81814766D01*
X143621430Y-81820927D01*
X143429415Y-81852968D01*
X143209904Y-81928327D01*
X143209895Y-81928330D01*
X143005771Y-82038797D01*
X143005765Y-82038801D01*
X142822622Y-82181347D01*
X142822619Y-82181350D01*
X142822616Y-82181352D01*
X142822616Y-82181353D01*
X142764287Y-82244716D01*
X142665415Y-82352120D01*
X142628523Y-82408588D01*
X142575377Y-82453944D01*
X142524715Y-82464766D01*
X126681295Y-82464766D01*
X126614256Y-82445081D01*
X126593614Y-82428447D01*
X125373027Y-81207860D01*
X123765505Y-79600337D01*
X123742856Y-79564264D01*
X123741012Y-79565153D01*
X123737992Y-79558883D01*
X123737988Y-79558876D01*
X123642016Y-79406138D01*
X123514462Y-79278584D01*
X123512547Y-79277381D01*
X123361723Y-79182611D01*
X123191454Y-79123031D01*
X123191449Y-79123030D01*
X123012204Y-79102835D01*
X123012196Y-79102835D01*
X122832950Y-79123030D01*
X122832945Y-79123031D01*
X122662676Y-79182611D01*
X122509937Y-79278584D01*
X122382384Y-79406137D01*
X122286411Y-79558876D01*
X122226831Y-79729145D01*
X122226830Y-79729150D01*
X122206635Y-79908396D01*
X122206635Y-79908403D01*
X122226830Y-80087649D01*
X122226831Y-80087654D01*
X122286411Y-80257923D01*
X122303767Y-80285544D01*
X122382384Y-80410662D01*
X122509938Y-80538216D01*
X122662678Y-80634189D01*
X122662680Y-80634189D01*
X122662684Y-80634192D01*
X122668956Y-80637213D01*
X122668069Y-80639053D01*
X122704139Y-80661707D01*
X125743336Y-83700904D01*
X125755117Y-83714536D01*
X125769454Y-83733794D01*
X125807403Y-83765638D01*
X125815376Y-83772945D01*
X125819283Y-83776852D01*
X125819289Y-83776857D01*
X125843603Y-83796082D01*
X125846384Y-83798346D01*
X125867143Y-83815765D01*
X125903855Y-83846571D01*
X125909884Y-83850536D01*
X125909851Y-83850585D01*
X125916213Y-83854638D01*
X125916245Y-83854587D01*
X125922385Y-83858374D01*
X125922389Y-83858377D01*
X125961043Y-83876401D01*
X125990386Y-83890085D01*
X125993632Y-83891657D01*
X126060628Y-83925304D01*
X126067423Y-83927777D01*
X126067402Y-83927833D01*
X126074523Y-83930309D01*
X126074542Y-83930252D01*
X126081385Y-83932519D01*
X126081393Y-83932523D01*
X126154961Y-83947713D01*
X126158294Y-83948452D01*
X126231345Y-83965766D01*
X126231347Y-83965766D01*
X126231351Y-83965767D01*
X126238519Y-83966605D01*
X126238512Y-83966664D01*
X126246010Y-83967430D01*
X126246016Y-83967371D01*
X126253205Y-83968000D01*
X126253209Y-83967999D01*
X126253210Y-83968000D01*
X126328196Y-83965818D01*
X126331803Y-83965766D01*
X142524715Y-83965766D01*
X142591754Y-83985451D01*
X142628523Y-84021944D01*
X142665415Y-84078411D01*
X142665417Y-84078413D01*
X142665421Y-84078419D01*
X142822616Y-84249179D01*
X142822619Y-84249181D01*
X142822622Y-84249184D01*
X142974522Y-84367413D01*
X143015335Y-84424123D01*
X143019010Y-84493896D01*
X142984378Y-84554579D01*
X142974522Y-84563119D01*
X142822622Y-84681347D01*
X142822619Y-84681350D01*
X142665416Y-84852118D01*
X142538475Y-85046417D01*
X142445242Y-85258965D01*
X142388266Y-85483957D01*
X142388264Y-85483968D01*
X142369100Y-85715259D01*
X142369100Y-85715272D01*
X142388264Y-85946563D01*
X142388266Y-85946574D01*
X142445242Y-86171566D01*
X142538475Y-86384114D01*
X142665416Y-86578413D01*
X142665419Y-86578417D01*
X142665421Y-86578419D01*
X142822616Y-86749179D01*
X142822619Y-86749181D01*
X142822622Y-86749184D01*
X142974928Y-86867729D01*
X143015741Y-86924439D01*
X143019416Y-86994212D01*
X142984784Y-87054895D01*
X142975605Y-87062848D01*
X142975600Y-87062913D01*
X143641867Y-87729179D01*
X143632085Y-87730586D01*
X143501300Y-87790314D01*
X143392639Y-87884468D01*
X143314907Y-88005422D01*
X143291322Y-88085742D01*
X142623211Y-87417631D01*
X142538916Y-87546656D01*
X142445717Y-87759130D01*
X142388761Y-87984047D01*
X142369602Y-88215260D01*
X142369602Y-88215271D01*
X142388761Y-88446484D01*
X142445717Y-88671401D01*
X142538915Y-88883872D01*
X142623212Y-89012899D01*
X143291322Y-88344789D01*
X143314907Y-88425110D01*
X143392639Y-88546064D01*
X143501300Y-88640218D01*
X143632085Y-88699946D01*
X143641866Y-88701352D01*
X142975601Y-89367617D01*
X143006049Y-89391316D01*
X143210097Y-89501742D01*
X143210106Y-89501745D01*
X143429539Y-89577077D01*
X143658393Y-89615266D01*
X143890407Y-89615266D01*
X144119260Y-89577077D01*
X144338693Y-89501745D01*
X144338701Y-89501742D01*
X144542755Y-89391313D01*
X144573197Y-89367617D01*
X144573198Y-89367616D01*
X143906934Y-88701352D01*
X143916715Y-88699946D01*
X144047500Y-88640218D01*
X144156161Y-88546064D01*
X144233893Y-88425110D01*
X144257476Y-88344789D01*
X144925586Y-89012899D01*
X144995492Y-88905903D01*
X145048638Y-88860546D01*
X145117870Y-88851123D01*
X145181205Y-88880626D01*
X145218537Y-88939686D01*
X145223300Y-88973725D01*
X145223300Y-98545370D01*
X145203615Y-98612409D01*
X145186981Y-98633051D01*
X139069851Y-104750181D01*
X139008528Y-104783666D01*
X138982170Y-104786500D01*
X122092972Y-104786500D01*
X122052017Y-104779542D01*
X121972254Y-104751631D01*
X121972249Y-104751630D01*
X121793004Y-104731435D01*
X121792996Y-104731435D01*
X121613750Y-104751630D01*
X121613745Y-104751631D01*
X121443476Y-104811211D01*
X121290737Y-104907184D01*
X121163184Y-105034737D01*
X121067211Y-105187476D01*
X121007631Y-105357745D01*
X121007630Y-105357750D01*
X120987435Y-105536996D01*
X120987435Y-105537003D01*
X100496592Y-105537003D01*
X100496592Y-88835555D01*
X104279194Y-88835555D01*
X104298383Y-89067132D01*
X104298383Y-89067135D01*
X104298384Y-89067136D01*
X104303047Y-89085549D01*
X104355429Y-89292404D01*
X104448775Y-89505212D01*
X104520678Y-89615266D01*
X104575875Y-89699751D01*
X104733261Y-89870718D01*
X104733264Y-89870720D01*
X104733267Y-89870723D01*
X104916632Y-90013442D01*
X104916638Y-90013446D01*
X104916641Y-90013448D01*
X105121012Y-90124049D01*
X105340800Y-90199502D01*
X105570010Y-90237750D01*
X105802390Y-90237750D01*
X106031600Y-90199502D01*
X106251388Y-90124049D01*
X106455759Y-90013448D01*
X106462925Y-90007871D01*
X106517338Y-89965519D01*
X106639139Y-89870718D01*
X106796525Y-89699751D01*
X106923625Y-89505211D01*
X107016971Y-89292404D01*
X107074016Y-89067136D01*
X107087181Y-88908259D01*
X107093206Y-88835555D01*
X116779194Y-88835555D01*
X116798383Y-89067132D01*
X116798383Y-89067135D01*
X116798384Y-89067136D01*
X116803047Y-89085549D01*
X116855429Y-89292404D01*
X116948775Y-89505212D01*
X117020678Y-89615266D01*
X117075875Y-89699751D01*
X117233261Y-89870718D01*
X117233264Y-89870720D01*
X117233267Y-89870723D01*
X117416632Y-90013442D01*
X117416638Y-90013446D01*
X117416641Y-90013448D01*
X117621012Y-90124049D01*
X117840800Y-90199502D01*
X118070010Y-90237750D01*
X118302390Y-90237750D01*
X118531600Y-90199502D01*
X118751388Y-90124049D01*
X118955759Y-90013448D01*
X118962925Y-90007871D01*
X119017338Y-89965519D01*
X119139139Y-89870718D01*
X119296525Y-89699751D01*
X119423625Y-89505211D01*
X119516971Y-89292404D01*
X119574016Y-89067136D01*
X119587181Y-88908259D01*
X119593206Y-88835555D01*
X119593206Y-88835544D01*
X119577218Y-88642603D01*
X119574016Y-88603964D01*
X119516971Y-88378696D01*
X119423625Y-88165889D01*
X119385716Y-88107866D01*
X119296526Y-87971351D01*
X119296525Y-87971349D01*
X119139139Y-87800382D01*
X119139134Y-87800378D01*
X119139132Y-87800376D01*
X118955767Y-87657657D01*
X118955761Y-87657653D01*
X118751388Y-87547051D01*
X118751380Y-87547048D01*
X118531602Y-87471598D01*
X118302390Y-87433350D01*
X118070010Y-87433350D01*
X117840797Y-87471598D01*
X117621019Y-87547048D01*
X117621011Y-87547051D01*
X117416638Y-87657653D01*
X117416632Y-87657657D01*
X117233267Y-87800376D01*
X117233264Y-87800379D01*
X117075876Y-87971347D01*
X117075873Y-87971351D01*
X116948775Y-88165887D01*
X116855429Y-88378695D01*
X116798383Y-88603967D01*
X116779194Y-88835544D01*
X116779194Y-88835555D01*
X107093206Y-88835555D01*
X107093206Y-88835544D01*
X107077218Y-88642603D01*
X107074016Y-88603964D01*
X107016971Y-88378696D01*
X106923625Y-88165889D01*
X106885716Y-88107866D01*
X106796526Y-87971351D01*
X106796525Y-87971349D01*
X106639139Y-87800382D01*
X106639134Y-87800378D01*
X106639132Y-87800376D01*
X106455767Y-87657657D01*
X106455761Y-87657653D01*
X106251388Y-87547051D01*
X106251380Y-87547048D01*
X106031602Y-87471598D01*
X105802390Y-87433350D01*
X105570010Y-87433350D01*
X105340797Y-87471598D01*
X105121019Y-87547048D01*
X105121011Y-87547051D01*
X104916638Y-87657653D01*
X104916632Y-87657657D01*
X104733267Y-87800376D01*
X104733264Y-87800379D01*
X104575876Y-87971347D01*
X104575873Y-87971351D01*
X104448775Y-88165887D01*
X104355429Y-88378695D01*
X104298383Y-88603967D01*
X104279194Y-88835544D01*
X104279194Y-88835555D01*
X100496592Y-88835555D01*
X100496592Y-86335556D01*
X120642250Y-86335556D01*
X120661414Y-86566847D01*
X120661416Y-86566858D01*
X120718392Y-86791850D01*
X120811625Y-87004398D01*
X120938566Y-87198697D01*
X120938569Y-87198701D01*
X120938571Y-87198703D01*
X121095766Y-87369463D01*
X121095769Y-87369465D01*
X121095772Y-87369468D01*
X121278915Y-87512014D01*
X121278921Y-87512018D01*
X121278924Y-87512020D01*
X121483047Y-87622486D01*
X121568232Y-87651730D01*
X121702565Y-87697847D01*
X121702567Y-87697847D01*
X121702569Y-87697848D01*
X121931501Y-87736050D01*
X121931502Y-87736050D01*
X122163598Y-87736050D01*
X122163599Y-87736050D01*
X122392531Y-87697848D01*
X122612053Y-87622486D01*
X122816176Y-87512020D01*
X122822156Y-87507366D01*
X122887115Y-87456806D01*
X122999334Y-87369463D01*
X123007680Y-87360396D01*
X123067560Y-87324404D01*
X123137399Y-87326499D01*
X123195018Y-87366019D01*
X123215094Y-87401041D01*
X123243753Y-87477880D01*
X123243756Y-87477885D01*
X123330002Y-87593094D01*
X123330005Y-87593097D01*
X123445214Y-87679343D01*
X123445221Y-87679347D01*
X123580067Y-87729641D01*
X123580066Y-87729641D01*
X123586994Y-87730385D01*
X123639677Y-87736050D01*
X125535422Y-87736049D01*
X125595033Y-87729641D01*
X125729881Y-87679346D01*
X125845096Y-87593096D01*
X125931346Y-87477881D01*
X125981641Y-87343033D01*
X125988050Y-87283423D01*
X125988049Y-85387678D01*
X125982849Y-85339307D01*
X125981641Y-85328066D01*
X125931347Y-85193221D01*
X125931343Y-85193214D01*
X125845097Y-85078005D01*
X125845094Y-85078002D01*
X125729885Y-84991756D01*
X125729878Y-84991752D01*
X125595032Y-84941458D01*
X125595033Y-84941458D01*
X125535433Y-84935051D01*
X125535431Y-84935050D01*
X125535423Y-84935050D01*
X125535414Y-84935050D01*
X123639679Y-84935050D01*
X123639673Y-84935051D01*
X123580066Y-84941458D01*
X123445221Y-84991752D01*
X123445214Y-84991756D01*
X123330005Y-85078002D01*
X123330002Y-85078005D01*
X123243756Y-85193214D01*
X123243753Y-85193220D01*
X123215094Y-85270058D01*
X123173222Y-85325991D01*
X123107758Y-85350408D01*
X123039485Y-85335556D01*
X123007685Y-85310708D01*
X122999334Y-85301637D01*
X122999328Y-85301632D01*
X122999327Y-85301631D01*
X122816184Y-85159085D01*
X122816178Y-85159081D01*
X122612054Y-85048614D01*
X122612045Y-85048611D01*
X122392534Y-84973252D01*
X122202000Y-84941458D01*
X122163599Y-84935050D01*
X121931501Y-84935050D01*
X121893100Y-84941458D01*
X121702565Y-84973252D01*
X121483054Y-85048611D01*
X121483045Y-85048614D01*
X121278921Y-85159081D01*
X121278915Y-85159085D01*
X121095772Y-85301631D01*
X121095769Y-85301634D01*
X121095766Y-85301636D01*
X121095766Y-85301637D01*
X121055322Y-85345571D01*
X120938566Y-85472402D01*
X120811625Y-85666701D01*
X120718392Y-85879249D01*
X120661416Y-86104241D01*
X120661414Y-86104252D01*
X120642250Y-86335543D01*
X120642250Y-86335556D01*
X100496592Y-86335556D01*
X100496592Y-84785094D01*
X104284500Y-84785094D01*
X104290901Y-84844622D01*
X104290903Y-84844629D01*
X104341145Y-84979336D01*
X104341149Y-84979343D01*
X104427309Y-85094437D01*
X104427312Y-85094440D01*
X104542406Y-85180600D01*
X104542413Y-85180604D01*
X104677120Y-85230846D01*
X104677127Y-85230848D01*
X104736655Y-85237249D01*
X104736672Y-85237250D01*
X105436200Y-85237250D01*
X105436200Y-84437236D01*
X105445871Y-84442553D01*
X105604376Y-84483250D01*
X105726952Y-84483250D01*
X105848557Y-84467888D01*
X105936200Y-84433187D01*
X105936200Y-85237250D01*
X106635728Y-85237250D01*
X106635744Y-85237249D01*
X106695272Y-85230848D01*
X106695279Y-85230846D01*
X106829986Y-85180604D01*
X106829993Y-85180600D01*
X106945087Y-85094440D01*
X106945090Y-85094437D01*
X107031250Y-84979343D01*
X107031254Y-84979336D01*
X107081496Y-84844629D01*
X107081498Y-84844622D01*
X107087899Y-84785094D01*
X107087900Y-84785077D01*
X107087900Y-84085550D01*
X106284386Y-84085550D01*
X106307095Y-84037291D01*
X106337760Y-83876543D01*
X106335181Y-83835555D01*
X116779194Y-83835555D01*
X116798383Y-84067132D01*
X116855429Y-84292404D01*
X116948775Y-84505212D01*
X117063851Y-84681347D01*
X117075875Y-84699751D01*
X117233261Y-84870718D01*
X117233264Y-84870720D01*
X117233267Y-84870723D01*
X117416632Y-85013442D01*
X117416638Y-85013446D01*
X117416641Y-85013448D01*
X117621012Y-85124049D01*
X117840800Y-85199502D01*
X118070010Y-85237750D01*
X118302390Y-85237750D01*
X118531600Y-85199502D01*
X118751388Y-85124049D01*
X118955759Y-85013448D01*
X119139139Y-84870718D01*
X119296525Y-84699751D01*
X119423625Y-84505211D01*
X119516971Y-84292404D01*
X119574016Y-84067136D01*
X119583914Y-83947691D01*
X119593206Y-83835555D01*
X119593206Y-83835544D01*
X119574016Y-83603967D01*
X119574016Y-83603964D01*
X119516971Y-83378696D01*
X119423625Y-83165889D01*
X119385720Y-83107872D01*
X119296526Y-82971351D01*
X119296525Y-82971349D01*
X119139139Y-82800382D01*
X119139134Y-82800378D01*
X119139132Y-82800376D01*
X118955767Y-82657657D01*
X118955761Y-82657653D01*
X118751388Y-82547051D01*
X118751380Y-82547048D01*
X118531602Y-82471598D01*
X118302390Y-82433350D01*
X118070010Y-82433350D01*
X117840797Y-82471598D01*
X117621019Y-82547048D01*
X117621011Y-82547051D01*
X117416638Y-82657653D01*
X117416632Y-82657657D01*
X117233267Y-82800376D01*
X117233264Y-82800379D01*
X117075876Y-82971347D01*
X117075873Y-82971351D01*
X116948775Y-83165887D01*
X116855429Y-83378695D01*
X116798383Y-83603967D01*
X116779194Y-83835544D01*
X116779194Y-83835555D01*
X106335181Y-83835555D01*
X106327484Y-83713218D01*
X106286003Y-83585550D01*
X107087900Y-83585550D01*
X107087900Y-82886022D01*
X107087899Y-82886005D01*
X107081498Y-82826477D01*
X107081496Y-82826470D01*
X107031254Y-82691763D01*
X107031250Y-82691756D01*
X106945090Y-82576662D01*
X106945087Y-82576659D01*
X106829993Y-82490499D01*
X106829986Y-82490495D01*
X106695279Y-82440253D01*
X106695272Y-82440251D01*
X106635744Y-82433850D01*
X105936200Y-82433850D01*
X105936200Y-83233863D01*
X105926529Y-83228547D01*
X105768024Y-83187850D01*
X105645448Y-83187850D01*
X105523843Y-83203212D01*
X105436200Y-83237912D01*
X105436200Y-82433850D01*
X104736655Y-82433850D01*
X104677127Y-82440251D01*
X104677120Y-82440253D01*
X104542413Y-82490495D01*
X104542406Y-82490499D01*
X104427312Y-82576659D01*
X104427309Y-82576662D01*
X104341149Y-82691756D01*
X104341145Y-82691763D01*
X104290903Y-82826470D01*
X104290901Y-82826477D01*
X104284500Y-82886005D01*
X104284500Y-83585550D01*
X105088014Y-83585550D01*
X105065305Y-83633809D01*
X105034640Y-83794557D01*
X105044916Y-83957882D01*
X105086397Y-84085550D01*
X104284500Y-84085550D01*
X104284500Y-84785094D01*
X100496592Y-84785094D01*
X100496592Y-63950437D01*
X104279194Y-63950437D01*
X104298383Y-64182014D01*
X104355429Y-64407286D01*
X104448775Y-64620094D01*
X104498814Y-64696683D01*
X104575875Y-64814633D01*
X104733261Y-64985600D01*
X104733264Y-64985602D01*
X104733267Y-64985605D01*
X104916632Y-65128324D01*
X104916638Y-65128328D01*
X104916641Y-65128330D01*
X105121012Y-65238931D01*
X105340800Y-65314384D01*
X105570010Y-65352632D01*
X105802390Y-65352632D01*
X106031600Y-65314384D01*
X106251388Y-65238931D01*
X106455759Y-65128330D01*
X106475611Y-65112879D01*
X106617490Y-65002450D01*
X106639139Y-64985600D01*
X106796525Y-64814633D01*
X106923625Y-64620093D01*
X107016971Y-64407286D01*
X107074016Y-64182018D01*
X107093206Y-63950437D01*
X116779194Y-63950437D01*
X116798383Y-64182014D01*
X116855429Y-64407286D01*
X116948775Y-64620094D01*
X116998814Y-64696683D01*
X117075875Y-64814633D01*
X117233261Y-64985600D01*
X117233264Y-64985602D01*
X117233267Y-64985605D01*
X117416632Y-65128324D01*
X117416638Y-65128328D01*
X117416641Y-65128330D01*
X117621012Y-65238931D01*
X117840800Y-65314384D01*
X118070010Y-65352632D01*
X118302390Y-65352632D01*
X118531600Y-65314384D01*
X118751388Y-65238931D01*
X118955759Y-65128330D01*
X118975611Y-65112879D01*
X119117490Y-65002450D01*
X119139139Y-64985600D01*
X119296525Y-64814633D01*
X119423625Y-64620093D01*
X119516971Y-64407286D01*
X119574016Y-64182018D01*
X119593206Y-63950432D01*
X119593188Y-63950218D01*
X119574029Y-63719000D01*
X119574016Y-63718846D01*
X119516971Y-63493578D01*
X119423625Y-63280771D01*
X119413539Y-63265334D01*
X119328374Y-63134979D01*
X119296525Y-63086231D01*
X119139139Y-62915264D01*
X119139134Y-62915260D01*
X119139132Y-62915258D01*
X118955767Y-62772539D01*
X118955761Y-62772535D01*
X118751388Y-62661933D01*
X118751380Y-62661930D01*
X118531602Y-62586480D01*
X118302390Y-62548232D01*
X118070010Y-62548232D01*
X117840797Y-62586480D01*
X117621019Y-62661930D01*
X117621011Y-62661933D01*
X117416638Y-62772535D01*
X117416632Y-62772539D01*
X117233267Y-62915258D01*
X117233264Y-62915261D01*
X117075876Y-63086229D01*
X117075873Y-63086233D01*
X116948775Y-63280769D01*
X116855429Y-63493577D01*
X116798383Y-63718849D01*
X116779194Y-63950426D01*
X116779194Y-63950437D01*
X107093206Y-63950437D01*
X107093206Y-63950432D01*
X107093188Y-63950218D01*
X107074029Y-63719000D01*
X107074016Y-63718846D01*
X107016971Y-63493578D01*
X106923625Y-63280771D01*
X106913539Y-63265334D01*
X106828374Y-63134979D01*
X106796525Y-63086231D01*
X106639139Y-62915264D01*
X106639134Y-62915260D01*
X106639132Y-62915258D01*
X106455767Y-62772539D01*
X106455761Y-62772535D01*
X106251388Y-62661933D01*
X106251380Y-62661930D01*
X106031602Y-62586480D01*
X105802390Y-62548232D01*
X105570010Y-62548232D01*
X105340797Y-62586480D01*
X105121019Y-62661930D01*
X105121011Y-62661933D01*
X104916638Y-62772535D01*
X104916632Y-62772539D01*
X104733267Y-62915258D01*
X104733264Y-62915261D01*
X104575876Y-63086229D01*
X104575873Y-63086233D01*
X104448775Y-63280769D01*
X104355429Y-63493577D01*
X104298383Y-63718849D01*
X104279194Y-63950426D01*
X104279194Y-63950437D01*
X100496592Y-63950437D01*
X100496592Y-61450438D01*
X120642250Y-61450438D01*
X120661414Y-61681729D01*
X120661416Y-61681740D01*
X120718392Y-61906732D01*
X120811625Y-62119280D01*
X120938566Y-62313579D01*
X120938569Y-62313583D01*
X120938571Y-62313585D01*
X121095766Y-62484345D01*
X121095769Y-62484347D01*
X121095772Y-62484350D01*
X121278915Y-62626896D01*
X121278921Y-62626900D01*
X121278924Y-62626902D01*
X121483047Y-62737368D01*
X121585482Y-62772534D01*
X121702565Y-62812729D01*
X121702567Y-62812729D01*
X121702569Y-62812730D01*
X121931501Y-62850932D01*
X121931502Y-62850932D01*
X122163598Y-62850932D01*
X122163599Y-62850932D01*
X122392531Y-62812730D01*
X122612053Y-62737368D01*
X122816176Y-62626902D01*
X122827795Y-62617859D01*
X122894170Y-62566197D01*
X122999334Y-62484345D01*
X123007680Y-62475278D01*
X123067560Y-62439286D01*
X123137399Y-62441381D01*
X123195018Y-62480901D01*
X123215094Y-62515923D01*
X123243753Y-62592762D01*
X123243756Y-62592767D01*
X123330002Y-62707976D01*
X123330005Y-62707979D01*
X123445214Y-62794225D01*
X123445221Y-62794229D01*
X123580067Y-62844523D01*
X123580066Y-62844523D01*
X123586994Y-62845267D01*
X123639677Y-62850932D01*
X125535422Y-62850931D01*
X125595033Y-62844523D01*
X125729881Y-62794228D01*
X125845096Y-62707978D01*
X125931346Y-62592763D01*
X125981641Y-62457915D01*
X125988050Y-62398305D01*
X125988049Y-60502560D01*
X125981641Y-60442949D01*
X125971783Y-60416519D01*
X125931347Y-60308103D01*
X125931343Y-60308096D01*
X125845097Y-60192887D01*
X125845094Y-60192884D01*
X125729885Y-60106638D01*
X125729878Y-60106634D01*
X125595032Y-60056340D01*
X125595033Y-60056340D01*
X125535433Y-60049933D01*
X125535431Y-60049932D01*
X125535423Y-60049932D01*
X125535414Y-60049932D01*
X123639679Y-60049932D01*
X123639673Y-60049933D01*
X123580066Y-60056340D01*
X123445221Y-60106634D01*
X123445214Y-60106638D01*
X123330005Y-60192884D01*
X123330002Y-60192887D01*
X123243756Y-60308096D01*
X123243753Y-60308102D01*
X123215094Y-60384940D01*
X123173222Y-60440873D01*
X123107758Y-60465290D01*
X123039485Y-60450438D01*
X123007685Y-60425590D01*
X122999334Y-60416519D01*
X122999328Y-60416514D01*
X122999327Y-60416513D01*
X122816184Y-60273967D01*
X122816178Y-60273963D01*
X122612054Y-60163496D01*
X122612045Y-60163493D01*
X122392534Y-60088134D01*
X122220832Y-60059482D01*
X122163599Y-60049932D01*
X121931501Y-60049932D01*
X121893100Y-60056340D01*
X121702565Y-60088134D01*
X121483054Y-60163493D01*
X121483045Y-60163496D01*
X121278921Y-60273963D01*
X121278915Y-60273967D01*
X121095772Y-60416513D01*
X121095769Y-60416516D01*
X121095766Y-60416518D01*
X121095766Y-60416519D01*
X121052750Y-60463247D01*
X120938566Y-60587284D01*
X120811625Y-60781583D01*
X120718392Y-60994131D01*
X120661416Y-61219123D01*
X120661414Y-61219134D01*
X120642250Y-61450425D01*
X120642250Y-61450438D01*
X100496592Y-61450438D01*
X100496592Y-59899976D01*
X104284500Y-59899976D01*
X104290901Y-59959504D01*
X104290903Y-59959511D01*
X104341145Y-60094218D01*
X104341149Y-60094225D01*
X104427309Y-60209319D01*
X104427312Y-60209322D01*
X104542406Y-60295482D01*
X104542413Y-60295486D01*
X104677120Y-60345728D01*
X104677127Y-60345730D01*
X104736655Y-60352131D01*
X104736672Y-60352132D01*
X105436200Y-60352132D01*
X105436200Y-59552118D01*
X105445871Y-59557435D01*
X105604376Y-59598132D01*
X105726952Y-59598132D01*
X105848557Y-59582770D01*
X105936200Y-59548069D01*
X105936200Y-60352132D01*
X106635728Y-60352132D01*
X106635744Y-60352131D01*
X106695272Y-60345730D01*
X106695279Y-60345728D01*
X106829986Y-60295486D01*
X106829993Y-60295482D01*
X106945087Y-60209322D01*
X106945090Y-60209319D01*
X107031250Y-60094225D01*
X107031254Y-60094218D01*
X107081496Y-59959511D01*
X107081498Y-59959504D01*
X107087899Y-59899976D01*
X107087900Y-59899959D01*
X107087900Y-59200432D01*
X106284386Y-59200432D01*
X106307095Y-59152173D01*
X106337760Y-58991425D01*
X106335181Y-58950437D01*
X116779194Y-58950437D01*
X116798383Y-59182014D01*
X116855429Y-59407286D01*
X116948775Y-59620094D01*
X117016453Y-59723682D01*
X117075875Y-59814633D01*
X117233261Y-59985600D01*
X117233264Y-59985602D01*
X117233267Y-59985605D01*
X117416632Y-60128324D01*
X117416638Y-60128328D01*
X117416641Y-60128330D01*
X117621012Y-60238931D01*
X117840800Y-60314384D01*
X118070010Y-60352632D01*
X118302390Y-60352632D01*
X118531600Y-60314384D01*
X118751388Y-60238931D01*
X118955759Y-60128330D01*
X118961937Y-60123522D01*
X119065995Y-60042530D01*
X119139139Y-59985600D01*
X119296525Y-59814633D01*
X119423625Y-59620093D01*
X119516971Y-59407286D01*
X119574016Y-59182018D01*
X119584317Y-59057705D01*
X119593206Y-58950437D01*
X119593206Y-58950426D01*
X119574016Y-58718849D01*
X119574016Y-58718846D01*
X119516971Y-58493578D01*
X119423625Y-58280771D01*
X119296525Y-58086231D01*
X119139139Y-57915264D01*
X119139134Y-57915260D01*
X119139132Y-57915258D01*
X118955767Y-57772539D01*
X118955761Y-57772535D01*
X118751388Y-57661933D01*
X118751380Y-57661930D01*
X118531602Y-57586480D01*
X118302390Y-57548232D01*
X118070010Y-57548232D01*
X117840797Y-57586480D01*
X117621019Y-57661930D01*
X117621011Y-57661933D01*
X117416638Y-57772535D01*
X117416632Y-57772539D01*
X117233267Y-57915258D01*
X117233264Y-57915261D01*
X117075876Y-58086229D01*
X117075873Y-58086233D01*
X116948775Y-58280769D01*
X116855429Y-58493577D01*
X116798383Y-58718849D01*
X116779194Y-58950426D01*
X116779194Y-58950437D01*
X106335181Y-58950437D01*
X106327484Y-58828100D01*
X106286003Y-58700432D01*
X107087900Y-58700432D01*
X107087900Y-58000904D01*
X107087899Y-58000887D01*
X107081498Y-57941359D01*
X107081496Y-57941352D01*
X107031254Y-57806645D01*
X107031250Y-57806638D01*
X106945090Y-57691544D01*
X106945087Y-57691541D01*
X106829993Y-57605381D01*
X106829986Y-57605377D01*
X106695279Y-57555135D01*
X106695272Y-57555133D01*
X106635744Y-57548732D01*
X105936200Y-57548732D01*
X105936200Y-58348745D01*
X105926529Y-58343429D01*
X105768024Y-58302732D01*
X105645448Y-58302732D01*
X105523843Y-58318094D01*
X105436200Y-58352794D01*
X105436200Y-57548732D01*
X104736655Y-57548732D01*
X104677127Y-57555133D01*
X104677120Y-57555135D01*
X104542413Y-57605377D01*
X104542406Y-57605381D01*
X104427312Y-57691541D01*
X104427309Y-57691544D01*
X104341149Y-57806638D01*
X104341145Y-57806645D01*
X104290903Y-57941352D01*
X104290901Y-57941359D01*
X104284500Y-58000887D01*
X104284500Y-58700432D01*
X105088014Y-58700432D01*
X105065305Y-58748691D01*
X105034640Y-58909439D01*
X105044916Y-59072764D01*
X105086397Y-59200432D01*
X104284500Y-59200432D01*
X104284500Y-59899976D01*
X100496592Y-59899976D01*
X100496592Y-56926405D01*
X148268956Y-56926405D01*
X148288710Y-57240404D01*
X148288711Y-57240411D01*
X148288712Y-57240415D01*
X148346344Y-57542535D01*
X148347670Y-57549483D01*
X148444897Y-57848716D01*
X148444899Y-57848721D01*
X148578861Y-58133403D01*
X148578864Y-58133409D01*
X148747451Y-58399061D01*
X148747454Y-58399065D01*
X148948006Y-58641490D01*
X148948008Y-58641492D01*
X148948010Y-58641494D01*
X149030385Y-58718849D01*
X149177368Y-58856876D01*
X149177378Y-58856884D01*
X149431904Y-59041808D01*
X149431909Y-59041810D01*
X149431916Y-59041816D01*
X149707634Y-59193394D01*
X149707639Y-59193396D01*
X149707641Y-59193397D01*
X149707642Y-59193398D01*
X150000171Y-59309218D01*
X150000174Y-59309219D01*
X150223554Y-59366573D01*
X150304927Y-59387466D01*
X150370410Y-59395738D01*
X150617070Y-59426899D01*
X150617079Y-59426899D01*
X150617082Y-59426900D01*
X150617084Y-59426900D01*
X150931716Y-59426900D01*
X150931718Y-59426900D01*
X150931721Y-59426899D01*
X150931729Y-59426899D01*
X151117993Y-59403368D01*
X151243873Y-59387466D01*
X151548625Y-59309219D01*
X151571291Y-59300245D01*
X151841157Y-59193398D01*
X151841158Y-59193397D01*
X151841156Y-59193397D01*
X151841166Y-59193394D01*
X152116884Y-59041816D01*
X152371430Y-58856878D01*
X152600790Y-58641494D01*
X152801347Y-58399063D01*
X152969937Y-58133407D01*
X153103903Y-57848715D01*
X153201131Y-57549479D01*
X153260088Y-57240415D01*
X153266845Y-57133015D01*
X153279844Y-56926405D01*
X153279844Y-56926394D01*
X153273088Y-56819005D01*
X179587156Y-56819005D01*
X179606910Y-57133004D01*
X179606911Y-57133011D01*
X179627399Y-57240411D01*
X179649582Y-57356702D01*
X179665870Y-57442083D01*
X179763097Y-57741316D01*
X179763099Y-57741321D01*
X179897061Y-58026003D01*
X179897064Y-58026009D01*
X180065651Y-58291661D01*
X180065654Y-58291665D01*
X180266206Y-58534090D01*
X180266208Y-58534092D01*
X180266210Y-58534094D01*
X180443342Y-58700432D01*
X180495568Y-58749476D01*
X180495578Y-58749484D01*
X180750104Y-58934408D01*
X180750109Y-58934410D01*
X180750116Y-58934416D01*
X181025834Y-59085994D01*
X181025839Y-59085996D01*
X181025841Y-59085997D01*
X181025842Y-59085998D01*
X181318371Y-59201818D01*
X181318374Y-59201819D01*
X181623123Y-59280065D01*
X181623127Y-59280066D01*
X181688610Y-59288338D01*
X181935270Y-59319499D01*
X181935279Y-59319499D01*
X181935282Y-59319500D01*
X181935284Y-59319500D01*
X182249916Y-59319500D01*
X182249918Y-59319500D01*
X182249921Y-59319499D01*
X182249929Y-59319499D01*
X182436193Y-59295968D01*
X182562073Y-59280066D01*
X182866825Y-59201819D01*
X182866828Y-59201818D01*
X183159357Y-59085998D01*
X183159358Y-59085997D01*
X183159356Y-59085997D01*
X183159366Y-59085994D01*
X183435084Y-58934416D01*
X183689630Y-58749478D01*
X183918990Y-58534094D01*
X184119547Y-58291663D01*
X184288137Y-58026007D01*
X184422103Y-57741315D01*
X184519331Y-57442079D01*
X184578288Y-57133015D01*
X184591287Y-56926400D01*
X184598044Y-56819005D01*
X184598044Y-56818994D01*
X184578289Y-56504995D01*
X184578288Y-56504988D01*
X184578288Y-56504985D01*
X184519331Y-56195921D01*
X184422103Y-55896685D01*
X184288137Y-55611993D01*
X184119547Y-55346337D01*
X184007842Y-55211309D01*
X183918993Y-55103909D01*
X183918991Y-55103907D01*
X183918540Y-55103483D01*
X183689630Y-54888522D01*
X183689627Y-54888520D01*
X183689621Y-54888515D01*
X183435095Y-54703591D01*
X183435088Y-54703586D01*
X183435084Y-54703584D01*
X183159366Y-54552006D01*
X183159363Y-54552004D01*
X183159358Y-54552002D01*
X183159357Y-54552001D01*
X182866828Y-54436181D01*
X182866825Y-54436180D01*
X182562076Y-54357934D01*
X182562063Y-54357932D01*
X182249929Y-54318500D01*
X182249918Y-54318500D01*
X181935282Y-54318500D01*
X181935270Y-54318500D01*
X181623136Y-54357932D01*
X181623123Y-54357934D01*
X181318374Y-54436180D01*
X181318371Y-54436181D01*
X181025842Y-54552001D01*
X181025841Y-54552002D01*
X180750116Y-54703584D01*
X180750104Y-54703591D01*
X180495578Y-54888515D01*
X180495568Y-54888523D01*
X180266208Y-55103907D01*
X180266206Y-55103909D01*
X180065654Y-55346334D01*
X180065651Y-55346338D01*
X179897064Y-55611990D01*
X179897061Y-55611996D01*
X179763099Y-55896678D01*
X179763097Y-55896683D01*
X179665870Y-56195916D01*
X179606911Y-56504988D01*
X179606910Y-56504995D01*
X179587156Y-56818994D01*
X179587156Y-56819005D01*
X153273088Y-56819005D01*
X153260089Y-56612395D01*
X153260088Y-56612388D01*
X153260088Y-56612385D01*
X153201131Y-56303321D01*
X153103903Y-56004085D01*
X152969937Y-55719393D01*
X152801347Y-55453737D01*
X152712498Y-55346337D01*
X152600793Y-55211309D01*
X152600791Y-55211307D01*
X152371431Y-54995923D01*
X152371421Y-54995915D01*
X152116895Y-54810991D01*
X152116888Y-54810986D01*
X152116884Y-54810984D01*
X151841166Y-54659406D01*
X151841163Y-54659404D01*
X151841158Y-54659402D01*
X151841157Y-54659401D01*
X151548628Y-54543581D01*
X151548625Y-54543580D01*
X151243876Y-54465334D01*
X151243863Y-54465332D01*
X150931729Y-54425900D01*
X150931718Y-54425900D01*
X150617082Y-54425900D01*
X150617070Y-54425900D01*
X150304936Y-54465332D01*
X150304923Y-54465334D01*
X150000174Y-54543580D01*
X150000171Y-54543581D01*
X149707642Y-54659401D01*
X149707641Y-54659402D01*
X149431916Y-54810984D01*
X149431904Y-54810991D01*
X149177378Y-54995915D01*
X149177368Y-54995923D01*
X148948008Y-55211307D01*
X148948006Y-55211309D01*
X148747454Y-55453734D01*
X148747451Y-55453738D01*
X148578864Y-55719390D01*
X148578861Y-55719396D01*
X148444899Y-56004078D01*
X148444897Y-56004083D01*
X148347670Y-56303316D01*
X148288711Y-56612388D01*
X148288710Y-56612395D01*
X148268956Y-56926394D01*
X148268956Y-56926405D01*
X100496592Y-56926405D01*
X100496592Y-53517800D01*
X101899551Y-53517800D01*
X101919317Y-53768951D01*
X101978126Y-54013910D01*
X102074533Y-54246659D01*
X102206160Y-54461453D01*
X102206161Y-54461456D01*
X102261604Y-54526371D01*
X102369776Y-54653024D01*
X102518066Y-54779675D01*
X102561343Y-54816638D01*
X102561346Y-54816639D01*
X102776140Y-54948266D01*
X103008889Y-55044673D01*
X103253852Y-55103483D01*
X103442118Y-55118300D01*
X103442126Y-55118300D01*
X103567874Y-55118300D01*
X103567882Y-55118300D01*
X103756148Y-55103483D01*
X104001111Y-55044673D01*
X104233859Y-54948266D01*
X104448659Y-54816636D01*
X104640224Y-54653024D01*
X104803836Y-54461459D01*
X104935466Y-54246659D01*
X105031873Y-54013911D01*
X105090683Y-53768948D01*
X105110449Y-53517800D01*
X190875751Y-53517800D01*
X190895517Y-53768951D01*
X190954326Y-54013910D01*
X191050733Y-54246659D01*
X191182360Y-54461453D01*
X191182361Y-54461456D01*
X191237804Y-54526371D01*
X191345976Y-54653024D01*
X191494266Y-54779675D01*
X191537543Y-54816638D01*
X191537546Y-54816639D01*
X191752340Y-54948266D01*
X191985089Y-55044673D01*
X192230052Y-55103483D01*
X192418318Y-55118300D01*
X192418326Y-55118300D01*
X192544074Y-55118300D01*
X192544082Y-55118300D01*
X192732348Y-55103483D01*
X192977311Y-55044673D01*
X193210059Y-54948266D01*
X193424859Y-54816636D01*
X193616424Y-54653024D01*
X193780036Y-54461459D01*
X193911666Y-54246659D01*
X194008073Y-54013911D01*
X194066883Y-53768948D01*
X194086649Y-53517800D01*
X194066883Y-53266652D01*
X194008073Y-53021689D01*
X193911666Y-52788941D01*
X193911666Y-52788940D01*
X193780039Y-52574146D01*
X193780038Y-52574143D01*
X193743075Y-52530866D01*
X193616424Y-52382576D01*
X193489771Y-52274404D01*
X193424856Y-52218961D01*
X193424853Y-52218960D01*
X193210059Y-52087333D01*
X192977310Y-51990926D01*
X192732351Y-51932117D01*
X192544087Y-51917300D01*
X192544082Y-51917300D01*
X192418318Y-51917300D01*
X192418312Y-51917300D01*
X192230048Y-51932117D01*
X191985089Y-51990926D01*
X191752340Y-52087333D01*
X191537546Y-52218960D01*
X191537543Y-52218961D01*
X191345976Y-52382576D01*
X191182361Y-52574143D01*
X191182360Y-52574146D01*
X191050733Y-52788940D01*
X190954326Y-53021689D01*
X190895517Y-53266648D01*
X190875751Y-53517800D01*
X105110449Y-53517800D01*
X105090683Y-53266652D01*
X105031873Y-53021689D01*
X104935466Y-52788941D01*
X104935466Y-52788940D01*
X104803839Y-52574146D01*
X104803838Y-52574143D01*
X104766875Y-52530866D01*
X104640224Y-52382576D01*
X104513571Y-52274404D01*
X104448656Y-52218961D01*
X104448653Y-52218960D01*
X104233859Y-52087333D01*
X104001110Y-51990926D01*
X103756151Y-51932117D01*
X103567887Y-51917300D01*
X103567882Y-51917300D01*
X103442118Y-51917300D01*
X103442112Y-51917300D01*
X103253848Y-51932117D01*
X103008889Y-51990926D01*
X102776140Y-52087333D01*
X102561346Y-52218960D01*
X102561343Y-52218961D01*
X102369776Y-52382576D01*
X102206161Y-52574143D01*
X102206160Y-52574146D01*
X102074533Y-52788940D01*
X101978126Y-53021689D01*
X101919317Y-53266648D01*
X101899551Y-53517800D01*
X100496592Y-53517800D01*
X100496592Y-52056621D01*
X100496593Y-52056618D01*
X100496592Y-51995149D01*
X100496908Y-51986305D01*
X100501842Y-51917300D01*
X100511293Y-51785129D01*
X100513805Y-51767648D01*
X100555740Y-51574867D01*
X100560714Y-51557930D01*
X100629646Y-51373108D01*
X100636989Y-51357027D01*
X100731533Y-51183882D01*
X100741074Y-51169035D01*
X100859301Y-51011103D01*
X100870869Y-50997753D01*
X101010353Y-50858269D01*
X101023703Y-50846701D01*
X101181635Y-50728474D01*
X101196482Y-50718933D01*
X101369627Y-50624389D01*
X101385708Y-50617046D01*
X101570530Y-50548114D01*
X101587467Y-50543140D01*
X101780248Y-50501205D01*
X101797729Y-50498693D01*
X101998908Y-50484307D01*
X102007749Y-50483992D01*
X102069218Y-50483993D01*
X102069222Y-50483992D01*
X193916978Y-50483992D01*
X193916982Y-50483993D01*
G37*
%TD.AperFunction*%
%TD*%
M02*
