%TF.GenerationSoftware,KiCad,Pcbnew,7.0.11-7.0.11~ubuntu22.04.1*%
%TF.CreationDate,2024-08-19T10:23:40+10:00*%
%TF.ProjectId,controller,636f6e74-726f-46c6-9c65-722e6b696361,rev?*%
%TF.SameCoordinates,Original*%
%TF.FileFunction,Paste,Bot*%
%TF.FilePolarity,Positive*%
%FSLAX46Y46*%
G04 Gerber Fmt 4.6, Leading zero omitted, Abs format (unit mm)*
G04 Created by KiCad (PCBNEW 7.0.11-7.0.11~ubuntu22.04.1) date 2024-08-19 10:23:40*
%MOMM*%
%LPD*%
G01*
G04 APERTURE LIST*
G04 Aperture macros list*
%AMRoundRect*
0 Rectangle with rounded corners*
0 $1 Rounding radius*
0 $2 $3 $4 $5 $6 $7 $8 $9 X,Y pos of 4 corners*
0 Add a 4 corners polygon primitive as box body*
4,1,4,$2,$3,$4,$5,$6,$7,$8,$9,$2,$3,0*
0 Add four circle primitives for the rounded corners*
1,1,$1+$1,$2,$3*
1,1,$1+$1,$4,$5*
1,1,$1+$1,$6,$7*
1,1,$1+$1,$8,$9*
0 Add four rect primitives between the rounded corners*
20,1,$1+$1,$2,$3,$4,$5,0*
20,1,$1+$1,$4,$5,$6,$7,0*
20,1,$1+$1,$6,$7,$8,$9,0*
20,1,$1+$1,$8,$9,$2,$3,0*%
G04 Aperture macros list end*
%ADD10RoundRect,0.250000X-0.262500X-0.450000X0.262500X-0.450000X0.262500X0.450000X-0.262500X0.450000X0*%
%ADD11RoundRect,0.250000X-0.475000X0.250000X-0.475000X-0.250000X0.475000X-0.250000X0.475000X0.250000X0*%
%ADD12RoundRect,0.250000X0.250000X0.475000X-0.250000X0.475000X-0.250000X-0.475000X0.250000X-0.475000X0*%
%ADD13RoundRect,0.255000X2.245000X0.255000X-2.245000X0.255000X-2.245000X-0.255000X2.245000X-0.255000X0*%
%ADD14RoundRect,0.243750X-0.243750X-0.456250X0.243750X-0.456250X0.243750X0.456250X-0.243750X0.456250X0*%
%ADD15RoundRect,0.250000X-0.450000X0.262500X-0.450000X-0.262500X0.450000X-0.262500X0.450000X0.262500X0*%
%ADD16RoundRect,0.250000X0.450000X-0.262500X0.450000X0.262500X-0.450000X0.262500X-0.450000X-0.262500X0*%
%ADD17R,1.981200X0.558800*%
%ADD18RoundRect,0.150000X0.150000X-0.825000X0.150000X0.825000X-0.150000X0.825000X-0.150000X-0.825000X0*%
G04 APERTURE END LIST*
D10*
%TO.C,R3*%
X168530900Y-85572600D03*
X170355900Y-85572600D03*
%TD*%
D11*
%TO.C,C3*%
X124790200Y-114899400D03*
X124790200Y-116799400D03*
%TD*%
D12*
%TO.C,C4*%
X114005400Y-126009400D03*
X112105400Y-126009400D03*
%TD*%
D13*
%TO.C,J1*%
X169265600Y-118516400D03*
X161665600Y-118516400D03*
X169265600Y-121056400D03*
X161665600Y-121056400D03*
X169265600Y-123596400D03*
X161665600Y-123596400D03*
X169265600Y-126136400D03*
X161665600Y-126136400D03*
%TD*%
D14*
%TO.C,D6*%
X110822500Y-112877600D03*
X112697500Y-112877600D03*
%TD*%
D11*
%TO.C,C2*%
X169452200Y-65521800D03*
X169452200Y-67421800D03*
%TD*%
D14*
%TO.C,D8*%
X111785800Y-54927500D03*
X113660800Y-54927500D03*
%TD*%
D10*
%TO.C,R2*%
X138025500Y-85674200D03*
X139850500Y-85674200D03*
%TD*%
D15*
%TO.C,R22*%
X142519400Y-124842900D03*
X142519400Y-126667900D03*
%TD*%
D10*
%TO.C,R4*%
X138025500Y-110185200D03*
X139850500Y-110185200D03*
%TD*%
D11*
%TO.C,C1*%
X166099400Y-65521800D03*
X166099400Y-67421800D03*
%TD*%
D16*
%TO.C,R12*%
X161730600Y-67460500D03*
X161730600Y-65635500D03*
%TD*%
D17*
%TO.C,U1*%
X138074400Y-117043200D03*
X138074400Y-118313200D03*
X138074400Y-119583200D03*
X138074400Y-120853200D03*
X138074400Y-122123200D03*
X138074400Y-123393200D03*
X138074400Y-124663200D03*
X138074400Y-125933200D03*
X138074400Y-127203200D03*
X129032000Y-127203200D03*
X129032000Y-125933200D03*
X129032000Y-124663200D03*
X129032000Y-123393200D03*
X129032000Y-122123200D03*
X129032000Y-120853200D03*
X129032000Y-119583200D03*
X129032000Y-118313200D03*
X129032000Y-117043200D03*
%TD*%
D12*
%TO.C,C7*%
X114867100Y-70446900D03*
X112967100Y-70446900D03*
%TD*%
D15*
%TO.C,R19*%
X113157000Y-61127000D03*
X113157000Y-62952000D03*
%TD*%
D10*
%TO.C,R1*%
X168530900Y-61188600D03*
X170355900Y-61188600D03*
%TD*%
%TO.C,R6*%
X138025500Y-134416800D03*
X139850500Y-134416800D03*
%TD*%
%TO.C,R5*%
X168530900Y-109880400D03*
X170355900Y-109880400D03*
%TD*%
D14*
%TO.C,D4*%
X112041700Y-137109200D03*
X113916700Y-137109200D03*
%TD*%
D10*
%TO.C,R18*%
X119871950Y-54695550D03*
X121696950Y-54695550D03*
%TD*%
%TO.C,R20*%
X118164600Y-79922050D03*
X119989600Y-79922050D03*
%TD*%
D16*
%TO.C,R14*%
X113131600Y-108251000D03*
X113131600Y-106426000D03*
%TD*%
D10*
%TO.C,R0*%
X138025500Y-61442600D03*
X139850500Y-61442600D03*
%TD*%
D14*
%TO.C,D9*%
X111637600Y-80214150D03*
X113512600Y-80214150D03*
%TD*%
D15*
%TO.C,R21*%
X113563400Y-84940450D03*
X113563400Y-86765450D03*
%TD*%
D10*
%TO.C,R16*%
X116816500Y-117652800D03*
X118641500Y-117652800D03*
%TD*%
D16*
%TO.C,R9*%
X118313200Y-127963300D03*
X118313200Y-126138300D03*
%TD*%
D10*
%TO.C,R15*%
X128199350Y-61450432D03*
X130024350Y-61450432D03*
%TD*%
D12*
%TO.C,C8*%
X115097600Y-92583950D03*
X113197600Y-92583950D03*
%TD*%
%TO.C,C6*%
X111323200Y-117957600D03*
X109423200Y-117957600D03*
%TD*%
D18*
%TO.C,U2*%
X169316400Y-76262000D03*
X168046400Y-76262000D03*
X166776400Y-76262000D03*
X165506400Y-76262000D03*
X164236400Y-76262000D03*
X162966400Y-76262000D03*
X161696400Y-76262000D03*
X160426400Y-76262000D03*
X160426400Y-71312000D03*
X161696400Y-71312000D03*
X162966400Y-71312000D03*
X164236400Y-71312000D03*
X165506400Y-71312000D03*
X166776400Y-71312000D03*
X168046400Y-71312000D03*
X169316400Y-71312000D03*
%TD*%
D10*
%TO.C,R13*%
X128199350Y-110301400D03*
X130024350Y-110301400D03*
%TD*%
%TO.C,R17*%
X128199350Y-86208550D03*
X130024350Y-86208550D03*
%TD*%
%TO.C,R11*%
X128199350Y-134192000D03*
X130024350Y-134192000D03*
%TD*%
%TO.C,R7*%
X168530900Y-134416800D03*
X170355900Y-134416800D03*
%TD*%
D16*
%TO.C,R8*%
X124282200Y-140612500D03*
X124282200Y-138787500D03*
%TD*%
M02*
